<?xml version="1.0" encoding="UTF-8"?><svg id="Calque_2" xmlns="http://www.w3.org/2000/svg" viewBox="0 0 368.34 331.61"><defs><style>.cls-1{fill:#fff;}</style></defs><g id="Calque_1-2"><path class="cls-1" d="M21.02,331.61c8.59-3.08,21.96-9.13,35-21,9.32-8.49,15.5-17.23,19.45-23.92-10.07-5.63-51.09-30.06-68.45-82.08-2.03-6.07-16.91-52.94,4-103C48.56,11.74,164.1,.99,169.02,.61c58.02-4.5,146.89,14.83,183.6,89.57,21.54,43.85,20.89,98.18-1.6,140.43-37.98,71.35-137.97,107.71-240,76-6.18,3.82-13.17,7.59-21,11-26.52,11.55-51.3,14.03-69,14Z"/></g></svg>