<svg xmlns="http://www.w3.org/2000/svg" viewBox="0 0 563.73 776.06"><defs><style>.cls-1,.cls-2{fill:none;stroke:#71a0cf;stroke-miterlimit:10;}.cls-2{stroke-width:2.83px;}</style></defs><g id="Calque_2" data-name="Calque 2"><g id="Calque_4" data-name="Calque 4"><path class="cls-1" d="M26.77,178.68c.36-3.82,1.77-7.71,18.64-25.24,15.38-16,18.27-17,21-16.72,5.24.48,5.72,5.13,17.43,18.52,9,10.35,14.94,17.08,24.22,24,7.28,5.41,11.53,7.12,11.64,11,.17,5.49-8.29,9.85-14.31,13-7.11,3.66-18.9,9.74-35.78,8.94-8.66-.41-26.43-1.25-36.55-14.57C31.52,195.48,25.9,188.07,26.77,178.68Z"/><path class="cls-1" d="M2.79,310.62c2.27-.2,1.56-.91,7.47-6.18,9.36-8.32,9.18-22.28,9.06-32.51-.19-15.09-4.27-24.18-1.72-40.82.44-2.88,1.17-6.6,4.14-9.09,5.61-4.7,15-1.5,21,.09,10.43,2.77,23.73,1.91,50.33.18,33.34-2.16,39.56-8.73,41.79-11.56a27.68,27.68,0,0,0,5.5-14.94c.64-11.63-6.83-20-9-22.42-7.07-7.87-10.81-5.29-20.84-13.32s-15.32-17.89-18.24-23.34c-8-15-5.1-19.94-11.16-24.22-9.84-6.94-27.23-.66-37,5.77-7.85,5.14-6.83,7.74-23.82,25.11-3.56,3.64-10,10-17.46,16.63"/><path class="cls-1" d="M2.79,135.69c4.37-7.44.85-18.44,13.14-29.46,8.46-7.58,25.41-22.78,49-22.09,12.95.37,33.95,5.72,39.41,19.51,3.4,8.61-1.72,14.25,3.33,26.24,1.88,4.48,5.28,8.47,12,16.26,11.51,13.33,14,13.19,20.76,22.19,6.25,8.29,11.25,14.93,12.15,24.83.17,1.83,1.07,13.51-6.29,23.93-9.11,12.9-24.94,15.44-37.37,17.43-11.59,1.86-12.12-.19-36.66,1.3-22.39,1.37-26.92,3.38-30.4,6.47-4.93,4.37-6.63,11.5-9.85,25.58-4.52,19.82-2.48,24.54-7,37.27-3,8.51-15.2,17.61-22.23,23.3"/><path class="cls-1" d="M2.79,361.81c4.11-1.3,7.7-4.19,16.07-11.83,13.73-12.54,17.21-29.71,21-49.68,4.78-25.2,1-32.65,9-40.9,5.77-6,14.34-7.59,31.46-10.8,22.9-4.29,25.58-.64,39.94-4.92,8.68-2.58,25.28-7.53,35.33-23,10.46-16.07,7.73-34.19,7-38.36-1.62-9-7-19.39-17.69-40.13-6.75-13.06-8.48-15.18-7.44-18.7,4.13-13.9,39.19-7.8,44.93-21.36,4.64-11-12.37-28.86-21-36.09-21.11-17.69-44.93-21-62.49-23C57.33,38.31,18.2,49.66,2.79,55.26"/><path class="cls-1" d="M91.85,287.93c-4.12,1-9.74,4.5-10.47,10.56A11.47,11.47,0,0,0,85.75,309c6.48,4.69,15.42-1.27,16.66-2.13,1.41-1,7.57-5.24,7-10.38C108.65,290.56,99.31,286.07,91.85,287.93Z"/><path class="cls-1" d="M89.91,272.8c-7.49,2-11.36,3.1-15.31,6.42-7.88,6.62-11,17.85-9.5,27.63.44,2.82,2,13.08,10.21,18.56,11.65,7.82,28.76.6,40.82-4.48,6.86-2.9,7-4,19.45-9.51,10.67-4.76,16.13-7.16,22-8.09,4.7-.74,11.43-.14,24.9,1.05,14.86,1.33,16.73,2.14,21.91,1a43.7,43.7,0,0,0,17.16-8.53c7.55-6.1,7.73-10.46,14.6-13.46a21.77,21.77,0,0,1,12.94-1.59c9.13,1.94,14.29,10.52,20.41,20.68,3.55,5.9,2.46,5.5,8.45,16.19,5.66,10.11,8.7,14.17,13.11,17.69,2.46,2,5.4,4.3,9.77,5.45,7.09,1.86,12.26-.93,18.91-2.81,9.3-2.63,17.23-1.93,33.09-.53,15.05,1.32,16,3.71,26.83,3.16,7.72-.38,15.52-.77,23.15-6.15C412,329,415.09,319.35,416,315.82c3.54-13.56-2.21-25.16-5.19-31-3.12-6.08-7.57-12.18-36.95-33.52-21.79-15.82-32.86-23.76-41.71-25.08a140.15,140.15,0,0,0-34.93-.53c-3.7.5-5.17.89-8,.71-10.45-.68-18-7.75-27.54-18.13-20.8-22.52-24.43-31.4-37.75-37.22-6-2.62-11.26-3.45-16.36-2.2-4.33,1.06-8.37,3.58-12.94,8.8-7.9,9-8.12,15.54-15.05,33.35s-13.13,27.93-15.75,32c-5.43,8.51-8.15,12.77-12.4,16.1-9.34,7.3-20.13,8.48-36.78,10.29C104.71,270.53,99.77,270.14,89.91,272.8Z"/><path class="cls-1" d="M205.61,194.41c-7.7,2.26-9.39,9.84-20.69,39-10.75,27.79-14.37,34.23-10.45,41.81,3.29,6.37,10.84,11.51,17.93,11.12,8.55-.48,9.53-8.59,23.66-19.65s20.59-8.85,26.34-18.34c5.46-9,4.32-18.77,3.69-22.33-2.66-15-14.77-22.67-18.74-25.19C221.54,197.19,213.5,192.1,205.61,194.41Z"/><path class="cls-2" d="M529.42,775.39c-1.8-14.2.23-16.48,2.18-23.54A89.16,89.16,0,0,1,543,727c9.77-14.8,17.2-16.4,19-26.24,1.44-7.93-2-14.6-5.45-21.1-12.74-23.94-30.28-21.36-36.48-38.53-5-13.92.58-32.08,8.79-42.21,2.8-3.45,6.19-6.33,16-17.71,8.29-9.63,9.23-11.48,9.78-12.79,1.84-4.35,3.78-13.15-5.28-31.06-3.6-7.11-10.12-18-39.14-44.42a239.92,239.92,0,0,0-48.65-34.06c-6.3-3.32-13-6.43-19.7-4.27-9.6,3.08-12.27,14.55-17.2,25.49-9.23,20.45-23.16,31.88-47.42,51.77-20.25,16.6-30.38,24.91-46.89,29.08-18.23,4.6-26.12-.2-39.18,8.64-13.6,9.21-25.12,22.78-25.12,22.78-4.78,5.62-7.91,10.31-13.31,10.76s-10.09-3.81-15.1-8.84c-13.05-13.09-21.8-23.92-24-26.46-17.5-20.69-47.39-24.2-58.95-25.55-21.81-2.56-30.26,3.52-48.77-4.18a63.09,63.09,0,0,1-21.12-13.66C65.39,505,75.24,486.92,57.59,471.61c-9.56-8.29-15.85-5.93-25.8-17.37-1.11-1.28-13.53-15.82-9.06-23.11,1.59-2.58,4.76-3.39,6.91-3.8,16.9-3.23,37.9,5.07,60.07,12.78,20.46,7.11,26.4,8.33,34,6.95,7.45-1.36,7.13-3.51,20.89-8.21a131.42,131.42,0,0,1,33.19-7c9.91-.67,15.07-1,21.56.64,18.16,4.62,18.54,17.73,34.93,24.23,13.52,5.36,26.82,1.8,43.73-2.73,15.22-4.07,15.31-7,34.9-14.72,27.26-10.76,36.16-8.71,63.68-20.92,20.33-9,24.32-14.07,26.46-18.24,6.11-11.89,3.31-28.51-5.1-39-14.79-18.39-47.71-18.62-68.42-13.53-18.4,4.52-28,13.46-39.45,8.06-3.45-1.62-7.57-7.37-15.68-18.81-13.95-19.7-17.56-27.72-26.58-29.69-3.13-.68-6-.12-11.62,1-19.32,3.79-21.36,12.89-33.57,13.66-11.87.74-13.24-7.65-28.31-7.35-7.36.15-12.74,2.26-20.06,5.14-14.54,5.72-16.24,10.29-27.7,15.52-4.4,2-14.7,3.68-35.13,6.92-25.92,4.11-32.38,4.49-35.9.35-1.91-2.26-1.86-4.56-1.79-12.76.32-35.42-.24-38.45,2.91-45.22,1.64-3.55,5.25-11.09,13.19-16.63,7.3-5.09,14.56-5.91,19.73-6.62,14.16-1.93,34.18-4.67,46.93-11.09,22.42-11.3,30.68-38.21,31.12-39.7,5.74-19.61-.26-36.32,12.61-48.62a30.88,30.88,0,0,1,7.25-5.12c7.15-4.26,11.36-4.65,24.1-9.6,9.65-3.74,11.15-5,12.16-6.82,3.27-5.73-.22-13.25-1.49-16-4.16-9-11.17-10.15-16.42-15.36-11.08-11-4.17-28-6.3-42.07-5.79-38.26-79-56.72-90.8-59.71-45.59-11.5-85.05-3-107,3.73"/><path class="cls-1" d="M481.5,676.56c-6.33,3.09-7.48,11.31-7.53,11.66-1.56,12.43,13.14,20.58,15,21.6,3.77,2.09,9.54,5.29,14.51,2.93,6-2.85,7.59-12.24,6.13-18.69C506.81,681.75,491.1,671.86,481.5,676.56Z"/><path class="cls-1" d="M469.29,663.81c-3.75,2.28-9,5.46-11,11.49-2.25,6.79,2.11,9.83,10.74,32,3.56,9.15,4.82,13.77,9.73,19.56,3,3.57,6.6,7.77,12.1,8.74,8.3,1.47,15.56-5.36,19.72-9.29s15.54-14.62,14.92-31.57c0-.91-1.17-22-19.72-31.9A37.55,37.55,0,0,0,469.29,663.81Z"/><path class="cls-1" d="M452.66,630.15c-4.58,1.07-7.68,6.88-6.3,9.18s7.81,1.64,11.56-1.37c.73-.58,3.12-2.5,2.76-4.52C460.24,631,456,629.38,452.66,630.15Z"/><path class="cls-1" d="M368,592.75c-1.43.54-9.15,3.43-10,9.2-.85,5.62,5.32,10.52,9.4,13.76,6.45,5.12,23.43,15.86,31.24,9.09,5.07-4.41,4.25-14.46,1.06-20.86C393.86,592.33,378.27,588.89,368,592.75Z"/><path class="cls-1" d="M360.87,573.71a110.12,110.12,0,0,1,19.31-5c13.09-1.9,16.57,1.64,28.84,1.78s12.17-3.38,38.66-9.38c25-5.66,30.51-3.76,33.27-2.52,11.56,5.19,16.16,17.39,17.37,20.57,2.07,5.49,5.6,14.82.76,22.83-3.5,5.8-10.37,9.2-16.65,9.5-10.58.51-12.89-8-25.13-9.35-.72-.08-12.62-1.18-22,6.11-9.62,7.52-6.39,16-15.31,24-7.65,6.79-17.49,7.14-25.83,7.44-9.85.35-20.11-3.41-40.63-10.94,0,0-18.05-6.61-33.63-17.66a31.84,31.84,0,0,1-8-8.32c-2.08-3.16-4.51-6.85-3.48-10.12.73-2.33,3.06-4,12.3-6.66,11.89-3.48,14.58-2.7,23.16-5.34C351.75,578.21,351,577.11,360.87,573.71Z"/><path class="cls-1" d="M352.28,563.47c24.14-12,36.22-17.94,36.73-18.14,14.26-5.75,19.39-6,26.19-12.55,3.59-3.48,4.72-5.91,8.69-7.39,6.93-2.57,10.84,2.1,22,3.08,5.61.49,15.52,1.37,21.36-4.21,6.4-6.11,2.93-15.21,8.74-18.4,2-1.09,4.94-1.42,13,1.94,12.24,5.13,25.08,10.51,31.77,24.49,5.75,12,3.84,23.85,3.15,28.1-2,12.58-7.4,15.36-9.6,30.78-1.29,9.06.44,8.92-.9,17.86-2.61,17.39-9.36,19.28-9,28.6.44,12.71,13.12,13.19,24,33.42,3.3,6.1,9.85,18.64,8.23,34.77-1.63,16.3-10.67,27-14,30.84-6.13,7.09-15.62,18.05-29,17.6-15.46-.52-25.32-15.94-27.27-19-5-7.84-2.72-9.83-9.64-27.8-4.94-12.8-5.21-9.49-11.11-24.09-5.21-12.93-6.77-19.91-14.16-24.66A28.9,28.9,0,0,0,424,655.6a82.06,82.06,0,0,0-30.52-3c-8.55.52-20-3.86-42.79-12.63a271.92,271.92,0,0,1-52.8-28.55c-9-6.23-13.87-10.36-13.81-15.65.13-10.71,20.26-18.33,21.44-18.77,11.13-4.1,15.12-.93,28.93-5.28C337.56,570.77,338.79,570.15,352.28,563.47Z"/><path class="cls-1" d="M358.72,695.73c-2.1,8.15,6.55,16.62,11.73,20.17,7.23,5,20.74,9.27,28.24,2.15,6.23-5.9,4.34-15.9,4.17-16.72-2.18-10.66-12.31-15-13.55-15.49C377.75,681.13,361.22,686.08,358.72,695.73Z"/><path class="cls-1" d="M343.43,686.51c-5.27,10.52.79,24.38,7,32.18,6.94,8.68,15.75,11.94,20.06,13.47,14.52,5.17,26.94,1.85,37.76-1,11.37-3,13.36-6.07,13.9-7,4.41-7.46-2-18.47-5.38-24.39A48.54,48.54,0,0,0,397,680.11c-9.44-4.9-17.32-4.84-29.61-4.75-10.81.08-15.38,2-18.64,4.66A20.16,20.16,0,0,0,343.43,686.51Z"/><path class="cls-1" d="M328.87,665.68c-3.9,3.61-2.61,8.63,1,35.06,1.62,12,2.23,17.39,6.62,23.45a38.15,38.15,0,0,0,8.73,8.26c6.63,4.84,15.49,9.29,28.06,11.87,8.91,1.83,33.76,6.93,53.55-6.09,7.8-5.13,9.52-9.58,10-11.22,2.16-6.79-1-13.07-6.07-23.12-3.21-6.38-7.21-14.13-15.64-21.74A62.05,62.05,0,0,0,397,670.7c-9.8-3.94-10.55-1.09-29.29-4.62-12-2.26-18.24-4.66-29-3.36C333.62,663.34,331,663.69,328.87,665.68Z"/><path class="cls-1" d="M293.05,634.48c-2.32,3,1.11,8.78,6,18.28,9.39,18.21,14.08,27.32,15,33.2a60.57,60.57,0,0,1-7,37.58c-3.45,6.07-6.55,8.65-5.91,12.91,1.29,8.56,16,13.06,23.86,15.23,35.35,9.75,52.47,25.66,78.89,23.71,18.3-1.35,35.89-11.81,42.92-24,4.15-7.17,3.13-15.69,2.4-23.64-1.2-13.1-6.25-22.16-11-30.52-6.38-11.18-13-22.71-26-30.18-7.93-4.55-9.44-2.54-33.8-8.48-19-4.63-28.48-7-37.88-11.19-8.56-3.86-17.75-9.11-33.19-12.91C299,632.45,294.76,632.29,293.05,634.48Z"/><path class="cls-1" d="M245.52,676.54c-6.16,1.15-10.52,2-13.71,5.9-5.38,6.64-2.31,15.86-2,16.78.47,1.34,3.14,9,10.17,11,5.28,1.55,9.85-1,15.2-3.93,5.14-2.84,11.85-6.55,13.85-14.17.27-1,2.17-8.21-1.83-13C262.42,673.4,252.64,675.22,245.52,676.54Z"/><path class="cls-1" d="M220.29,656.26c-2.67,2-17.62,13-17.95,32.52-.34,19.79,14.67,31.44,16.35,32.7,1.51,1.13,14.38,10.48,30.11,7.73,2.34-.41,10.33-5.27,26.2-15,9-5.5,13.12-8.11,16.78-13.58,1.79-2.68,5-7.6,5.13-14.26.18-9.33-5.77-16-9.85-20.57-7.79-8.72-16.79-12.19-21.91-14.09-5.47-2-13.37-5-23.85-3.74A44.35,44.35,0,0,0,220.29,656.26Z"/><path class="cls-1" d="M84.83,465.8c-6.85,7-1.7,22.15,0,27.05,6.07,17.83,20.84,27.12,25.74,29.9,5.49,3.11,10.33,4.72,44.57,9,36.43,4.56,37.6,3.57,45.9,6.89,12.53,5,32,16.12,33.76,17.1,8.92,5.11,10.94,6.75,16.05,8.23,10.56,3,19.39,1.07,33.5-2.46,27.75-7,41.63-10.42,46-12.65,7.2-3.68,17.14-12.92,36.74-31.26,29.25-27.37,35.46-35.55,39.88-42.12,2.2-3.26,6.5-11.81,15.1-28.9,5.73-11.41,9.55-19.5,6.7-26.74-.41-1-2.26-5.74-6-6.6-2.79-.64-5.4,1.17-6.2,1.7-10.33,6.93-23.38,8.56-34.75,13.57-17.57,7.75-15.18,5-34.95,13.52-17.91,7.69-18.25,9.23-29.89,13.4-10.42,3.74-11.22,2.89-32.93,8.41-31.2,7.94-34.72,11-45.29,9.18-9-1.55-16.54-5.51-25-9.91-15-7.82-14.53-11.24-22.66-13.26-7.24-1.8-11.1,0-36.36,7-17.69,4.84-26.54,7.26-30.21,7.68C101.18,467.15,91.28,459.18,84.83,465.8Z"/><path class="cls-1" d="M154.32,490.25c6.28-8.51,11.41-15.45,21.12-18.78,7.86-2.69,14.67-1.65,19.4-.86,15.1,2.5,15.92,9.61,30.5,13.54,12.39,3.35,23.63,1.41,32.73-.15,12.15-2.1,11.44-4.29,23.54-6.21,14.83-2.35,17,.76,30.4-1.88a85.5,85.5,0,0,0,23.22-8.26c10.67-5.68,9.73-8.22,21.32-14.76,14-7.88,22.79-8.42,26.66-8.41,2.63,0,12.75,0,14.41,4.5,1,2.73-1.84,5.22-6,11.47-7.8,11.64-5.58,14.45-12.32,24-3.86,5.47-4.22,4-14.21,14.65C354.86,510,354.4,512.35,347.86,519a100.31,100.31,0,0,1-24.63,18.36c-5.89,3-20.25,10.48-38.57,10-5.17-.13-4.5-.74-39-11.85C213,525,211.18,525.14,206.09,521.08c-3.24-2.58-8.31-7.29-16.47-8.9-3.93-.78-7.24-.48-13.86.11-13.94,1.26-17.79,3.84-22.34,1a12.68,12.68,0,0,1-5.23-8C147.83,503.32,147.62,499.33,154.32,490.25Z"/><path class="cls-1" d="M267.24,497c-5.79,3.33-12.65,7.29-12.49,11.63.1,2.84,3.16,4.58,12,9.38,15.5,8.44,23.3,12.67,26,13.17,3.11.58,14.58,2.57,26.26-3.27,4.7-2.35,11.78-5.88,13.7-13.47,1.34-5.27.05-12-4.17-15.66-3.34-2.91-5.71-1.47-15.35-3.4-12.12-2.42-12.47-5.51-20.81-5.6a46.29,46.29,0,0,0-15.23,2.79A53.16,53.16,0,0,0,267.24,497Z"/><path class="cls-1" d="M2.79,635.22c4.18-.06,10.62-.86,15.73-5.28,4.32-3.74,6.05-8.66,9.05-17.48,4-11.75,3.12-15.63,7.36-18.79,4.51-3.36,10.36-2.59,12.15-2.36,1.26.17,8.85,1.17,12.34,6.75s-.85,9.52.47,17.83c2,12.4,14.13,19.62,15.69,20.51,10.41,6,20.78,4.22,24.91,3.52,8-1.35,8.54-3.8,21.9-9.61,7.9-3.44,18.12-7.88,31-9.62,4.53-.61,2.57,0,26.14-.75,14.94-.5,19.65-.89,24-4.56,6.46-5.42,7.17-13.79,7.23-14.57.87-12.39-10.32-21.81-18.88-29-5.94-5-18.61-15.67-37.87-18.71-16-2.53-19.15,3-43.33.7-18.41-1.76-23.42-5.61-25.08-7-7.37-6.21-6.21-12.52-13-27.77a116.38,116.38,0,0,0-18.76-29.37c-8.52-9.49-9.64-6.72-32-25.88C11.54,454.94,6,449.39,2.79,446.1c-6.65-6.86,3.69-13,0-17.7"/><path class="cls-1" d="M86.94,582.06c-5.93,7.38-11,21.28-4.65,31,6.93,10.68,23.29,9.88,27.64,9.67,9.14-.45,9.59-3.5,27.56-8,7-1.73,7.15-1.34,22-4.63,17.45-3.87,20.6-5.17,22.94-8.4,3.93-5.45,3.29-13.24,1.15-18.42-3.76-9.13-13.15-12.52-25.11-16.84-8.36-3-19.21-6.93-32.84-4.56-8.31,1.44-14.36,4.66-22.16,8.81C94.81,575.33,90.5,577.62,86.94,582.06Z"/><path class="cls-1" d="M116.66,586.74c-8.22,5.75-8.32,8.17-8.28,8.92.2,4.53,7.86,7.38,8.74,7.7,7.6,2.83,14.5.39,25.91-3.66,12-4.27,13.55-7.25,14-9,1.07-3.86-1.4-7.5-1.73-8-5.66-8.1-21-5-22.45-4.65C127.2,579.35,123.68,581.81,116.66,586.74Z"/><path class="cls-1" d="M39.57,710.18c3.35,5.5,6.07,10,11.26,13.33,8.3,5.36,20.8,6.5,30.42.53,2.11-1.31,9.55-5.92,10.77-14,1.56-10.36-8.24-18.65-12.92-22.62a42.56,42.56,0,0,0-22-9.54c-6.72-1-12.87-1.88-17.68,2-6.18,5-5.58,14.32-5.46,16.11C34.32,701.57,36.68,705.44,39.57,710.18Z"/><path class="cls-1" d="M16.47,678.86c-1.56,6.34.16,8.88,3.36,26.23,2.33,12.59,2,14.13,4.18,17.34,3.86,5.56,9.52,7.44,18.42,10.27,5.71,1.82,18.42,5.3,37.17,4.58,12.24-.46,18.36-.69,23.6-4.65,7.22-5.45,9.35-13.91,11.35-21.85,2.33-9.26,4.22-16.73.5-22.85-3.51-5.79-8.59-4.71-26.5-11.56C76.34,671.7,75.66,670,61.34,664.85c-12.16-4.41-17.45-5.31-23.33-4.54-3.27.42-9.43,1.31-14.66,6.18A24.35,24.35,0,0,0,16.47,678.86Z"/><path class="cls-1" d="M2.79,657.78A89.92,89.92,0,0,1,35,647.63c8.62-1,15.68-1.79,23.72,1.42,7.24,2.89,7.53,5.92,16.72,10.14,3.51,1.61,11.06,5,20.25,5.1,7.71.09,13.35-2.33,24.3-7.17,14.19-6.27,16.54-9.84,28.23-12.9a37.43,37.43,0,0,1,16.11-.82c4.08.73,8.7,1.56,11,5.33,2.54,4.1.86,9.22,0,11.86a21,21,0,0,1-6.44,9.71c-6.64,5.51-12.27,2.63-19.78,8-1.24.9-3.29,2.56-6.78,7.56-9.31,13.29-10.49,23.86-15.71,35.21-6.26,13.64-10,9.57-16.56,23-5.48,11.23-6.92,21.48-8.3,31.31"/><path class="cls-1" d="M201,370.85c5.8,1.38,8,2.44,14.13,3.27a115.46,115.46,0,0,0,16,1.09c5-.1,6-.53,8.32.28a14.61,14.61,0,0,1,9,9.23c.46,1.44,1.72,5.34,0,8.64-3.72,7.12-18.26,5.57-19.94,5.37-13.37-1.57-14.73-9.14-25.24-9-7.15.08-6.84,3.59-19.83,6.29-7.81,1.62-13.48,2.72-19.37,0-5-2.29-11.3-7.84-10.77-13.86.76-8.55,14.82-12.58,16.92-13.19C180.56,366,190.68,368.4,201,370.85Z"/><path class="cls-1" d="M187.82,351a119.84,119.84,0,0,0,29.41,2.53c18.34-.86,21.62-6.37,30-2.83,2.08.87,2.22,1.39,16.45,17.64,9.57,10.92,13.38,15.51,20.69,17.78a29,29,0,0,0,10.95,1.14c11.74-.78,15-7.44,27.53-12.86,3.86-1.67,17.39-7.32,32.06-3.42,3.64,1,14.53,3.86,16.44,11.53,1.44,5.79-2.95,11.36-4.6,13.46-8.69,11-23.19,13.18-34,14.61-22.83,3.05-28.68-3.31-40.67,3.24-9,4.92-8,9.76-17.45,14.33-11.76,5.67-23.91,3.31-31.18,1.8-25.19-5.24-27.33-19.79-47-20-8.72-.08-9.62,2.78-24.86,3.26-11.6.36-18.4.49-25.5-3.64-1.38-.8-13.29-8-14.77-21.25-1.3-11.74,6.87-20.36,13.65-27.57,4.9-5.22,12.12-12.9,22.78-14.08C174.25,346,175.59,348.38,187.82,351Z"/><path class="cls-1" d="M161.4,332.26c13.73-2.92,11.88,3.21,37,1.49,8.33-.57,18.73-1.94,36.64-2.6,9.48-.35,11.64-.16,14.05.44,10.08,2.51,11.28,10.72,25.41,24.15,7.82,7.43,11.72,11.14,17.64,12.61,8.43,2.11,12.39-1.84,27.21-5.64,20.3-5.2,35.41-3.55,38.87-3.12,10.59,1.31,20,2.47,26.6,10.27,4.85,5.73,8.21,15.06,5.43,23.35s-10.74,12.13-23.92,18.11c-6.81,3.09-11.47,4.5-33.5,10.62C307.38,429,305,429.52,299.5,432.19c-14.2,6.86-12.88,10.4-23.37,14-2.6.9-22.63,7.52-39.5-1.86-9.65-5.37-9.32-11-22.19-18.07a65.74,65.74,0,0,0-18.52-6.77c-18-3.9-29,1.64-46.29,4.21-16.58,2.47-29.91.27-56.56-4.14-28.56-4.72-47.74-7.89-50.09-18-2.09-9,9.74-20.87,20.11-26,9.33-4.59,13.91-1.93,28.34-6,8.16-2.29,14-5.42,25.46-11.59C148.74,340.83,147.51,335.22,161.4,332.26Z"/><path class="cls-1" d="M266.06,258.27c-5.43,18.46,6.33,34.43,16.71,48.52,6.42,8.72,12.27,16.66,21.39,17.65,6.18.67,8.26-2.46,23.67-5.21,8-1.42,12-2.14,17.19-1.61,11.12,1.13,12.07,6,21,6.17,11.77.25,20-8,21-9,1.73-1.78,6.48-6.69,7.47-14.29,1.64-12.57-8.38-22.05-9.32-22.92-8.82-8.09-14.71-3.07-28.16-11.92-5.18-3.41-3.95-3.92-16.59-14.46-8-6.65-12-10-15.62-12.1-5.44-3.17-18.15-10.58-32.29-7.12C279.3,235.2,269.46,246.71,266.06,258.27Z"/><path class="cls-1" d="M282.94,264.13c-8,14.81,5.49,30.9,6.47,32,2.2,2.54,8.49,9.84,18.86,10.45a25.66,25.66,0,0,0,22.94-12.17c5.45-8.88,3.29-18.09,2.69-20.65-.41-1.75-3.72-14.9-16.09-20.24C305.93,248.44,289.4,252.11,282.94,264.13Z"/><path class="cls-1" d="M302.37,272.09c-.95.61-1.16,2.88,0,4.06,1.57,1.59,4.72.25,5-.9C307.63,273.82,303.84,271.16,302.37,272.09Z"/></g></g></svg>