<?xml version="1.0" encoding="utf-8"?>
<!-- Generator: Adobe Illustrator 26.0.3, SVG Export Plug-In . SVG Version: 6.00 Build 0)  -->
<svg version="1.1" xmlns="http://www.w3.org/2000/svg" xmlns:xlink="http://www.w3.org/1999/xlink" x="0px" y="0px"
	 viewBox="0 0 1353.6 927.9" style="enable-background:new 0 0 1353.6 927.9;" xml:space="preserve">
<style type="text/css">
	.st0{opacity:0.1;fill:#FFFFFF;}
	.st1{fill:#85A66C;}
	.st2{fill:#85A56B;}
	.st3{fill:#85A46A;}
	.st4{fill:#85A36A;}
	.st5{fill:#85A269;}
	.st6{fill:#85A168;}
	.st7{fill:#85A067;}
	.st8{fill:#859F67;}
	.st9{fill:#859E66;}
	.st10{fill:#859D65;}
	.st11{fill:#859C64;}
	.st12{fill:#859B64;}
	.st13{fill:#849A63;}
	.st14{fill:#849962;}
	.st15{fill:#849861;}
	.st16{fill:#849761;}
	.st17{fill:#849660;}
	.st18{fill:#84955F;}
	.st19{fill:#84945E;}
	.st20{fill:#84935D;}
	.st21{fill:#84925D;}
	.st22{fill:#84915C;}
	.st23{fill:#84905B;}
	.st24{fill:#848F5A;}
	.st25{fill:#848E5A;}
	.st26{fill:#848D59;}
	.st27{fill:#848C58;}
	.st28{fill:#848B57;}
	.st29{fill:#848A57;}
	.st30{fill:#848956;}
	.st31{fill:#848855;}
	.st32{fill:#848754;}
	.st33{fill:#848654;}
	.st34{fill:#848553;}
	.st35{fill:#848452;}
	.st36{fill:#848351;}
	.st37{fill:#838250;}
	.st38{fill:#83814F;}
	.st39{fill:#83804E;}
	.st40{fill:#837F4D;}
	.st41{fill:#837E4D;}
	.st42{fill:#837D4C;}
	.st43{fill:#837C4B;}
	.st44{fill:#837B4A;}
	.st45{fill:#837A4A;}
	.st46{fill:#837949;}
	.st47{fill:#837848;}
	.st48{fill:#837747;}
	.st49{fill:#837647;}
	.st50{fill:#837546;}
	.st51{fill:#837445;}
	.st52{fill:#837344;}
	.st53{fill:#837244;}
	.st54{fill:#837143;}
	.st55{fill:#837042;}
	.st56{fill:#836F41;}
	.st57{fill:#836E40;}
	.st58{fill:#836D40;}
	.st59{fill:#836C3F;}
	.st60{fill:#836B3E;}
	.st61{fill:#826A3D;}
	.st62{fill:#82693D;}
	.st63{fill:#82683C;}
	.st64{fill:#82673B;}
	.st65{fill:#82663A;}
	.st66{fill:#82653A;}
	.st67{fill:#826439;}
	.st68{fill:#826338;}
	.st69{fill:#826237;}
	.st70{fill:#826137;}
	.st71{fill:#826036;}
	.st72{fill:#825F35;}
	.st73{fill:#A3A3A3;}
	.st74{fill:none;stroke:#71A0CF;stroke-miterlimit:10;}
	.st75{fill:none;stroke:#71A0CF;stroke-width:2.8346;stroke-miterlimit:10;}
	.st76{fill:none;stroke:#85A66C;stroke-width:2.8346;stroke-miterlimit:10;}
</style>
<g id="Calque_1">
	<path class="st0" d="M734.6-3404.6c-28.7,61.7-23.3,100.4,16.3,116.1c59.3,23.5,200.3,32.9,259.3,83.9c59,51,238.7,11.6,269.4-76
		c30.7-87.5,86.1-222.4-205.8-222.4C879.2-3503,766.2-3470.2,734.6-3404.6L734.6-3404.6z"/>
	<path class="st0" d="M312.4-3282.7c19.4,172.8,97.2,281.2,233.2,325.1c204.1,65.8,614.2,92.2,861.7,234.9
		c247.5,142.8,687.1,32.4,631.6-212.7c-55.4-245.1-118.5-622.8-935.7-622.8C558.4-3558.2,294.8-3466.4,312.4-3282.7L312.4-3282.7z"
		/>
	<path class="st0" d="M344-3292.9c9.1,163.6,76.9,266.1,203.3,307.6c189.6,62.3,576.3,87.2,802.9,222.4
		c226.6,135.1,648.5,30.7,609.2-201.3c-39.3-231.9-78.7-589.4-852.1-589.4C591.7-3553.6,337.3-3466.7,344-3292.9L344-3292.9z"/>
	<path class="st0" d="M376.5-3303c0.2,154.3,58.9,251.1,176,290.2c175.7,58.8,539.2,82.3,746.1,209.8
		c206.8,127.5,610.2,28.9,585.1-189.9c-25.2-218.8-44.1-556.1-773.7-556.1C623.5-3549,379-3467,376.5-3303L376.5-3303z"/>
	<path class="st0" d="M409.7-3313.2c-7.3,145.1,43.1,236,151.3,272.8c162.3,55.2,502.9,77.3,691,197.2
		c188.2,119.8,572.2,27.2,559.2-178.5c-13-205.7-14.2-522.7-700.1-522.7C653.9-3544.4,420.1-3467.3,409.7-3313.2L409.7-3313.2z"/>
	<path class="st0" d="M443.6-3323.3c-13.7,135.8,29.2,220.9,128.8,255.4c149.3,51.7,467.1,72.4,637.6,184.6
		c170.5,112.2,534.4,25.5,531.9-167.1c-2.5-192.5,11.3-489.3-630.8-489.3C683.1-3539.8,460.5-3467.6,443.6-3323.3L443.6-3323.3z"/>
	<path class="st0" d="M478.1-3333.5c-18.9,126.5,17.2,205.9,108.4,238c136.8,48.2,432,67.5,585.8,172
		c153.8,104.5,496.8,23.7,503.3-155.7c6.4-179.4,32.7-456-565.6-456C711.1-3535.2,500.4-3467.9,478.1-3333.5L478.1-3333.5z"/>
	<path class="st0" d="M513.2-3343.7c-23.1,117.3,6.9,190.8,90,220.6c124.7,44.7,397.4,62.5,535.4,159.4
		c138,96.9,459.4,22,473.3-144.3c13.8-166.3,50.3-422.6-504.2-422.6C738-3530.6,539.8-3468.3,513.2-3343.7L513.2-3343.7z"/>
	<path class="st0" d="M548.8-3353.8c-26.3,108-1.8,175.7,73.5,203.2c112.9,41.1,363.4,57.6,486.3,146.8
		c122.9,89.2,422.2,20.3,442.1-132.9c19.8-153.2,64.4-389.2-446.4-389.2C763.8-3526,578.7-3468.6,548.8-3353.8L548.8-3353.8z"/>
	<path class="st0" d="M585-3364c-28.5,98.8-8.9,160.7,58.8,185.8c101.5,37.6,329.8,52.7,438.6,134.2
		c108.7,81.6,385.2,18.5,409.7-121.5c24.5-140,75-355.9-392-355.9C788.7-3521.4,617-3468.9,585-3364L585-3364z"/>
	<path class="st0" d="M621.7-3374.1c-29.8,89.5-14.6,145.6,45.8,168.3c90.5,34.1,296.8,47.7,392,121.7
		c95.2,73.9,348.3,16.8,376.2-110.1c27.9-126.9,82.4-322.5-340.8-322.5C812.7-3516.8,655-3469.2,621.7-3374.1L621.7-3374.1z"/>
	<path class="st0" d="M658.8-3384.3c-30.3,80.2-18.8,130.5,34.4,150.9c79.8,30.6,264.2,42.8,346.6,109.1
		c82.4,66.3,311.6,15,341.6-98.7c30-113.8,86.6-289.1-292.8-289.1C835.7-3512.2,692.5-3469.5,658.8-3384.3L658.8-3384.3z"/>
	<path class="st0" d="M696.5-3394.4c-29.9,71-21.7,115.5,24.5,133.5c69.4,27,232.1,37.8,302.4,96.5c70.4,58.6,275.1,13.3,306-87.3
		c31-100.7,87.8-255.8-247.8-255.8C857.9-3507.6,729.5-3469.9,696.5-3394.4L696.5-3394.4z"/>
	<g>
		<path class="st1" d="M312.4-2089.9c19.4,172.8,97.2,281.2,233.2,325.1c204.1,65.8,614.2,92.2,861.7,234.9
			c247.5,142.8,687.1,32.4,631.6-212.7c-55.4-245.1-118.5-622.8-935.7-622.8C558.4-2365.3,294.8-2273.5,312.4-2089.9L312.4-2089.9z"
			/>
		<path class="st2" d="M318.2-2091.6c18.8,171.3,95.5,278.7,230.2,322.2c202.1,65.2,608.4,91.3,853.3,232.8
			c244.9,141.5,680.8,32.1,626.6-210.8c-54.2-242.9-115.7-617.2-925.6-617.2C562.8-2364.6,301.3-2273.6,318.2-2091.6L318.2-2091.6z"
			/>
		<path class="st3" d="M324.1-2093.3c18.1,169.7,93.8,276.2,227.2,319.3c200.1,64.6,602.7,90.5,844.9,230.7
			c242.3,140.2,674.6,31.8,621.6-208.9c-53-240.7-112.8-611.7-915.4-611.7C567.3-2363.8,307.9-2273.6,324.1-2093.3L324.1-2093.3z"/>
		<path class="st4" d="M329.9-2095c17.4,168.2,92.2,273.6,224.2,316.4c198,64.1,596.9,89.7,836.6,228.6
			c239.6,139,668.4,31.5,616.6-207c-51.8-238.5-110-606.1-905.3-606.1C571.8-2363,314.4-2273.7,329.9-2095L329.9-2095z"/>
		<path class="st5" d="M335.8-2096.7c16.8,166.7,90.5,271.1,221.2,313.5c196,63.5,591.2,88.9,828.2,226.5
			c237,137.7,662.1,31.2,611.5-205.1c-50.6-236.3-107.1-600.5-895.2-600.5C576.2-2362.3,321-2273.8,335.8-2096.7L335.8-2096.7z"/>
		<path class="st6" d="M341.7-2098.4c16.1,165.1,88.8,268.6,218.2,310.6c194,62.9,585.4,88,819.8,224.4
			c234.4,136.4,655.9,31,606.5-203.2c-49.4-234.1-104.3-595-885-595C580.7-2361.5,327.5-2273.8,341.7-2098.4L341.7-2098.4z"/>
		<path class="st7" d="M347.5-2100.1c15.4,163.6,87.2,266.1,215.2,307.6c192,62.3,579.7,87.2,811.5,222.4
			c231.8,135.1,649.7,30.7,601.5-201.3c-48.2-231.9-101.5-589.4-874.9-589.4C585.1-2360.7,334.1-2273.9,347.5-2100.1L347.5-2100.1z"
			/>
		<path class="st8" d="M353.4-2101.8c14.8,162,85.5,263.6,212.2,304.7c190,61.7,573.9,86.4,803.1,220.3
			c229.2,133.9,643.5,30.4,596.4-199.4c-47-229.7-98.6-583.9-864.8-583.9C589.6-2360,340.6-2273.9,353.4-2101.8L353.4-2101.8z"/>
		<path class="st9" d="M359.3-2103.4c14.1,160.5,83.8,261.1,209.1,301.8c188,61.1,568.2,85.6,794.7,218.2
			c226.5,132.6,637.2,30.1,591.4-197.5c-45.8-227.6-95.8-578.3-854.6-578.3C594-2359.2,347.2-2274,359.3-2103.4L359.3-2103.4z"/>
		<path class="st10" d="M365.1-2105.1c13.4,158.9,82.1,258.6,206.1,298.9c186,60.5,562.4,84.7,786.4,216.1
			c223.9,131.3,631,29.8,586.4-195.6c-44.6-225.4-92.9-572.7-844.5-572.7C598.5-2358.4,353.7-2274,365.1-2105.1L365.1-2105.1z"/>
		<path class="st11" d="M371-2106.8c12.8,157.4,80.5,256.1,203.1,296c184,59.9,556.7,83.9,778,214c221.3,130,624.8,29.5,581.3-193.7
			c-43.4-223.2-90.1-567.2-834.3-567.2C603-2357.7,360.2-2274.1,371-2106.8L371-2106.8z"/>
		<path class="st12" d="M376.9-2108.5c12.1,155.9,78.8,253.6,200.1,293.1c182,59.4,551,83.1,769.6,211.9
			c218.7,128.8,618.6,29.2,576.3-191.8c-42.2-221-87.3-561.6-824.2-561.6C607.4-2356.9,366.8-2274.1,376.9-2108.5L376.9-2108.5z"/>
		<path class="st13" d="M382.7-2110.2c11.4,154.3,77.1,251.1,197.1,290.2c180,58.8,545.2,82.3,761.3,209.8
			c216.1,127.5,612.3,28.9,571.3-189.9c-41.1-218.8-84.4-556.1-814.1-556.1C611.9-2356.1,373.3-2274.2,382.7-2110.2L382.7-2110.2z"
			/>
		<path class="st14" d="M388.6-2111.9c10.8,152.8,75.4,248.5,194.1,287.3c177.9,58.2,539.5,81.5,752.9,207.7
			c213.5,126.2,606.1,28.6,566.2-188c-39.9-216.6-81.6-550.5-803.9-550.5C616.3-2355.4,379.9-2274.2,388.6-2111.9L388.6-2111.9z"/>
		<path class="st15" d="M394.4-2113.6c10.1,151.2,73.8,246,191.1,284.4c175.9,57.6,533.7,80.6,744.5,205.6
			c210.8,124.9,599.9,28.4,561.2-186.1c-38.7-214.4-78.7-544.9-793.8-544.9C620.8-2354.6,386.4-2274.3,394.4-2113.6L394.4-2113.6z"
			/>
		<path class="st16" d="M400.3-2115.3c9.4,149.7,72.1,243.5,188,281.5c173.9,57,528,79.8,736.2,203.5
			c208.2,123.7,593.6,28.1,556.2-184.2c-37.5-212.2-75.9-539.4-783.6-539.4C625.2-2353.8,393-2274.3,400.3-2115.3L400.3-2115.3z"/>
		<path class="st17" d="M406.2-2117c8.7,148.1,70.4,241,185,278.6c171.9,56.4,522.2,79,727.8,201.4
			c205.6,122.4,587.4,27.8,551.2-182.3c-36.3-210.1-73-533.8-773.5-533.8C629.7-2353.1,399.5-2274.4,406.2-2117L406.2-2117z"/>
		<path class="st18" d="M412-2118.7c8.1,146.6,68.8,238.5,182,275.7c169.9,55.8,516.5,78.2,719.4,199.3
			c203,121.1,581.2,27.5,546.1-180.4c-35.1-207.9-70.2-528.3-763.4-528.3C634.1-2352.3,406.1-2274.4,412-2118.7L412-2118.7z"/>
		<path class="st19" d="M417.9-2120.4c7.4,145.1,67.1,236,179,272.8c167.9,55.2,510.7,77.3,711.1,197.2
			c200.4,119.8,575,27.2,541.1-178.5c-33.9-205.7-67.4-522.7-753.2-522.7C638.6-2351.5,412.6-2274.5,417.9-2120.4L417.9-2120.4z"/>
		<path class="st20" d="M423.8-2122.1c6.7,143.5,65.4,233.5,176,269.9c165.9,54.7,505,76.5,702.7,195.1
			c197.7,118.6,568.7,26.9,536.1-176.6c-32.7-203.5-64.5-517.1-743.1-517.1C643.1-2350.8,419.2-2274.5,423.8-2122.1L423.8-2122.1z"
			/>
		<path class="st21" d="M429.6-2123.8c6.1,142,63.7,231,173,267c163.9,54.1,499.2,75.7,694.4,193c195.1,117.3,562.5,26.6,531-174.7
			c-31.5-201.3-61.7-511.6-733-511.6C647.5-2350,425.7-2274.6,429.6-2123.8L429.6-2123.8z"/>
		<path class="st22" d="M435.5-2125.5c5.4,140.4,62.1,228.5,170,264.1c161.9,53.5,493.5,74.9,686,190.9
			c192.5,116,556.3,26.3,526-172.8c-30.3-199.1-58.8-506-722.8-506C652-2349.2,432.3-2274.7,435.5-2125.5L435.5-2125.5z"/>
		<path class="st23" d="M441.4-2127.1c4.7,138.9,60.4,225.9,166.9,261.2c159.8,52.9,487.7,74,677.6,188.8
			c189.9,114.7,550.1,26,521-170.9c-29.1-196.9-56-500.4-712.7-500.4C656.4-2348.5,438.8-2274.7,441.4-2127.1L441.4-2127.1z"/>
		<path class="st24" d="M447.2-2128.8c4.1,137.3,58.7,223.4,163.9,258.3c157.8,52.3,482,73.2,669.3,186.7
			c187.3,113.5,543.8,25.7,515.9-169c-27.9-194.7-53.2-494.9-702.5-494.9C660.9-2347.7,445.4-2274.8,447.2-2128.8L447.2-2128.8z"/>
		<path class="st25" d="M453.1-2130.5c3.4,135.8,57,220.9,160.9,255.4c155.8,51.7,476.2,72.4,660.9,184.6
			c184.6,112.2,537.6,25.5,510.9-167.1c-26.7-192.5-50.3-489.3-692.4-489.3C665.3-2346.9,451.9-2274.8,453.1-2130.5L453.1-2130.5z"
			/>
		<path class="st26" d="M459-2132.2c2.7,134.2,55.4,218.4,157.9,252.5c153.8,51.1,470.5,71.6,652.5,182.5
			c182,110.9,531.4,25.2,505.9-165.2c-25.5-190.4-47.5-483.8-682.3-483.8C669.8-2346.2,458.4-2274.9,459-2132.2L459-2132.2z"/>
		<path class="st27" d="M464.8-2133.9c2.1,132.7,53.7,215.9,154.9,249.6c151.8,50.5,464.7,70.8,644.2,180.4
			c179.4,109.6,525.2,24.9,500.8-163.3c-24.3-188.2-44.6-478.2-672.1-478.2C674.2-2345.4,465-2274.9,464.8-2133.9L464.8-2133.9z"/>
		<path class="st28" d="M470.7-2135.6c1.4,131.2,52,213.4,151.9,246.7c149.8,50,459,69.9,635.8,178.3
			c176.8,108.4,518.9,24.6,495.8-161.4c-23.1-186-41.8-472.6-662-472.6C678.7-2344.6,471.5-2275,470.7-2135.6L470.7-2135.6z"/>
		<path class="st29" d="M476.5-2137.3c0.7,129.6,50.3,210.9,148.9,243.8c147.8,49.4,453.2,69.1,627.4,176.2
			c174.2,107.1,512.7,24.3,490.8-159.5c-21.9-183.8-38.9-467.1-651.9-467.1C683.2-2343.9,478.1-2275,476.5-2137.3L476.5-2137.3z"/>
		<path class="st30" d="M482.4-2139c0.1,128.1,48.7,208.4,145.9,240.9c145.8,48.8,447.5,68.3,619.1,174.1
			c171.6,105.8,506.5,24,485.8-157.6c-20.7-181.6-36.1-461.5-641.7-461.5C687.6-2343.1,484.6-2275.1,482.4-2139L482.4-2139z"/>
		<path class="st31" d="M488.3-2140.7c-0.6,126.5,47,205.9,142.8,238c143.8,48.2,441.7,67.5,610.7,172
			c168.9,104.5,500.2,23.7,480.7-155.7c-19.5-179.4-33.3-456-631.6-456C692.1-2342.3,491.2-2275.1,488.3-2140.7L488.3-2140.7z"/>
		<path class="st32" d="M494.1-2142.4c-1.3,125,45.3,203.4,139.8,235.1c141.7,47.6,436,66.6,602.3,169.9
			c166.3,103.3,494,23.4,475.7-153.8c-18.3-177.2-30.4-450.4-621.4-450.4C696.5-2341.6,497.7-2275.2,494.1-2142.4L494.1-2142.4z"/>
		<path class="st33" d="M500-2144.1c-1.9,123.4,43.7,200.8,136.8,232.2c139.7,47,430.3,65.8,594,167.8
			c163.7,102,487.8,23.1,470.7-151.9c-17.1-175-27.6-444.8-611.3-444.8C701-2340.8,504.3-2275.2,500-2144.1L500-2144.1z"/>
		<path class="st34" d="M505.9-2145.8c-2.6,121.9,42,198.3,133.8,229.3c137.7,46.4,424.5,65,585.6,165.7
			c161.1,100.7,481.6,22.9,465.6-150c-15.9-172.9-24.7-439.3-601.2-439.3C705.4-2340,510.8-2275.3,505.9-2145.8L505.9-2145.8z"/>
		<path class="st35" d="M511.7-2147.5c-3.3,120.4,40.3,195.8,130.8,226.4c135.7,45.8,418.8,64.2,577.2,163.6
			c158.5,99.4,475.3,22.6,460.6-148.1c-14.7-170.7-21.9-433.7-591-433.7C709.9-2339.3,517.4-2275.3,511.7-2147.5L511.7-2147.5z"/>
		<path class="st36" d="M517.6-2149.2c-4,118.8,38.6,193.3,127.8,223.5c133.7,45.3,413,63.4,568.9,161.5
			c155.8,98.2,469.1,22.3,455.6-146.2c-13.5-168.5-19.1-428.2-580.9-428.2C714.4-2338.5,523.9-2275.4,517.6-2149.2L517.6-2149.2z"/>
		<path class="st36" d="M523.5-2150.8c-4.6,117.3,37,190.8,124.8,220.6c131.7,44.7,407.3,62.5,560.5,159.4
			c153.2,96.9,462.9,22,450.5-144.3c-12.3-166.3-16.2-422.6-570.7-422.6C718.8-2337.7,530.5-2275.4,523.5-2150.8L523.5-2150.8z"/>
		<path class="st37" d="M529.3-2152.5c-5.3,115.7,35.3,188.3,121.7,217.7c129.7,44.1,401.5,61.7,552.1,157.3
			c150.6,95.6,456.7,21.7,445.5-142.4c-11.1-164.1-13.4-417-560.6-417C723.3-2337,537-2275.5,529.3-2152.5L529.3-2152.5z"/>
		<path class="st38" d="M535.2-2154.2c-6,114.2,33.6,185.8,118.7,214.8c127.7,43.5,395.8,60.9,543.8,155.2
			c148,94.3,450.4,21.4,440.5-140.5c-9.9-161.9-10.5-411.5-550.5-411.5C727.7-2336.2,543.6-2275.6,535.2-2154.2L535.2-2154.2z"/>
		<path class="st39" d="M541.1-2155.9c-6.6,112.6,31.9,183.3,115.7,211.9c125.7,42.9,390,60.1,535.4,153.1
			c145.4,93.1,444.2,21.1,435.5-138.6c-8.7-159.7-7.7-405.9-540.3-405.9C732.2-2335.4,550.1-2275.6,541.1-2155.9L541.1-2155.9z"/>
		<path class="st40" d="M546.9-2157.6c-7.3,111.1,30.3,180.8,112.7,209c123.7,42.3,384.3,59.2,527,151
			c142.7,91.8,438,20.8,430.4-136.7c-7.5-157.5-4.8-400.4-530.2-400.4C736.6-2334.7,556.7-2275.7,546.9-2157.6L546.9-2157.6z"/>
		<path class="st41" d="M552.8-2159.3c-8,109.6,28.6,178.2,109.7,206.1c121.6,41.7,378.5,58.4,518.7,148.9
			c140.1,90.5,431.7,20.5,425.4-134.8c-6.4-155.4-2-394.8-520.1-394.8C741.1-2333.9,563.2-2275.7,552.8-2159.3L552.8-2159.3z"/>
		<path class="st42" d="M558.6-2161c-8.6,108,26.9,175.7,106.7,203.2c119.6,41.1,372.8,57.6,510.3,146.8
			c137.5,89.2,425.5,20.3,420.4-132.9c-5.2-153.2,0.8-389.2-509.9-389.2C745.5-2333.1,569.7-2275.8,558.6-2161L558.6-2161z"/>
		<path class="st43" d="M564.5-2162.7c-9.3,106.5,25.3,173.2,103.7,200.3c117.6,40.6,367,56.8,501.9,144.7
			c134.9,88,419.3,20,415.3-131c-4-151,3.7-383.7-499.8-383.7C750-2332.4,576.3-2275.8,564.5-2162.7L564.5-2162.7z"/>
		<path class="st44" d="M570.4-2164.4c-10,104.9,23.6,170.7,100.7,197.4c115.6,40,361.3,55.9,493.6,142.6
			c132.3,86.7,413.1,19.7,410.3-129.1c-2.8-148.8,6.5-378.1-489.6-378.1C754.5-2331.6,582.8-2275.9,570.4-2164.4L570.4-2164.4z"/>
		<path class="st45" d="M576.2-2166.1c-10.6,103.4,21.9,168.2,97.6,194.5c113.6,39.4,355.5,55.1,485.2,140.5
			c129.7,85.4,406.8,19.4,405.3-127.2c-1.6-146.6,9.4-372.6-479.5-372.6C758.9-2330.8,589.4-2275.9,576.2-2166.1L576.2-2166.1z"/>
		<path class="st46" d="M582.1-2167.8c-11.3,101.8,20.2,165.7,94.6,191.6c111.6,38.8,349.8,54.3,476.8,138.4
			c127,84.1,400.6,19.1,400.2-125.3c-0.4-144.4,12.2-367-469.4-367C763.4-2330.1,595.9-2276,582.1-2167.8L582.1-2167.8z"/>
		<path class="st47" d="M588-2169.5c-12,100.3,18.6,163.2,91.6,188.7c109.6,38.2,344,53.5,468.5,136.3
			c124.4,82.9,394.4,18.8,395.2-123.4c0.8-142.2,15-361.4-459.2-361.4C767.8-2329.3,602.5-2276,588-2169.5L588-2169.5z"/>
		<path class="st48" d="M593.8-2171.2c-12.6,98.8,16.9,160.7,88.6,185.8c107.6,37.6,338.3,52.7,460.1,134.2
			c121.8,81.6,388.2,18.5,390.2-121.5c2-140,17.9-355.9-449.1-355.9C772.3-2328.5,609-2276.1,593.8-2171.2L593.8-2171.2z"/>
		<path class="st49" d="M599.7-2172.8c-13.3,97.2,15.2,158.2,85.6,182.8c105.6,37,332.5,51.8,451.7,132.2
			c119.2,80.3,381.9,18.2,385.1-119.6c3.2-137.8,20.7-350.3-438.9-350.3C776.7-2327.8,615.6-2276.1,599.7-2172.8L599.7-2172.8z"/>
		<path class="st50" d="M605.6-2174.5c-14,95.7,13.5,155.7,82.6,179.9c103.5,36.4,326.8,51,443.4,130.1
			c116.6,79,375.7,17.9,380.1-117.7c4.4-135.7,23.6-344.8-428.8-344.8C781.2-2327,622.1-2276.2,605.6-2174.5L605.6-2174.5z"/>
		<path class="st51" d="M611.4-2176.2c-14.7,94.1,11.9,153.1,79.6,177c101.5,35.8,321,50.2,435,128
			c113.9,77.8,369.5,17.6,375.1-115.8c5.6-133.5,26.4-339.2-418.7-339.2C785.7-2326.2,628.7-2276.2,611.4-2176.2L611.4-2176.2z"/>
		<path class="st52" d="M617.3-2177.9c-15.3,92.6,10.2,150.6,76.5,174.1c99.5,35.3,315.3,49.4,426.6,125.9
			c111.3,76.5,363.2,17.4,370.1-113.9c6.8-131.3,29.3-333.6-408.5-333.6C790.1-2325.5,635.2-2276.3,617.3-2177.9L617.3-2177.9z"/>
		<path class="st53" d="M623.1-2179.6c-16,91,8.5,148.1,73.5,171.2c97.5,34.7,309.6,48.5,418.3,123.8c108.7,75.2,357,17.1,365-112
			c8-129.1,32.1-328.1-398.4-328.1C794.6-2324.7,641.8-2276.4,623.1-2179.6L623.1-2179.6z"/>
		<path class="st54" d="M629-2181.3c-16.7,89.5,6.8,145.6,70.5,168.3c95.5,34.1,303.8,47.7,409.9,121.7
			c106.1,73.9,350.8,16.8,360-110.1c9.2-126.9,34.9-322.5-388.3-322.5C799-2323.9,648.3-2276.4,629-2181.3L629-2181.3z"/>
		<path class="st55" d="M634.9-2183c-17.3,88,5.2,143.1,67.5,165.4c93.5,33.5,298.1,46.9,401.5,119.6
			c103.5,72.7,344.6,16.5,355-108.2c10.4-124.7,37.8-317-378.1-317C803.5-2323.2,654.9-2276.5,634.9-2183L634.9-2183z"/>
		<path class="st56" d="M640.7-2184.7c-18,86.4,3.5,140.6,64.5,162.5c91.5,32.9,292.3,46.1,393.2,117.5
			c100.8,71.4,338.3,16.2,349.9-106.3c11.6-122.5,40.6-311.4-368-311.4C807.9-2322.4,661.4-2276.5,640.7-2184.7L640.7-2184.7z"/>
		<path class="st57" d="M646.6-2186.4c-18.7,84.9,1.8,138.1,61.5,159.6c89.5,32.3,286.6,45.3,384.8,115.4
			c98.2,70.1,332.1,15.9,344.9-104.4c12.8-120.3,43.5-305.8-357.8-305.8C812.4-2321.6,668-2276.6,646.6-2186.4L646.6-2186.4z"/>
		<path class="st58" d="M652.5-2188.1c-19.3,83.3,0.2,135.6,58.5,156.7c87.5,31.7,280.8,44.4,376.4,113.3
			c95.6,68.8,325.9,15.6,339.9-102.5c14-118.2,46.3-300.3-347.7-300.3C816.8-2320.9,674.5-2276.6,652.5-2188.1L652.5-2188.1z"/>
		<path class="st59" d="M658.3-2189.8c-20,81.8-1.5,133.1,55.5,153.8c85.5,31.1,275.1,43.6,368.1,111.2
			c93,67.6,319.7,15.3,334.8-100.6c15.2-116,49.1-294.7-337.6-294.7C821.3-2320.1,681-2276.7,658.3-2189.8L658.3-2189.8z"/>
		<path class="st60" d="M664.2-2191.5c-20.7,80.2-3.2,130.5,52.4,150.9c83.4,30.6,269.3,42.8,359.7,109.1
			c90.4,66.3,313.4,15,329.8-98.7c16.4-113.8,52-289.1-327.4-289.1C825.8-2319.3,687.6-2276.7,664.2-2191.5L664.2-2191.5z"/>
		<path class="st61" d="M670.1-2193.2c-21.3,78.7-4.9,128,49.4,148c81.4,30,263.6,42,351.3,107c87.8,65,307.2,14.8,324.8-96.8
			c17.6-111.6,54.8-283.6-317.3-283.6C830.2-2318.6,694.1-2276.8,670.1-2193.2L670.1-2193.2z"/>
		<path class="st62" d="M675.9-2194.9c-22,77.2-6.5,125.5,46.4,145.1c79.4,29.4,257.8,41.1,343,104.9c85.1,63.7,301,14.5,319.7-94.9
			c18.8-109.4,57.7-278-307.2-278C834.7-2317.8,700.7-2276.8,675.9-2194.9L675.9-2194.9z"/>
		<path class="st63" d="M681.8-2196.5c-22.7,75.6-8.2,123,43.4,142.2c77.4,28.8,252.1,40.3,334.6,102.8
			c82.5,62.5,294.7,14.2,314.7-93c20-107.2,60.5-272.5-297-272.5C839.1-2317,707.2-2276.9,681.8-2196.5L681.8-2196.5z"/>
		<path class="st64" d="M687.7-2198.2c-23.3,74.1-9.9,120.5,40.4,139.3c75.4,28.2,246.3,39.5,326.2,100.7
			c79.9,61.2,288.5,13.9,309.7-91.1c21.2-105,63.4-266.9-286.9-266.9C843.6-2316.3,713.8-2276.9,687.7-2198.2L687.7-2198.2z"/>
		<path class="st65" d="M693.5-2199.9c-24,72.5-11.6,118,37.4,136.4c73.4,27.6,240.6,38.7,317.9,98.6
			c77.3,59.9,282.3,13.6,304.7-89.2c22.4-102.8,66.2-261.3-276.7-261.3C848-2315.5,720.3-2277,693.5-2199.9L693.5-2199.9z"/>
		<path class="st66" d="M699.4-2201.6c-24.7,71-13.2,115.5,34.4,133.5c71.4,27,234.8,37.8,309.5,96.5
			c74.7,58.6,276.1,13.3,299.6-87.3c23.6-100.7,69-255.8-266.6-255.8C852.5-2314.7,726.9-2277,699.4-2201.6L699.4-2201.6z"/>
		<path class="st67" d="M705.2-2203.3c-25.3,69.4-14.9,113,31.3,130.6c69.4,26.4,229.1,37,301.1,94.4c72,57.4,269.8,13,294.6-85.4
			c24.8-98.5,71.9-250.2-256.5-250.2C857-2314,733.4-2277.1,705.2-2203.3L705.2-2203.3z"/>
		<path class="st68" d="M711.1-2205c-26,67.9-16.6,110.5,28.3,127.7c67.4,25.9,223.3,36.2,292.8,92.3
			c69.4,56.1,263.6,12.7,289.6-83.5c26-96.3,74.7-244.7-246.3-244.7C861.4-2313.2,740-2277.1,711.1-2205L711.1-2205z"/>
		<path class="st69" d="M717-2206.7c-26.7,66.4-18.2,108,25.3,124.8c65.3,25.3,217.6,35.4,284.4,90.2
			c66.8,54.8,257.4,12.4,284.5-81.6c27.2-94.1,77.6-239.1-236.2-239.1C865.9-2312.4,746.5-2277.2,717-2206.7L717-2206.7z"/>
		<path class="st70" d="M722.8-2208.4c-27.4,64.8-19.9,105.4,22.3,121.9c63.3,24.7,211.8,34.6,276,88.1
			c64.2,53.5,251.2,12.2,279.5-79.7c28.3-91.9,80.4-233.5-226-233.5C870.3-2311.7,753.1-2277.3,722.8-2208.4L722.8-2208.4z"/>
		<path class="st71" d="M728.7-2210.1c-28,63.3-21.6,102.9,19.3,119c61.3,24.1,206.1,33.7,267.7,86c61.6,52.3,244.9,11.9,274.5-77.8
			c29.5-89.7,83.2-228-215.9-228C874.8-2310.9,759.6-2277.3,728.7-2210.1L728.7-2210.1z"/>
		<path class="st72" d="M734.6-2211.8c-28.7,61.7-23.3,100.4,16.3,116.1c59.3,23.5,200.3,32.9,259.3,83.9
			c59,51,238.7,11.6,269.4-75.9c30.7-87.5,86.1-222.4-205.8-222.4C879.2-2310.1,766.2-2277.4,734.6-2211.8L734.6-2211.8z"/>
	</g>
	<g id="MjNJ7z_00000139281915864125535630000017019024564445718693_">
		<g>
			
				<image style="overflow:visible;" width="474" height="315" id="MjNJ7z_00000005256586051430708790000014870305085707074976_" xlink:href="A3A9370FFF1B67FD.jpg"  transform="matrix(1.4163 0 0 1.5146 0.5597 -855.6982)">
			</image>
		</g>
	</g>
	<path class="st73" d="M1421.3-513.3c-0.1,1.2-0.2,1.7-0.2,2.2c0.1,6,0.6,12,0.3,17.9c-0.5,8.5-3.2,16.2-8.8,22.9
		c-7.6,9-16.9,15.8-27.1,21.4c-5.2,2.8-10.8,3.5-16.5,1.6c-3.6-1.2-7-3-10.6-4.4c-9.5-3.8-19.1-7.4-28.4-11.5
		c-6.3-2.8-11.3-7.2-14-13.8c-3-7.3-2-14.5,1.2-21.4c5.9-12.7,13.5-17.7,27.9-15.5c5.2,0.8,10.4,1.8,15.6,2.7
		c7,1.3,11.9-1.1,14.9-7.5c1.5-3.3,2.7-6.8,3.9-10.3c1.6-5,4.7-6.8,9.8-6.3c7.2,0.7,13.8,3.2,20.1,6.7c0.4,0.2,0.9,0.3,1.9,0.7
		c0,0,0-0.1,0-0.2 M1488.7-402.7c-2.5,1.2-5,2.5-7.5,3.7c-7.1,3.2-14.6,5-22.3,4.8c-8.5-0.2-16.6-2.5-23.9-6.9
		c-9-5.3-13.9-16.2-8.7-27c2.8-5.8,6.9-10.5,11.1-15.2c5-5.7,10.1-11.3,15.3-16.9 M1319.9-385.4c2.7-3.7,5.1-7.5,7.8-11.2
		c4.5-6.1,9.2-12.1,13.5-18.4c4.7-6.9,4.2-14.3-1.4-20.5c-3.8-4.2-8.2-8.1-12.6-11.7c-7-5.7-14.4-10.9-19.8-18.4
		c-5.1-7.1-8.1-14.9-6.2-23.6c2.4-10.4,5.3-20.7,8.6-30.9c1.8-5.6,5.6-10.4,10.1-14.4c2.2-1.9,4.4-3.7,6.7-5.5
		c5.1-4.1,7.3-9.5,6.1-15.9c-1.3-6.7-2.5-13.4-4.6-19.8c-1.3-4.2-3.6-8.3-6.4-11.6c-4.2-5-9.2-9.3-14-13.8
		c-7-6.5-14.1-12.9-21.2-19.4c-4.7-4.3-9.2-9-14.3-12.7c-9.1-6.7-18.7-12.9-28.1-19.2c-2.6-1.7-5.2-3.5-7.9-4.9
		c-4.7-2.3-9.6-1.4-12.5,2.5c-3.2,4.3-6.3,8.7-9,13.3c-4.3,7.2-8.9,14-14.8,20c-4.4,4.4-8.5,9.1-12.4,14
		c-8.8,11.2-18.4,21.5-30.5,29.2c-7.5,4.8-14.7,10-22.1,14.8c-3.7,2.4-7.5,4.6-11.5,6.4c-8.2,3.7-17.1,4.4-25.8,5.9
		c-15.8,2.8-29.8,9.2-40.4,21.5c-3.8,4.3-7.1,9.1-10.7,13.5c-6,7.2-14.6,8.4-22.3,3.1c-2.7-1.9-5.2-4.3-7.4-6.7
		c-5.9-6.5-11.7-13.2-17.3-19.9c-10.8-12.8-24.2-21.4-40.3-26c-20.4-5.8-41.2-7.9-62.3-8.1c-2.7,0-5.4-0.3-8.1-0.8
		c-8-1.6-13.5-6.8-18.4-12.9c-8.6-10.6-14.5-22.7-19.7-35.3c-4.8-11.7-12.3-20.8-24-26.2c-7.3-3.3-13.6-8-18.4-14.6
		c-4.4-6.1-6.5-12.8-5.2-20.3c0.6-3.3,2.4-5.8,5.7-6.4c3.6-0.6,7.3-1.1,10.9-0.7c5.6,0.5,11.2,1.8,16.8,2.5
		c11.9,1.5,23.4,4.3,34.2,9.8c5,2.6,10,5.1,15.2,7.1c10.2,4.1,20.2,3.8,30.3-1.2c6.7-3.3,13.8-6.3,21-7.9
		c10.2-2.3,20.8-3.6,31.2-4.8c6.1-0.7,12.2,0.3,17.4,4c5.8,4.2,11.5,8.7,17,13.3c9.5,7.9,20,12.6,32.6,11.1c17-2.1,33.2-7,48.6-14.8
		c13.2-6.6,27.1-11.8,41.5-15.4c18.8-4.7,36-12.5,51-25.1c6.1-5.1,10-11.1,9.2-19.2c-0.5-5.7-2.1-11.2-4.9-16.2
		c-3.2-5.7-7.9-9.6-14.5-10.8c-10.7-2.1-21.5-4.1-32.2-6.1c-8.1-1.5-16.2-1.6-24.3,0.4c-5.5,1.4-10.9,3-16.4,4.6
		c-5.1,1.4-10.1,2.1-15.4,0.9c-8.8-2-15-7.5-19.8-14.6c-4.3-6.3-7.9-13.1-11.8-19.7c-2.8-4.7-6-9.1-10.5-12.3
		c-3.7-2.7-7.7-3.4-12-1.3c-2.4,1.2-4.7,2.3-7,3.7c-9.9,5.8-20.5,8.9-32,8.5c-5.9-0.3-11.8-1.1-17.6-2.1c-7.8-1.3-15.6-2.5-23.5-0.7
		c-6.4,1.5-12.4,4.3-18.1,7.5c-7.9,4.5-15.9,9.1-24.9,11.1c-16.6,3.8-33.4,7.3-50.2,10.2c-11,1.9-18.2-4.6-18.2-15.8
		c0-8.9,0.2-17.8,0.7-26.6c0.3-6.4,0.6-12.8,1.9-19.1c1.5-7.7,4.6-14.8,11.5-19.6c4.3-3,9.1-4.6,14.2-5.6
		c14.6-2.9,29.1-5.7,43.7-8.7c9.9-2.1,19.2-5.8,26.6-13c11.9-11.6,18.9-26.2,23.2-41.9c2.3-8.5,2.6-17.5,3.5-26.3
		c0.9-8.6,4.9-14.7,13.4-17.5c6.5-2.1,13-4.1,19.3-6.5c3.8-1.5,7.4-3.6,11-5.7c3-1.8,3.8-4.8,3.4-8.2c-0.2-1.4-0.5-2.8-0.8-4.2
		c-0.8-3.7-1.6-7.3-2.4-10.9c1.3,0,2.6,0,3.8,0c0.9,4.3,2,8.6,2.8,12.9c1.2,6.2-0.1,11.6-6.1,14.8c-4.1,2.2-8.2,4.2-12.5,5.9
		c-5.4,2.1-10.9,3.6-16.3,5.5c-8.4,2.9-11.4,7.2-11.9,16c-0.3,5.8-0.9,11.6-1.7,17.4c-1.9,13.5-7.8,25.4-14.5,37
		c-9.1,15.8-22.7,25.2-40.6,28.6c-14.5,2.8-29,5.6-43.5,8.6c-14.6,3.1-21.9,11.1-23.2,25.7c-1,12.3-1.4,24.7-1.9,37.1
		c-0.1,2.8,0,5.6,0.4,8.4c0.8,4.8,3.8,7.5,8.7,8.2c1.7,0.2,3.5,0.4,5.2,0.1c6.1-0.9,12.2-1.8,18.2-3c9.7-2,19.4-4,29-6.4
		c10.6-2.6,20-8,29.4-13.3c12.2-6.8,25.1-8.8,38.9-6c5.8,1.2,11.8,2.2,17.8,2.5c11,0.5,21.4-2.2,30.9-7.8c2.1-1.3,4.3-2.4,6.5-3.5
		c6.9-3.7,13.1-2.3,18.8,2.6c6.3,5.4,10,12.6,14.1,19.6c3.2,5.5,6.6,11,10.6,15.9c6.4,7.8,14.9,11.1,25,8.9
		c3.9-0.9,7.7-2.1,11.5-3.4c10.7-3.5,21.7-4.7,32.8-2.7c8.5,1.5,16.9,3.3,25.4,5c4.2,0.9,8.6,1.4,12.5,2.9
		c8.8,3.4,13.1,10.8,15.7,19.4c4.5,14.5,1.7,23.6-10,33.1c-12.7,10.4-26.9,17.9-42.6,22.3c-16.5,4.6-32.9,9.2-48.3,17
		c-13.1,6.6-26.7,11.4-41.1,14.1c-6.9,1.3-13.8,2.5-20.9,1.4c-9.9-1.6-18.1-6.5-25.5-12.9c-4.6-3.9-9.4-7.7-14.3-11.3
		c-4.8-3.6-10.3-4.8-16.1-4.2c-9.2,1-18.4,2.4-27.5,3.9c-8.8,1.4-17,5-24.9,9.1c-6.3,3.2-12.9,4.5-20,3.7c-7.5-0.8-14.2-3.7-20.8-7
		c-10.3-5.3-20.9-10-32.6-11.6c-8.3-1.1-16.6-2.7-24.9-3.9c-2.2-0.3-4.5-0.1-6.7,0.3c-4,0.7-5.2,2.3-5.4,6.4c-0.3,7,2.5,12.9,7,18.1
		c4.6,5.3,10.5,8.8,16.7,11.9c8.4,4.1,15,10.1,19.5,18.2c2.9,5.2,5.2,10.6,7.6,16c5.3,11.6,11.4,22.7,20.3,32
		c4,4.2,8.9,6.9,14.7,7.3c6.3,0.5,12.6,0.6,18.9,0.9c14.2,0.6,28.2,2.6,42,5.8c15.5,3.6,29.9,9.7,41.4,20.9
		c5.8,5.7,10.9,12.1,16.4,18.1c4.9,5.3,9.6,10.8,15,15.5c5.9,5.1,12.9,4,18.1-1.9c0.8-1,1.5-2,2.3-3c3.3-4,6.3-8.3,9.8-12.1
		c12.7-13.7,29-19.9,47.1-22.2c11.1-1.4,21.5-4.6,30.7-11.3c5.2-3.8,10.6-7.4,16.1-10.9c11.9-7.7,22.7-16.6,31.5-27.9
		c4.4-5.6,8.8-11.3,13.8-16.3c6.4-6.5,11.8-13.6,16.3-21.5c2.4-4.1,5.1-8.1,8-11.9c6-7.9,13.2-9.3,21.6-3.9
		c9.6,6.2,19.1,12.6,28.5,19c8.8,5.9,16.3,13.3,23.8,20.8c7,7,14.7,13.3,22.3,19.7c9.4,7.9,16.4,17.2,18.6,29.6
		c0.9,4.8,1.9,9.6,2.8,14.3c0.9,4.7,0.4,9.3-2.5,13c-2.5,3.2-5.4,6.1-8.5,8.6c-6.4,5.2-11.2,11.4-13.7,19.3
		c-2.3,7.5-4.4,15-6.5,22.6c-2.4,9-0.8,17.5,5.2,24.6c4.4,5.1,9.4,9.8,14.6,14.1c5.9,4.9,12.2,9.3,17.2,15.2
		c5.9,7,7.3,15.2,3.1,23.4c-1.5,3-3.5,5.7-5.5,8.4c-5,6.8-10.1,13.4-15.1,20.2c-0.5,0.7-0.9,1.5-1.5,2.6 M1084.5-386.1
		c1.2-3.7,2.8-7.3,4.4-10.9c2.7-6.2,5.4-12.5,6-19.4c1-10.8-1.4-21.1-6.4-30.6c-4.1-7.8-9-15.1-13.4-22.7c-1.3-2.2-2.5-4.5-3.2-6.9
		c-1.3-4.7,2.3-9.3,7-8.8c5.1,0.5,10.4,1.1,15.2,2.9c10,3.6,19.7,8,29.6,11.9c8,3.1,16.1,6.4,24.4,8.5c10.6,2.6,21.5,3.9,32.2,6
		c10.5,2.1,20,6.3,27,14.8c6.8,8.3,13,17.1,17.8,26.7c3.6,7.3,7.3,14.6,8.4,22.8c0.3,2.5,0.1,5.2,0.1,7.8c4,0,7.8,0,11.7,0
		c0-0.7,0.1-1.3,0-1.7c-1.4-4.5-2.3-9.2-4.2-13.4c-8.3-18-17.7-35.5-24.6-54.1c-1.7-4.6-5.5-7-10.3-7.5c-10.2-1.1-20.3-2.1-30.5-3
		c-10.5-0.9-20.9-2.5-30.5-6.9c-14.9-6.8-29.6-14.1-44.3-21.3c-8.5-4.2-17-8.5-25.2-13.3c-8-4.6-9.9-12-6.2-20.5
		c2.9-6.6,8.1-10.8,14.2-14.1c8.5-4.5,17.8-5.5,27.1-6.2c8.4-0.6,16.2-2.7,23.7-6.9c8.8-5,17.9-9.7,27.1-13.8
		c12.8-5.7,25.5-11.5,36.6-20.3c5.9-4.7,12.2-5.7,19.4-3.5c5.6,1.7,11.4,2.9,17.3,3.8c7.6,1.1,14.7-3,17.5-10.2
		c1.2-3.1,1.9-6.6,2.4-10c1-6.7,4.3-9,10.8-6.9c1.6,0.5,3.2,1.2,4.6,1.9c3.3,1.7,6.6,3.6,9.9,5.4c8.4,4.6,16.2,10,22.3,17.5
		c8.5,10.4,9.9,22,3.7,33c-4.3,7.6-6.2,15.8-6.9,24.4c-0.4,5.7-0.5,11.6-1.8,17.1c-2,8.7-4.8,17.2-7.5,25.7
		c-2.3,7.4-1.5,14.1,3.8,20.1c6.7,7.6,13.2,15.3,19.7,22.9c9.7,11.3,12,23.9,6.8,38c-3,7.9-7.7,14.9-12.1,22c-0.3,0.5-0.5,1-0.9,1.8
		 M905.1-385.3c4.2-4.9,7.2-10.6,9.3-16.7c2.4-7.2,4.7-14.4,7-21.6c3.4-10.5,10.1-17.2,21.4-18.7c1.6-0.2,3.1-0.8,4.5-1.5
		c7.3-3.3,11.6-11.3,10.9-20.2c-0.3-3.9-0.8-4.5-4.5-5.7c-0.5-0.1-0.9-0.3-1.4-0.4c-6.3-1.4-12.6-0.4-18.8,0.8
		c-13.3,2.6-26,7.4-38.3,13c-12.8,5.8-25.4,5.9-37.8-0.9c-3.9-2.1-7.6-4.7-11.3-7.2c-9-5.9-18.8-7.4-29.1-4.4
		c-10.8,3.2-21.5,6.8-32.2,10.2c0-1.3,0-2.6,0-3.8c1.1-0.2,2.2-0.4,3.2-0.7c9.4-3,18.8-6.3,28.3-8.9c10.7-3,21.1-1.7,30.6,4.3
		c2.4,1.5,4.8,3.2,7.2,4.8c12.7,8.5,25.8,9.8,40,3.4c14.7-6.6,29.7-12.4,45.8-14.2c5.5-0.6,11-0.9,16.3,1.3c3.1,1.3,5.3,3.3,5.2,7
		c0,2.1,0.1,4.3-0.1,6.4c-0.9,9.9-7.5,17.5-17.2,19.8c-1.8,0.4-3.6,0.7-5.4,1.2c-8.1,2.4-12.1,8.6-14.6,16.2c-2.9,8.7-5.7,17.5-9,26
		c-1.6,4.2-4.3,7.9-6.5,12.1 M801.5-395.3c-1.6-2.6-0.5-2.2-4.3-22.1c-1.5-7.8-2.4-12.1-1.1-18c2.3-10.3,9.4-16,18.8-19.3
		c8.8-3.1,17.3-1.6,25.6,2c4.9,2.1,9.9,4.2,14.6,6.7c10.8,5.8,22.7,8,34.5,10.4c5.6,1.2,9,4.2,10,9.9c0.5,2.9,0.5,5.9,0.4,8.8
		c-0.3,7.4-1.9,14.2-5.1,20.3c-2.4,4.7-6.5,9.2-8,10.9c0,0,0,0,0,0c0,0-0.9,1.1-1.7,1.9c-1.6,1.8-5.5,2.4-5.5,2.4
		c-16.2,2.6-20.9,2.4-20.9,2.4c-21.3-1.3-31.9-2-36.6-3.5C813.4-385.5,805.9-388.1,801.5-395.3z M1289.1-383.8c3,0,6-0.3,8.9,0.1
		c4.7,0.7,7.3-1.2,9.6-5.3c3.9-7.1,8.6-13.7,11-21.5c3.4-10.9,2.6-21.1-4.6-30.2c-7.1-9-14.6-17.6-22.1-26.2
		c-5.8-6.7-7.1-14-4.4-22.3c1.3-3.9,2.6-7.9,3.9-11.8c2.5-7.9,4.6-15.8,4.8-24.1c0.4-11.6,2.2-22.6,8-32.9c3.6-6.5,4-13.5,1.2-20.6
		c-2.4-6.1-6.6-10.9-11.4-15.2c-8.2-7.3-18.1-12-27.7-17c-1.3-0.7-2.9-1-4.4-1.2c-2.6-0.3-3.9,0.5-4.6,3.1c-0.5,2-0.8,4.1-1.1,6.1
		c-2.3,13.5-10.8,20-24.2,18.2c-5-0.7-10-1.9-14.9-3.5c-6.9-2.2-12.7-1.1-18.4,3.4c-7.8,6.1-16.2,11-25.3,15.1
		c-8.1,3.6-16.2,7.2-24.2,11c-3.7,1.7-7.4,3.6-10.7,5.8c-10,6.7-21.2,8.6-32.9,9.6c-6.1,0.5-12.4,1.9-18.1,4
		c-7.9,2.8-14.3,7.9-17.1,16.3c-2,6-0.7,10.8,4.3,14.7c1.6,1.3,3.4,2.5,5.2,3.4c20.9,10.4,41.6,21,62.7,31
		c6.7,3.2,14.1,5.3,21.5,6.4c13.4,2.1,27,3.2,40.5,4.4c7.4,0.7,11.9,4.3,14.7,11.1c5.5,13.1,11.4,26,17.4,38.9
		c4.2,9,9.2,17.8,10.7,27.8c0.1,0.5,0.8,1.4,1.3,1.4c5.1,0.1,10.2,0.1,15.6,0.1c-0.6-1-1-1.6-1.3-2.2c-4.7-7.5-9.6-14.9-14.1-22.6
		c-4.3-7.4-8.1-15.1-10.3-23.4c-2.2-8.3-0.1-15.5,6.3-19.6c9-5.8,18.8-8.9,29.8-7c21.7,3.8,32.5,25.6,33.1,39
		c0.4,10.6-3.3,19.7-10.2,27.6C1295-389.1,1292-386.6,1289.1-383.8z M1419.4-500.4c-0.2-3.7-0.4-7.3-0.8-11
		c-0.6-6.2-3.4-10.9-9-14.1c-6.6-3.8-13.3-7-21-7.3c-4.6-0.2-5.5,0.7-7,5.1c-1.3,3.8-2.7,7.7-4.5,11.3c-2.6,5-6.9,7.9-12.6,7.5
		c-5.1-0.3-10.1-1.5-15.1-2.1c-4.6-0.5-9.2-1.3-13.8-0.9c-6.5,0.6-10.9,4.8-14.1,10.3c-4.7,8-6.7,16.3-2.5,25.1
		c2.7,5.7,7.6,9.3,13.2,11.7c11.5,4.9,23.1,9.7,34.7,14.4c7,2.8,13.8,2.1,20.1-2c2.7-1.8,5.5-3.5,8.2-5.4
		c6.5-4.5,12.5-9.8,17.2-16.2C1418.2-481.8,1419.4-491,1419.4-500.4z M1219.3-383.8c3.3,0,6.2-0.2,9.1,0.1c2.4,0.2,3.3-1,3.1-3
		c-0.5-4.1-0.8-8.3-2.1-12.2c-5-15-13.4-28.2-23.3-40.5c-4.8-5.9-10.7-10.1-17.9-12.3c-6.2-1.8-12.5-3-18.9-4.3
		c-9.6-2-19.4-3.2-28.8-6c-9.1-2.7-17.8-7.1-26.7-10.5c-10.7-4.1-20.9-9.8-32.7-10.6c-2.8-0.2-5.2,0-6.9,2.2
		c-1.7,2.2-0.7,4.7,0.4,6.8c1.7,3.2,3.6,6.2,5.5,9.3c4.7,7.2,9.3,14.6,12.4,22.7c4.5,11.6,6.1,23.4,2.1,35.4c-2,6-4.7,11.7-7.1,17.6
		c-0.7,1.7-1.3,3.5-2.1,5.4c12.6,0,24.8,0,37.3,0c-0.7-0.8-1.2-1.3-1.7-1.8c-5.4-5.7-9-12.4-10.2-20.2c-0.9-5.9-1.6-11.9-2.1-17.8
		c-0.6-7.8-0.9-15.6-1.2-23.5c-0.1-3,1.3-5.6,4.1-6.5c3.3-1,6.9-2.1,10.2-1.8c14.9,1.4,29.8,3.4,44.8,5c12,1.3,22.5,5.7,31.2,14.3
		c7.3,7.3,13,15.7,17.8,24.8C1220.4-402.7,1223.4-393.9,1219.3-383.8z M880.6-383.8c1.8-0.6,3.3-1.4,3.3-1.4
		c11.2-10.2,15.3-23.3,14.4-38.1c-0.4-6.4-3.2-9.5-9.6-10.8c-11.8-2.4-23.5-4.7-34.3-10.4c-5.1-2.7-10.4-4.9-15.7-7.1
		c-6.8-2.9-13.8-4.1-21.3-2.2c-10.9,2.8-18.5,10.1-19.8,20.3c-0.5,3.7-0.2,7.5,0.4,11.2c1.4,8,2.1,17.5,4.7,23.2
		C814.3-373.6,872.2-381.1,880.6-383.8z M1276-383.8c6.1,1.1,11.1-0.8,15.6-5.1c7.6-7.3,13.4-15.6,13.8-26.3
		c0.6-16.3-6.8-28.7-20.5-37.4c-6.8-4.3-14.7-5-22.3-3.9c-5.6,0.8-11.1,4-16.3,6.7c-3.4,1.7-5.2,5.1-6,8.9c-0.8,3.7-0.2,7.3,1,10.8
		c5,14.4,12.9,27.2,21.1,40c3.1,4.9,6.6,7.6,12.5,6.4C1275.3-383.9,1275.6-383.8,1276-383.8z M1173.9-383.8
		C1173.9-383.8,1173.9-383.8,1173.9-383.8c6.2,0,12.3,0,18.5,0c7.7,0,14-7.7,12.6-15.3c-1.3-7.2-3.7-13.9-7.7-20
		c-7.1-10.6-16.4-18.5-29.2-20.8c-9.8-1.8-19.7-1.7-29.5,0.5c-10.1,2.3-14.6,7.8-14.3,18.1c0.4,16.9,9.1,28.3,23.9,35.5
		c3,1.5,6.1,2.1,9.5,2C1163-383.9,1168.5-383.8,1173.9-383.8z M1146.3-383.8c0.1-0.1,0.1-0.3,0.2-0.4c-0.7-0.4-1.5-0.8-2.2-1.2
		c-13.8-8-21.7-19.8-22.1-36c-0.2-11.1,4.9-17.6,15.8-19.9c8.1-1.7,16.4-2.5,24.7-1.3c4.5,0.7,9.3,1.2,13.5,3
		c16.9,7.4,26.7,20.8,30.6,38.6c1.2,5.4,0,10.3-3.7,14.5c-0.8,0.9-1.8,1.7-3,2.7c5.4,0,10.5,0.1,15.5-0.1c0.7,0,1.8-0.9,2.1-1.7
		c1.6-3.8,2.2-7.9,1.1-11.7c-1.3-4.7-3.2-9.4-5.3-13.8c-3.6-7.5-8.5-14.3-14-20.6c-9.6-11-21.9-16.1-36.2-17.2
		c-10.4-0.9-20.8-2.2-31.2-3.3c-5.2-0.5-10.3-2.2-15.7-1.1c-5.2,1.1-7,2.8-6.7,8.1c0.8,11.8,1.6,23.6,2.7,35.4
		c0.9,9.6,4.8,18,12.1,24.6c0.8,0.7,2,1.4,3.1,1.4C1133.9-383.7,1140.1-383.8,1146.3-383.8z M1459.8-396.2c4.5-0.8,9-1.3,13.3-2.6
		c4.7-1.5,9.1-3.7,13.6-5.7c3.1-1.4,3.3-2.3,1.2-5.2c-0.2-0.3-0.5-0.6-0.7-1c-0.7-1.3-1.5-1.4-2.9-0.7c-3.8,1.7-7.6,3.3-11.6,4.6
		c-8.2,2.6-16.3,2.5-24.4-0.7c-10.8-4.2-14.4-13.6-8.7-23.8c4.7-8.4,10.9-15.8,17.6-22.7c2-2,0.5-3.1-0.5-4.4
		c-1.4-1.7-2.2-0.1-3,0.7c-4.9,5.4-9.8,10.8-14.7,16.1c-4.7,5.1-9.3,10.2-11.4,16.9c-0.7,2.1-1.2,4.4-1,6.5
		c0.5,6.8,4.4,11.8,10.1,15.1C1443.7-398.8,1451.4-396.7,1459.8-396.2z M1460.1-453.7c-3,3.4-5.8,6.3-8.2,9.5
		c-3.8,5.1-7.8,10.2-10.9,15.7c-3.8,6.7-1.2,14.1,5.5,17.5c4.4,2.3,9.1,3.5,14.1,3.5c7.7,0.1,14.8-2.4,21.6-5.7
		c2.6-1.3,2.7-2.3,0.6-4.5c-0.3-0.3-0.6-0.7-0.8-1.2c-2-4.2-2-4.2-6.5-2.6c-5.1,1.8-10.4,2.8-15.7,0.8c-4.3-1.6-6.3-5.6-5.3-10.1
		c1.3-5.7,4.6-10.1,8.2-14.5c0.5-0.6,1.2-1.6,1-2C1462.7-449.2,1461.5-451.2,1460.1-453.7z M1465.7-444.5c-4.1,4.2-7.3,8.5-8.7,13.9
		c-1.1,4.1,1.2,7.7,5.4,8.2c4.5,0.5,8.9,0.2,13.1-1.7c1.8-0.8,2.2-1.7,1.1-3.5c-2.5-3.8-4.8-7.6-7.2-11.4
		C1468.3-440.7,1467.1-442.4,1465.7-444.5z"/>
	<path class="st73" d="M784.8-481.1c2.5-0.5,5-1,7.5-1.6c8.5-2.2,14-7.4,16.1-16c1.2-5.1,2.3-10.3,3.9-15.3
		c2.5-7.7,7.6-13.3,15.6-15.7c7.9-2.4,14.1,1.7,15.3,9.8c0.1,0.9,0.2,1.9,0.2,2.9c0,2.6,0.2,5.1,0,7.7c-1.3,12.8,4.8,21.9,14.3,29.4
		c6.1,4.8,13,7.5,20.9,7c5.6-0.4,10.7-2.7,15.7-5c19.5-9.1,39.9-15.3,61.1-19.3c6.4-1.2,13-1.6,19.5-2.6c3.2-0.5,6.4-1.3,9.5-2.4
		c7.8-2.8,10.2-7.7,8.1-15.8c-2.9-11.1-9.8-19.4-18.4-26.5c-11.9-10-25.8-14.9-41-17.2c-10.3-1.6-20.4-0.1-30.6,0.7
		c-6.3,0.5-12.8,0.4-19.1,0.1c-7.6-0.3-13.3-4.5-17.1-10.8c-3-4.9-5.6-10.1-8.2-15.2c-5-9.6-9.9-19.2-14.8-28.8
		c-5.2-10.2-12.6-18.1-22.8-23.5c-12.6-6.7-23.2-15.8-31.8-27.2c-1-1.4-2.4-2.5-3.6-3.7c0-1.1,0-2.2,0-3.4c3.5,4.2,7,8.5,10.6,12.7
		c7.2,8.2,15.8,14.8,25.4,19.8c11.1,5.8,18.9,14.5,24.5,25.5c6.4,12.6,12.9,25.2,19.4,37.7c0.2,0.4,0.4,0.7,0.6,1.1
		c4.7,9.8,12.5,14.8,23.4,14.4c8.1-0.3,16.1-1,24.1-1.6c26-1.9,49.1,4.5,68.1,23.2c7.2,7.1,12.4,15.4,13.9,25.7
		c0.9,6.2-1.5,11.3-7.4,13.5c-5,1.9-10.4,3.5-15.7,4c-12.3,1.1-24.3,3.8-36.2,6.8c-14.8,3.7-29,9.1-42.7,15.6
		c-16.3,7.7-29.3,4.2-41.5-8.1c-6.7-6.7-10-14.5-9.7-23.9c0.1-3.7,0.1-7.4,0-11c-0.2-8-6.2-12.1-13.8-9.5c-7.4,2.6-11.7,8.1-14,15.3
		c-1.1,3.7-1.9,7.4-2.8,11.2c-3,13.2-9,19-22.3,21.3c-1.3,0.2-2.5,0.6-3.7,0.9C784.8-479.8,784.8-480.5,784.8-481.1z"/>
	<path class="st73" d="M784.8-756.6c6.8-0.8,12.5-3.3,16.1-9.7c3.1-5.7,6.5-11.2,10-16.6c6.9-10.8,9.5-22.9,11.3-35.3
		c1.5-10.3,2.8-20.6,5.2-30.6c2.7-10.9,10.5-16.6,21.6-17.7c9.1-0.9,18.2-1.4,27.2-2.5c13.5-1.6,26.6-5.2,39.2-10.4
		c13.3-5.5,21-16.2,26.4-29c5.7-13.5,4.6-26.5-2.5-39.1c-5.2-9.4-10.6-18.6-15.9-27.9c-0.5-0.8-0.9-1.7-1.2-2.6
		c-2.4-6-0.6-10.5,5.2-13.2c5.9-2.8,12.2-4.3,18.6-5.5c2.1-0.4,4.2-0.9,6.3-1.3c3.4,0,6.7,0,10.1,0c-3.6,0.8-7.2,1.8-10.9,2.5
		c-7.6,1.5-15.2,2.7-22.4,5.9c-5.7,2.6-7.3,6.4-4.2,12c5.4,9.8,11.1,19.4,16.5,29.2c4.6,8.3,7.1,17.2,6.1,26.7
		c-1,9.6-4.9,18.1-9.9,26.2c-7.2,11.4-17.8,17.8-30.4,21.5c-11.2,3.3-22.4,6.4-34.1,7.5c-6,0.5-12,0.6-17.9,1.1
		c-3.4,0.3-6.8,0.8-10.2,1.6c-8.7,1.9-14,7.8-16,16.1c-2,8.3-3.2,16.8-4.4,25.2c-1.5,10.7-2.7,21.5-7.4,31.3
		c-3.2,6.7-7.3,12.9-11,19.4c-1.3,2.3-2.8,4.5-4.1,6.8c-2.8,5.1-7.2,8-12.7,9.4c-1.6,0.4-3.2,0.9-4.8,1.4
		C784.8-755,784.8-755.8,784.8-756.6z"/>
	<path class="st73" d="M784.8-778.2c3.8-4.1,7.9-8,11.2-12.4c8.7-11.5,13.5-24.8,15.6-39c1.5-10.3,2.6-20.6,3.9-30.9
		c0.3-2,0.7-3.9,1.2-5.9c2.1-7.4,7.2-11.8,14.6-12.7c7.6-0.9,15.3-1.5,22.9-1.4c18.7,0.3,37-2.3,54.7-8.2
		c13.5-4.5,22.2-13.6,25.1-27.7c1.6-7.6-0.4-14.7-4.3-21.3c-6.3-10.5-14.7-18.8-24.3-26.2c-7-5.5-12.9-12-15.4-20.9
		c-1.2-4.3-2.1-8.7-1.1-13.2c0.6,0,1.3,0,1.9,0c0.3,3.8,0.2,7.7,1,11.4c1.8,8.5,7.2,14.7,13.7,20c7.4,6,14.7,12.1,20.5,19.7
		c4.4,5.8,8.4,11.7,9.9,18.9c2.4,10.9-1.1,20.3-7.8,28.8c-5.7,7.2-13.5,11.1-22.1,13.6c-18,5.3-36.3,7.8-55.1,7
		c-6.3-0.3-12.8,0.5-19.1,1.5c-9.1,1.5-13.3,6.5-14.6,16.4c-1.4,11.3-2.5,22.7-4.4,34c-3.4,20.1-12.7,37.2-27.7,51.1
		c-0.2,0.2-0.4,0.3-0.6,0.4C784.8-776.3,784.8-777.3,784.8-778.2z"/>
	<path class="st73" d="M867.4-998.1c2.8,5.4,5.8,10.6,8.3,16.2c4.4,10,10,19.1,19.1,25.6c3,2.1,6.3,3.8,9.4,5.8
		c7.2,4.6,12.8,10.7,17.1,18.1c8.5,14.9-0.9,28.8-12.1,32.4c-5,1.6-10.1,2.9-15.3,3.9c-7.8,1.6-15.6,3.5-23.6,4.2
		c-10.2,0.8-20.6,1-30.9,0.4c-8.2-0.4-16.2-2.4-24.3-3.7c-7.3-1.2-13.6,3.4-13.5,9.7c0.1,6.1,0.1,12.3,1,18.4
		c2.2,16.4,1.4,32.4-5.7,47.6c-2.8,6-6.8,11.1-12,15.3c0-1,0-1.9,0-2.9c4.5-3.1,7.3-7.5,9.8-12.2c4.8-9.2,6.9-19.1,6.9-29.4
		c0-7.8-1.1-15.6-1.5-23.4c-0.3-4.9-0.5-9.9-0.3-14.8c0.4-6.6,8.3-12.1,15.3-10.3c15.3,4,30.8,4.8,46.4,3.9c9.2-0.6,18.3-2.4,27.4-4
		c6-1.1,12-2.5,17.9-4.2c9.7-2.8,16-10.8,15.7-19.9c-0.1-4.5-2-8.3-4.3-12.1c-4.4-7.4-10.6-13.1-18.1-17.1
		c-11.6-6.2-19.5-15.7-25-27.5c-3.2-6.8-6.7-13.4-10.1-20.1C865.8-998.1,866.6-998.1,867.4-998.1z"/>
	<path class="st73" d="M784.8-525.3c0.8-0.6,1.7-1.2,2.4-1.9c6.4-6.4,12.5-13,19.2-19.1c6.9-6.3,15.5-9.3,24.6-11.1
		c3.5-0.7,7-2.1,10.3-3.6c3-1.4,4.6-4.2,5.1-7.6c0.6-4.4,0.1-8.6-1.1-12.8c-3.2-11.6-7.6-22.7-14.3-32.8
		c-3.7-5.5-8.3-10.1-13.9-13.7c-10.6-6.7-20.8-14.1-30.1-22.5c-0.7-0.6-1.4-1.1-2.1-1.6c0-0.8,0-1.6,0-2.4
		c4.3,3.6,8.4,7.3,12.9,10.6c7,5.2,14.1,10.2,21.4,15c7.7,5.1,12.9,12.2,17.4,20.1c5.3,9.3,8.7,19.2,11.2,29.5
		c0.9,3.7,0.7,7.8,0.3,11.7c-0.4,4-3,7-6.6,8.5c-4,1.6-8.3,3-12.5,3.9c-9.6,1.9-17.7,6.3-24.6,13.1c-5.7,5.7-11.3,11.5-16.9,17.3
		c-0.8,0.8-1.6,1.5-2.4,2.3C784.8-523.3,784.8-524.3,784.8-525.3z"/>
	<path class="st73" d="M791.6-998.1c-1.8,3.3-3.6,6.6-5.4,9.9c-0.4,0.8-0.9,1.8-0.9,2.6c-0.1,9,0,17.9,0,26.9c0,0.2,0.1,0.5,0.3,1.1
		c0.9-0.5,1.7-0.9,2.5-1.3c5.8-3.7,10-8.8,14.3-14c5.1-6.2,10.3-12.4,15.8-18.4c2.3-2.6,5.4-4.5,8.1-6.8c1.1,0,2.2,0,3.4,0
		c-12.3,8.1-20.4,20.1-29.6,31.1c-3.7,4.4-8,8.3-13.2,11c-1.6,0.8-1.5,2.1-1.5,3.4c0,23.7,0,47.3,0,71c0,1.9,0.1,3.8,0,5.8
		c-0.3,6.7,0.3,13.3,1.7,20c1.2,5.6,0.8,11.3-1,16.8c-0.5,1.4-0.6,3-0.7,4.4c-0.2,2.1-0.2,4.3-0.3,6.4c0-55.9,0-111.8,0-167.8
		c0-0.7,0.3-1.4,0.5-2.2c0,2.1,0,4.3,0,6.4c0.2,0,0.4,0.1,0.6,0.1c1.1-2.2,2.1-4.4,3.2-6.6C790-998.1,790.8-998.1,791.6-998.1z"/>
	<path class="st73" d="M784.8-571.8c1.5-0.9,2.9-2,4.5-2.7c6.5-2.9,13-5.8,19.5-8.6c2-0.9,4.1-1.5,5.9-2.5c4.3-2.4,5.5-6,4.9-10.9
		c-1.2-9.4-7-16-13.5-22c-6.2-5.7-13.1-10.7-19.7-16c-0.4-0.3-1-0.4-1.5-0.6c0-1,0-1.9,0-2.9c4.2,3.2,8.5,6.2,12.7,9.5
		c7.2,5.6,13.8,11.9,19.2,19.3c3.3,4.6,4.6,9.8,5,15.3c0.3,4.8-3.1,9-8.7,11.2c-6.1,2.5-12.4,4.7-18.4,7.5c-3.5,1.6-6.5,4.2-9.8,6.4
		C784.8-569.9,784.8-570.9,784.8-571.8z"/>
	<path class="st73" d="M784.8-703.3c5.9-0.6,8.7-3,9.4-8.9c1-8.3-0.5-15.9-7-21.8c-0.7-0.6-1.6-1-2.4-1.5c0-0.8,0-1.6,0-2.4
		c6.6,3.5,10,9.3,11,16.4c0.5,3.1,0.6,6.4,0.2,9.5c-1,7-4.1,9.7-11.2,10.6C784.8-702.1,784.8-702.7,784.8-703.3z"/>
	<path class="st73" d="M1200.7-807.5c-0.2,6.5-2.3,15.1-8.4,22.3c-4.6,5.5-11,7.8-17.6,9.5c-13.7,3.6-27.2,2.3-40.7-1.2
		c-4.2-1.1-8.6-1.7-13-2.1c-7.8-0.8-15.1,1.8-22.5,3.9c-5.3,1.6-10.7,3.3-16.2,1.7c-3-0.9-6-2.3-8.4-4.3
		c-7.4-5.8-11.9-13.9-16.2-22.1c-4.3-8-8.4-16.2-14.3-23.2c-2-2.3-4.2-4.4-6.4-6.5c-7.2-6.8-17-5-22.8,0.9c-3,3-6,6-9,9
		c-6.7,7-14.9,10.5-24.5,10.2c-6.7-0.2-13.4-0.7-20-2.1c-14.8-2.9-28.3-0.1-41.5,6.7c-8.8,4.5-17.7,9-26.8,12.8
		c-8.5,3.5-17.6,4.6-26.8,4.2c-8.9-0.4-15-4.7-17.9-13.1c-3-8.8-2.7-17.7,0.2-26.4c2.7-8.2,9.3-12.5,17.1-15.2c8.7-3,17.8-4.5,27-5
		c6.5-0.4,12.9-0.5,19.4-1.1c11.5-1,20.2-6.9,27-15.9c8.3-11,14.2-23.3,19.7-35.9c4.3-9.8,8.5-19.7,12-29.7
		c3.9-11.1,12.1-16.6,22.8-19c5-1.1,10,0.5,14.1,3.6c3.3,2.5,6.2,5.5,9.1,8.4c9.2,9.1,18.5,18.2,27.6,27.3c3.4,3.5,6.7,7.1,10,10.7
		c4.1,4.5,9.2,6.6,15.2,7.4c7.5,1,15,0.3,22.4-0.8c13.2-1.9,25.5,0.1,36.2,8.6c9.5,7.5,20.5,12.3,31,18.1
		c14.7,8.2,27,19.1,35.8,33.6C1198.6-825.4,1200.9-818.1,1200.7-807.5z M1155.9-775.9c8.9,0.1,16.6-1.2,24-3.9
		c4-1.4,7.7-3.4,10.3-6.7c9.6-12.3,10.7-25.8,4.5-39.7c-6.4-14.4-17.6-24.8-30.6-33.3c-5.8-3.9-12.4-6.6-18.4-10.2
		c-7-4.2-13.8-8.6-20.6-13.2c-8.7-5.9-18.1-8.7-28.7-7.6c-7.7,0.8-15.4,1.4-23.2,1.4c-8.2,0.1-15.6-2.5-21.5-8.8
		c-8.3-8.8-17.1-17.2-25.7-25.9c-5.8-5.9-11.3-12-17.3-17.6c-5.7-5.3-12.2-7-20.1-4.1c-8.1,2.9-13.1,8-16.1,15.8
		c-3.3,8.7-6.7,17.4-10.5,26c-5.8,13.3-11.9,26.5-20.4,38.5c-6.1,8.6-13.6,15.5-24.2,17.6c-6.6,1.3-13.5,1.3-20.3,1.7
		c-10.7,0.7-21.3,1.8-31.6,5.3c-7.6,2.7-13.8,7-16.2,15.1c-2.2,7.5-2.4,15.3-0.2,23c2.3,7.9,7.9,12.3,16.1,12.7
		c9.1,0.5,18.2-0.6,26.6-4.1c9.2-3.8,18.1-8.4,27-13c13.1-6.7,26.6-9.5,41.3-6.8c7,1.3,14.2,1.9,21.4,2.1c8.5,0.2,15.9-3.1,21.9-9.3
		c3-3,5.9-6,8.9-9.1c7.5-7.6,18-8.2,25.9-1.4c2.6,2.3,5.1,4.9,7.3,7.6c6.2,7.4,10.4,16.1,14.9,24.5c3.8,7.1,7.9,13.9,14,19.3
		c4.5,4,9.6,5.6,15.5,4.5c3.1-0.6,6.3-1.2,9.3-2.3c11.7-4.2,23.5-4.7,35.6-1.5C1142.1-777.1,1149.3-775.6,1155.9-775.9z"/>
	<path class="st73" d="M880.5-653.2c5.5,0.4,11,0.8,16.5,1.3c12.1,1,23.5-1,34.2-6.9c9.3-5.1,19.2-8.1,29.7-9.8
		c11.3-1.8,21,1.4,29.6,8.7c5.1,4.4,10.6,8.2,16.8,10.9c10.3,4.5,21.1,5.4,31.9,3c15.3-3.4,30.4-7.2,45.5-11.4
		c5.8-1.6,11.3-4.4,16.6-7.3c9-4.9,18.4-9,28.1-12.1c13.5-4.3,26.7-9.2,39.2-16c11.3-6.2,23.8-9.3,36.1-12.6
		c4.1-1.1,8.4,1.5,8.3,6.8c-0.1,3.6-0.8,7.1-1.5,10.6c-4.4,22.4-14.7,41.9-29,59.5c-13.8,16.9-29.2,32.2-45.4,46.8
		c-7,6.3-14,12.6-23,15.8c-6.6,2.4-13.7,3.6-20.5,5.5c-13.2,3.7-26.4,7.5-39.5,11.5c-9.4,2.9-17.8,1.8-26-4.1
		c-16.1-11.6-33.6-20.4-53.2-24.5c-8.4-1.8-17-2.7-25.6-3.5c-11.3-1.1-22.4-3.3-33.5-5.7c-5.8-1.3-11.7-2.3-17.6-3.4
		c-14.3-2.5-23.7-11.1-29.8-23.8c-4.4-9.2-5.9-18.8-4.9-28.9c0.7-6.6,3.7-9.4,10.2-9.6c2.2-0.1,4.5-0.2,6.7-0.4
		C880.5-653.1,880.5-653.2,880.5-653.2z M882.3-651.2c-3.6,0.2-6.7,0.3-9.8,0.6c-4.4,0.4-6.3,2.5-6.9,6.9
		c-1.6,11.9,0.8,22.9,6.8,33.2c5.8,9.9,14.2,16.2,25.6,18.4c6,1.1,12,2,17.9,3.4c11.9,2.7,23.8,5,35.9,5.9
		c11.3,0.8,22.6,2.3,33.4,5.8c16,5.2,30.9,12.6,44.5,22.6c6.6,4.9,13.7,6.3,21.5,4.1c5.1-1.4,10.1-3.2,15.1-4.6
		c10.9-3,21.8-6.4,32.8-8.7c11.5-2.4,21.8-6.8,30.6-14.5c18.4-16.2,36.1-33,51.4-52.3c11.8-14.9,21.3-31,26-49.5
		c1.4-5.5,2.6-11,3.6-16.6c0.8-4.4-2.1-7.7-6-6.6c-12.2,3.4-24.6,6.4-35.9,12.6c-10.4,5.7-21.3,10.1-32.6,13.7
		c-12.3,3.9-24.3,8.4-35.5,14.9c-4.9,2.8-10.2,5.1-15.6,6.6c-14.1,3.9-28.3,7.2-42.5,10.6c-8.6,2.1-17.3,2.5-26.1,0.6
		c-10.2-2.2-19-7.1-26.7-13.9c-8.4-7.4-18-10.5-29-8.7c-10.5,1.6-20.5,4.9-29.8,10c-9,4.9-18.6,7.1-28.8,6.7
		C895.3-650.2,888.6-650.8,882.3-651.2z"/>
	<path class="st73" d="M1034.8-665.4c-6.9,0-13.2-1.8-18.7-6c-5-3.8-10.1-7.6-14.6-12c-8.6-8.2-18.6-12.3-30.4-11.4
		c-7.8,0.6-15.5,2.2-23.3,2.8c-9.8,0.8-19.6,1.2-29.4,1.6c-12.4,0.5-24.7-0.5-36.9-3.2c-12.3-2.8-24.8-4.8-37.1-7.4
		c-5-1-9.5-3.2-13.6-6.4c-7.2-5.6-11-17.5-0.6-26.2c8.7-7.3,18.6-11.7,29.7-13.5c5.1-0.9,10.4-0.9,15.4-1.9
		c3.6-0.7,7.4-1.7,10.5-3.6c14.9-9,29.7-18.3,44.5-27.4c3.1-1.9,6.3-3.4,9.5-5c7.8-3.9,15.7-2.8,23.8-0.9c7.8,1.8,15.6,3.5,23.5,4.2
		c5.5,0.5,11.3-0.6,16.8-1.2c5.3-0.7,10.5-1.7,15.8-2.7c7.1-1.2,13.4,0.6,18.5,5.7c6.2,6.3,12.2,12.9,18.3,19.4
		c2.4,2.5,4.6,5.1,7.2,7.3c6.5,5.6,14,7,22.2,4.4c6.5-2.1,13.1-4,19.7-6.1c14-4.5,28-3.7,42.1-0.2c4.2,1,8.3,2.3,12.2,4.1
		c16.2,7.5,18.8,26.2,5.1,37.8c-8.6,7.3-18.6,12.5-29.4,15.7c-11.9,3.5-24.1,6.2-36.2,9.2c-7.9,2-15.4,4.8-22.4,9
		c-9.3,5.7-19.2,10.2-30,12.3C1043.1-666.3,1038.9-665.9,1034.8-665.4z M1035.1-667.8c0.7,0,1.5,0,2.3,0
		c13.3-0.8,25.4-5.5,36.7-12.2c8-4.8,16.5-8.3,25.6-10.6c12.3-3,24.7-5.9,36.8-9.6c10.2-3.1,19.6-8.2,27.7-15.3
		c11.5-10.1,9.4-26.2-4.3-32.9c-4.5-2.2-9.4-3.6-14.2-4.8c-13-3.2-26.1-3.7-39,0.3c-7.1,2.2-14.2,4.4-21.3,6.5
		c-5.9,1.7-11.7,1.3-17.2-1.4c-5.3-2.6-9.1-6.9-13-11.1c-6.7-7.1-13.4-14.2-20.3-21c-3.7-3.7-8.7-4.3-13.7-3.7
		c-5,0.7-9.9,1.8-14.9,2.4c-6.1,0.8-12.3,2.1-18.3,1.6c-8.9-0.8-17.7-3.1-26.6-4.6c-4.2-0.7-8.3-2.3-12.7-1.3
		c-7,1.5-13.2,4.7-19.2,8.4c-14.7,9.2-29.5,18.3-44.4,27.2c-2.8,1.7-6.3,2.3-9.5,2.9c-3.4,0.6-6.8,0.7-10.3,1
		c-12.7,1.5-24.3,5.6-34.2,14.1c-8.4,7.2-6,17.7,1,23.1c4,3.1,8.5,5.1,13.4,6.1c11.7,2.4,23.5,4.7,35.3,6.9
		c6.4,1.2,12.7,2.9,19.1,3.2c21.8,1,43.6,0,65.2-3.8c14.7-2.5,27.6,1.3,38.4,12c3.7,3.7,7.8,6.8,11.9,10
		C1021.1-669.8,1027.6-667.3,1035.1-667.8z"/>
	<path class="st73" d="M982.8-429.7c0-8.3,2.9-18.8,11.8-26.8c6.3-5.7,13.8-9.5,21.8-12.1c12.8-4.2,24.7-1.2,36.3,4.5
		c8.8,4.3,16.8,9.6,22.1,18.1c3.1,4.9,5.5,10.1,6,16c0.5,6.5-1.6,12.2-6.4,16.4c-7.2,6.2-14.8,12-22.2,17.9
		c-1.9,1.5-3.9,2.8-5.9,4.1c-18.8,13.2-45.1,7.9-58.6-12.5C983.9-410.2,982.4-417.7,982.8-429.7z M984.3-424.9
		c0.4,3.2,0.6,6.4,1.1,9.5c2.8,16.3,20.7,28.1,34.4,28.9c9.4,0.6,18.2-1.2,25.8-6.9c8.6-6.4,17.2-12.8,25.5-19.6
		c7.9-6.5,9.8-14.4,6.3-23.9c-2.1-5.7-5.3-10.7-9.7-15c-5.9-5.7-13.1-9.4-20.5-12.6c-10.6-4.6-21.3-5.7-32.4-1.6
		c-6.9,2.6-13.3,5.9-18.8,10.8C986.8-447.2,984.5-436.5,984.3-424.9z"/>
	<path class="st73" d="M880-488.8c-10.8-0.3-18.5-8-18.3-18.8c0.2-9.4,2.9-18.3,7.3-26.6c2.3-4.5,6.1-7.6,10.9-9.3
		c13.3-4.9,27-8.7,41.1-10c15.8-1.4,30.1,3.5,41.8,14.3c2.7,2.5,4.8,6,6.5,9.4c2.8,5.8,0.7,11.9-4.8,15.3c-5.9,3.6-12.5,5.3-19,7.2
		c-19.7,5.8-39.4,11.6-59.1,17.3C884.3-489.4,882.2-489.2,880-488.8z M863.6-509.8c-0.1,13.6,9.4,21.5,20.8,18.3
		c19.5-5.4,39-11.2,58.4-17c6.7-2,13.4-4.3,19.7-7.3c6.5-3,7.8-8.6,4.5-15c-3.6-6.8-9.3-11.2-16-14.7c-9.4-4.9-19.6-7.6-30-6.4
		c-13.5,1.6-26.6,5-39.5,9.5c-4.6,1.6-8.4,4.4-10.7,8.7C866.4-525.6,863.9-517.1,863.6-509.8z"/>
	<path class="st73" d="M849.2-904c-14.4,0-26.1-5.3-35.4-16.3c-6.6-7.9-7.6-15.3-1.9-24c3.7-5.7,8.6-10.7,13.1-15.9
		c3.2-3.7,6.7-7.1,9.9-10.8c3.1-3.5,6.8-6,10.9-8.1c3.3-1.7,9.4,0.5,12.2,4.5c2,2.9,3.8,6.1,5.6,9.2c1.2,2.1,2.2,4.2,3.3,6.4
		c4.5,8.8,11.3,15.3,20,20c3.6,2,7,4.4,10.4,6.8c1.1,0.8,2,1.9,2.8,2.9c3.3,4.3,2.4,9.1-2.3,11.8c-2.3,1.3-4.9,2.3-7.5,3.2
		c-9.9,3.5-19.7,7.5-30.2,9.1C856.5-904.6,852.8-904.4,849.2-904z M849.3-906.1c2.6-0.2,5.3-0.3,7.9-0.6c8.3-0.9,16.2-3.6,24-6.4
		c4.7-1.7,9.3-3.3,13.9-5.2c6-2.6,6.7-6.9,1.8-11.3c-2.8-2.5-6-4.9-9.3-6.6c-10.3-5.3-18.1-12.9-23.3-23.3
		c-2.3-4.6-4.9-8.9-7.6-13.3c-2.3-3.7-7.4-5.7-10.3-4c-3.2,2-6.6,4.1-9.2,6.8c-6.1,6.2-11.9,12.7-17.6,19.3
		c-2.8,3.3-5.5,6.9-7.4,10.8c-2.8,5.8-2.2,11.5,1.9,16.8C823-911.6,834.7-905.9,849.3-906.1z"/>
	<path class="st73" d="M1282.8-521.9c-0.4,1.8-0.8,5.6-2.2,9.1c-2.6,6.9-9,9.9-16.1,8c-5.5-1.5-10.9-3.7-16.4-5.1
		c-4.3-1.1-8.7-2-13.2-2.3c-7.7-0.4-14.1,2.8-18.8,8.8c-4.2,5.3-8.2,10.7-11.8,16.3c-5.9,9.2-14.3,13.3-24.8,13.9
		c-9.2,0.6-18-1.2-26.2-5.4c-17.2-8.7-34.2-17.6-51.2-26.7c-3.7-2-7-4.8-10.1-7.7c-6.4-6-4.9-14.4,3.4-17.3
		c5.4-1.9,11.2-3.3,16.8-3.5c12-0.2,22.7-4.2,32.8-10c11.2-6.4,23.2-7.7,35.7-5.4c10.6,1.9,21.1,1.7,31.5-1.8
		c10.4-3.4,21.2-5.3,32.2-5.7c4.4-0.2,8.7-1,13.1-1.3c9.5-0.6,16,3.6,19.8,12.3C1280.3-538.6,1282.5-531.5,1282.8-521.9z
		 M1268-506.2c5-0.1,8.7-2.5,10.3-6.9c1.3-3.7,2-7.8,2.1-11.7c0-7.7-2.7-14.9-6.1-21.7c-3.1-6.2-8.1-9.4-15-9.2
		c-4.8,0.1-9.7,1.1-14.5,1.3c-11.1,0.5-21.9,2.3-32.4,5.7c-10.4,3.4-21,3.6-31.7,1.7c-7.6-1.3-15.3-1.9-22.8,0.4
		c-5.2,1.6-10.3,3.9-15.1,6.5c-9.5,5-19.3,8-30.2,8.4c-5.1,0.2-10.3,1.4-15.3,2.8c-8.2,2.4-9.6,9.5-3.2,15.3c0.5,0.5,1.1,1,1.7,1.4
		c4.4,3,8.7,6.4,13.4,8.9c13.8,7.3,27.7,14.4,41.6,21.3c9.3,4.6,19,7.5,29.6,6.6c9.2-0.8,16.7-4.3,21.9-12.3
		c3.6-5.6,7.5-10.9,11.5-16.2c6.9-9,16.4-12.1,27.3-10c6.5,1.3,12.9,3.6,19.3,5.5C1262.8-507.7,1265.4-507,1268-506.2z"/>
	<path class="st73" d="M1239.1-487.2c2,0,6,2.8,6.5,4.7c0.5,1.9-0.9,4.4-3.5,5.7c-2.7,1.3-5.5,2.5-8.4,3.4c-3.4,1-6-1.8-5.2-5.3
		C1229.5-483.4,1234.2-487.2,1239.1-487.2z M1232.6-474.8c3.6-1.8,6.8-3.1,9.7-4.9c1.5-0.9,1.4-2.5-0.2-3.7c-2.1-1.7-4.1-2-6.6-0.7
		c-2.7,1.4-4.8,3.3-5,6.5C1230.5-476.9,1231.7-476,1232.6-474.8z"/>
	<path class="st73" d="M830.9-439.4c8.4,0,15.2,3,22,6.2c4.5,2.2,8.9,4.7,13.2,7.3c11.6,7,13.4,19.7,4.4,29.9
		c-9.8,11.2-27.9,13.1-39.6,4c-10.8-8.4-15.4-19.9-15.1-33.4C816.1-433.1,823-440.2,830.9-439.4z M830.7-437.8
		c-6.8-0.6-13.6,5.6-13.3,14.6c0.4,9.3,3.2,17.7,9.3,24.9c11,13.2,31,13.7,42.5,1.1c8.2-9,6.6-20.8-3.6-27.1
		c-4.1-2.5-8.3-4.9-12.6-7C846.3-434.5,839.5-437.5,830.7-437.8z"/>
	<path class="st73" d="M1292.5-418.2c-1,3.3-1.6,6.8-3.1,9.9c-2.8,5.9-9,8.2-15.2,6.1c-6.5-2.2-10.8-7-14-12.8
		c-2.3-4.1-4.1-8.3-4.3-13.1c-0.2-4.2,1.7-7.3,4.8-9.9c7.3-6,17.2-3.2,23.3,2c5.3,4.6,7.8,10.6,7.8,17.6
		C1292.1-418.4,1292.3-418.3,1292.5-418.2z M1290.2-418.3c-0.5-12.6-10.3-21.9-22.2-20.6c-5.3,0.6-10,5.6-9.7,10.9
		c0.4,6.3,3,11.8,7.1,16.5c2.4,2.7,5.3,5.1,8.5,6.8c5.5,2.8,11.5,0.6,14-5.1C1289.1-412.5,1289.4-415.5,1290.2-418.3z"/>
	<path class="st73" d="M1167.5-393.8c-7.7,0.4-15.7-1.5-22.2-7.7c-3.4-3.3-5.8-7.2-6.9-11.8c-1.6-6.9,1.9-13.1,8.3-15.9
		c8.8-3.9,17.6-4.4,26.4-0.4c9.2,4.2,14.4,11.7,15.8,21.6c0.7,4.7-1.8,8.3-5.8,10.7C1179.1-394.9,1175.3-394,1167.5-393.8z
		 M1166.3-395.9c1.1,0,1.5,0,2,0c5.3-0.2,10.5-0.5,15-4c3-2.4,4.3-5.4,3.5-9.1c-4-19.9-25.7-27-42.3-16.7c-1.3,0.8-2.3,2.2-3,3.6
		c-2.8,5.5-1.2,10.6,2,15.3C1149.1-398.6,1157.3-395.7,1166.3-395.9z"/>
	<path class="st73" d="M1045.8-855.4c-0.4-5.1,1.9-8.9,5.7-12c4.5-3.7,9.8-6.1,15.3-7.8c6.7-2,13.5-4.3,20.4-5.1
		c10.6-1.3,20.4,1.8,28.5,9.1c3.5,3.2,6.9,6.4,10.5,9.4c7,6,15,10.3,23.7,13.3c10,3.5,18.4,9.1,24.6,17.9c5.1,7.2,6.2,14.5,1.8,22.4
		c-2.8,5.1-6,9.6-10.8,13c-8.5,6-17.6,6.6-27,2.4c-6.1-2.7-12.3-4.8-19-3.9c-4.4,0.6-8.7,2-13,3.2c-3.4,0.9-6.7,2.1-10,3.2
		c-9,2.8-16.9,0.3-22.4-6.6c-12.6-15.6-22.6-32.7-27.6-52.4c-0.3-1.2-0.5-2.3-0.7-3.5C1045.8-853.7,1045.8-854.6,1045.8-855.4z
		 M1150.1-792c0.1-0.2,0.1-0.3,0.2-0.5c1.7-0.2,3.5-0.1,5.2-0.6c9.6-2.5,15.4-9.1,19.5-17.7c2.9-6.1,1.9-11.6-1.5-17
		c-5-7.9-11.9-13.8-20.6-16.8c-14-4.9-26.2-12.4-36.6-22.9c-8.4-8.5-18.8-12-30.6-10.2c-10.5,1.6-20.5,4.7-29.8,10.1
		c-5.4,3.2-8.6,7.6-7.7,14.2c0.3,2.1,0.8,4.2,1.4,6.3c4.3,15.7,12.4,29.6,21.7,42.7c2,2.8,4,5.7,6.5,7.9c5.1,4.5,11,6.3,17.8,4.2
		c4-1.3,8.1-2.4,12.1-3.9c10.7-4.1,21.2-3.7,31.6,1.2C1142.5-793.5,1146.4-793,1150.1-792z"/>
	<path class="st73" d="M955.1-844.7c-0.2-5.9,1.9-10.9,3.3-16.1c4.2-14.4,8.8-28.7,15.9-42c2.8-5.2,5.7-10.3,8.8-15.4
		c1.1-1.8,2.6-3.5,4.2-4.8c5-4.2,11.5-4.5,16.5-0.3c9.8,8.3,19,17.1,24.9,28.8c2.5,5,4.7,10.2,4,16c-0.8,6.6-4.5,11.2-10.2,14.5
		c-6.6,3.8-13.1,7.6-19.4,11.8c-5.1,3.4-8.9,8.2-11.9,13.6c-5.1,9.4-12,12.4-22.3,9.9c-1.2-0.3-2.3-0.6-3.4-1
		C958-832.2,955.1-836.4,955.1-844.7z M957.3-843.5c0,6.5,2.5,9.9,10.1,12.2c1.4,0.4,2.8,0.8,4.2,1c8,1.4,13.7-1.4,17.5-8.6
		c3.2-6.1,7.5-11.4,13.2-15.3c6.1-4.2,12.5-7.9,19-11.6c7-4,10.6-10,9.1-17.8c-0.9-4.3-2.8-8.5-4.9-12.4c-5.6-10.2-14-18-22.7-25.4
		c-4.6-3.9-9.9-3.5-14.3,0.6c-1.5,1.4-2.9,3-3.9,4.8c-2.4,3.9-4.8,8-7,12c-7.2,13.3-12.2,27.6-16.3,42.1
		C959.5-856.3,957.2-851,957.3-843.5z"/>
	<path class="st73" d="M876.2-805.5c-7.4,0-11.7-2.9-13.2-7.9c-1.4-4.7,0.8-10.2,5.5-13.2c5.3-3.4,11.2-3.8,17-1.8
		c7.1,2.5,8.9,9.9,4,15.6C885.7-808.1,880.7-805.7,876.2-805.5z M878.7-828c0,0.2-0.1,0.4-0.1,0.6c-3.6-0.2-6.8,1-9.6,3.1
		c-3.1,2.4-5,5.6-4.2,9.6c0.7,3.5,2.9,6,6.6,6.9c6.2,1.6,14.9-2.2,18-7.8c2-3.7,1.1-7.9-2.7-9.9C884.2-826.7,881.4-827.2,878.7-828z
		"/>
	<path class="st73" d="M1067.5-567c-6.5,0-12.5-2-18.5-4.2c-12.1-4.4-24.4-8.2-36.3-13c-11.5-4.7-22.7-10.2-34-15.5
		c-4.5-2.1-9-3.2-13.9-2.9c-7,0.5-14,1.2-21,1.5c-5.9,0.3-10.5-2.5-14-7c-3-3.8-2.9-8.3,0.5-11.8c6.9-7,13.7-14.1,21-20.7
		c8.4-7.6,18.1-8.9,28.5-3.9c8.3,4.1,16.7,8,25.9,9.9c13.7,2.8,27.2,2.8,40.7-1.5c14-4.5,28.3-7.2,43.1-6.5c4.2,0.2,8.5,0,12.7-0.3
		c5.2-0.3,9.4-2.9,12.9-6.6c8.5-9.1,18.8-15.4,30.6-19.2c8.6-2.7,17.3-5,26.1-7.3c4.8-1.2,10,3.2,10.2,8.1c0.2,3.5-0.7,6.7-2.1,9.9
		c-7.1,16.5-18.3,29.8-31,42.2c-7.7,7.5-14.2,16.2-21.1,24.5c-7.8,9.4-17,16.8-29.1,19.5c-6,1.3-12.1,1.9-18.2,2.8
		C1076.2-568.2,1071.8-567.6,1067.5-567z M1066.7-569c8.2-1.1,15.8-2,23.2-3.3c5.2-0.9,10.4-1.9,15.3-3.8
		c9.4-3.6,16.3-10.4,22.4-18.3c6.6-8.6,13.3-17.2,21.3-24.6c12.6-11.5,22.7-24.9,29.2-40.8c1-2.4,1.4-5,1.5-7.6
		c0.2-4.2-3.9-7.2-8.1-6.2c-5,1.3-10,2.7-15,4c-15.6,3.8-29.6,10.4-40.7,22.5c-3.5,3.8-8,6.1-13.3,6.3c-4.5,0.2-9.1,0.5-13.6,0.3
		c-12.9-0.6-25.6,1.2-37.8,5.3c-16,5.3-32.1,6-48.4,2c-7.9-1.9-15.2-5.4-22.4-8.9c-11.2-5.5-20.1-4.1-29.2,4.4
		c-6.5,6.1-12.8,12.5-19.1,18.9c-2.7,2.7-2.9,6.6-0.5,9.6c3.2,3.9,7.2,6.4,12.4,6.2c6.1-0.3,12.1-0.8,18.2-1.4
		c6.2-0.6,12.2-0.1,17.9,3.1c11.5,6.4,23.6,11.8,36,16.3c12.9,4.6,25.7,9.2,38.7,13.5C1058.6-570.1,1063-569.7,1066.7-569z"/>
	<path class="st73" d="M1095.3-701.8c-4.5,0-9.1,0-13.6,0c-5.5,0.1-10,2.3-13.7,6.3c-5.4,5.9-11.3,11.1-19.1,13.7
		c-8.5,2.8-16.6,2.1-24.2-2.6c-4.2-2.6-8.4-5.4-12-8.7c-13.1-11.8-28.3-15-45.3-12.3c-6.9,1.1-13.7,2.6-20.6,3.3
		c-7.2,0.8-14.3-0.2-20.8-3.4c-8.4-4.2-11.9-11.7-12.5-20.7c-0.5-6.8,1.3-13.1,5.2-18.8c7.7-11.6,17.6-20.4,31.2-24.5
		c1.4-0.4,3-0.6,4.5-0.3c9.2,1.5,18.4,2.9,27.6,4.7c7.6,1.5,15.1,0.7,22.6-0.4c6.9-1,13.9-2.4,20.9-1.1c6.6,1.2,11.8,4.9,16,9.9
		c5.3,6.3,10.3,12.8,15.5,19.2c2.1,2.6,4.3,5.2,6.6,7.6c3.1,3.3,7,4.1,11.1,2.2c8.7-4.1,17.4-8.5,26.2-12.4
		c12.6-5.7,25.7-8,39.2-4.4c4,1.1,8,3,11.4,5.2c5.8,3.8,6.7,11.6,2.3,17.1c-4.8,5.9-11.2,9.4-18,12.3c-10.9,4.7-22.4,7.4-34.3,8.3
		c-2.1,0.1-4.1,0.4-6.2,0.6C1095.3-701.4,1095.3-701.6,1095.3-701.8z M915.4-728.2c0.3,9.5,3.5,17.5,12.8,21.5
		c6.3,2.7,13,3.4,19.7,2.5c7.5-1,14.9-2.6,22.4-3.6c16-2.1,30.2,1.7,42.6,12.3c3.9,3.4,8.2,6.4,12.5,9.2c7.4,4.7,15.4,5.2,23.7,2.2
		c6.9-2.5,12.1-7.3,17-12.6c4.3-4.7,9.5-7.2,15.9-7.2c5,0.1,9.9,0.6,14.9,0.4c12.9-0.6,25.5-3.1,37.5-8.2
		c6.3-2.7,12.3-5.8,16.9-11.1c4.7-5.4,3.8-11.6-2.1-15.6c-5.9-3.9-12.7-5.1-19.6-5.5c-10.4-0.6-20.1,2.2-29.4,6.5
		c-8.3,3.8-16.4,8-24.7,11.7c-5,2.3-9.6,1.4-13.3-2.6c-2.9-3.1-5.6-6.4-8.3-9.7c-5.3-6.4-10.4-13-15.9-19.2
		c-3.3-3.8-7.6-6.3-12.7-7.3c-7.1-1.4-14,0-20.9,1.1c-7.4,1.1-14.8,1.9-22.4,0.4c-9-1.8-18-3.3-27.1-4.7c-1.7-0.3-3.5-0.1-5.2,0.4
		c-12,3.8-21,11.5-28.2,21.7C917.8-740.5,915.2-734.9,915.4-728.2z"/>
	<path class="st73" d="M1035.8-442.4c8.1-0.4,12.2,2.1,13.3,2.8c1.5,0.9,5.4,3.4,6.1,7.8c0.3,1.9-0.1,4-1.2,6.2
		c-5.5,10.4-13.7,18.1-25.2,21.4c-5.6,1.6-13.2-1.8-17.1-8c-5.9-9.5,1.1-20.2,1.4-20.7C1019-441.6,1029.7-442.1,1035.8-442.4z
		 M1034.7-440.7c-2.5,0.1-6.2,0.2-10.7,2.1c-2.9,1.2-6.7,2.7-9.4,6.6c-2.2,3.2-3.2,7.1-3,11.9c0.4,9.8,9.3,16.8,18.1,13.8
		c9.8-3.4,17.1-10.3,22.3-19.1c1.3-2.3,1.8-4.4,1.4-6.4c-0.7-3.6-4.1-5.6-5.7-6.5C1043.1-440.9,1038.6-440.8,1034.7-440.7z"/>
	<path class="st73" d="M900-511.1c-1.8-0.2-3.7-0.2-5.5-0.5c-5.5-1.1-8.1-5.7-5.4-10.6c1.5-2.9,3.8-5.7,6.5-7.5
		c10.1-6.8,21.3-10.8,33.7-9c3.2,0.5,6.6,1.8,9.2,3.6c5.5,3.9,4.6,10.4-1.6,13.3c-3.2,1.5-6.4,2.8-9.7,4.2
		C918.4-513.8,907.3-511.2,900-511.1z M924.1-537.5c-11.2,0.8-20.7,4-29,10.4c-2,1.6-3.6,4.1-4.7,6.4c-1.5,3.3,0.4,6.5,4,7.2
		c1.5,0.3,3.2,0.7,4.7,0.5c5.8-0.8,11.6-1.2,17.2-2.9c6.9-2.1,13.7-4.9,20.3-7.9c4.5-2,4.7-6.8,0.8-9.8c-1.2-1-2.7-1.8-4.2-2.2
		C930-536.6,926.6-537,924.1-537.5z"/>
	<path class="st73" d="M1158.6-527.9c9.1,0.4,15.8,4.8,21.7,10.6c2.8,2.8,5.1,5.9,5.9,9.9c2.3,12.2-7.1,20.9-19.4,18
		c-9-2.1-16.3-7.1-22.9-13.3c-1.3-1.2-2.6-2.4-3.8-3.7c-3.1-3.4-3.5-7.7-0.6-11.4C1144.5-523.9,1151-527.4,1158.6-527.9z
		 M1158.7-525.8c-7.1,0.4-13.1,3.7-17.6,9.4c-2.2,2.8-1.9,5.8,0.5,8.5c1.2,1.3,2.5,2.5,3.7,3.7c6.8,6.3,14.4,11.4,23.8,13.1
		c7.1,1.3,12.5-2,14.5-8.9c1.4-5,0.7-9.6-2.7-13.5C1175.1-520.1,1168.3-525.2,1158.7-525.8z"/>
	<path class="st73" d="M1120.2-833.6c0,4.5-1.4,8.5-4.2,12c-5.2,6.6-11.8,11.1-19.9,13.4c-5.9,1.7-11.2,0.5-16.1-3.1
		c-8.4-6.2-12.8-14.8-15.7-24.5c-2.9-9.6-0.4-17.7,6.3-24.6c9.1-9.5,25.7-9.9,35-1.1c6.9,6.6,12.1,14.2,14.1,23.7
		C1120-836.4,1120.1-835,1120.2-833.6z M1088.2-865.5c-2,0.3-4,0.3-5.8,0.8c-11.4,3.1-20.7,15.7-15.4,30.1c3,8,6.6,15.4,13.4,20.9
		c4.8,3.8,10,5.1,15.9,3.2c6.7-2.2,12.3-6,16.9-11.3c4.5-5.2,5.6-11,3.8-17.4c-2.1-7.5-6.2-13.8-11.7-19.2
		C1100.6-863.2,1095.1-865.9,1088.2-865.5z"/>
	<path class="st73" d="M1075.6-626.7c10.5,0.7,20.6,3,30.4,6.6c8.5,3.2,11.6,9.5,8.8,18.1c-3.8,11.5-12.5,17-23.7,19.1
		c-11.9,2.2-22.8-1.1-33-7.2c-5.8-3.5-11.5-7.3-17.1-11.1c-5.6-3.8-5.5-8.7-0.1-12.8c7.9-5.9,16.5-10.1,26.1-12
		C1069.8-626.5,1072.7-626.4,1075.6-626.7z M1084-584c3.1-0.5,6.4-0.6,9.4-1.5c9.1-2.5,16.2-7.4,19.3-16.9
		c2.5-7.6,0.2-12.9-7.2-15.4c-6.7-2.3-13.6-4.3-20.5-5.5c-5.8-1-11.9-1.3-17.6-0.5c-9.4,1.4-17.7,5.8-25.3,11.5
		c-4.3,3.2-4.5,6.3-0.1,9.3c6.6,4.5,13.3,8.9,20.2,12.9C1068.8-586.3,1076.2-584.3,1084-584z"/>
	<path class="st73" d="M963.5-749.5c6.8,0,13.1,2.5,19.5,4.1c6.4,1.5,12.7,3.1,19.1,4.2c3.6,0.6,7.3,0.1,11,0.2
		c2.8,0,5.7-0.4,8.3,0.3c7,1.7,11.6,11.1,9,17.9c-1.4,3.5-5.5,5.8-9.9,5c-5.8-1.1-11.6-2.3-17.3-3.7c-7.7-2-15.3-1.2-23,0.4
		c-10.5,2.2-21.2,4-31.8,5.7c-4.7,0.8-8.9-0.7-12.1-4.4c-3.6-4.1-4-9.3-1.1-14.2c4.3-7.4,11-11.6,19.1-13.8
		C957.4-748.8,960.5-749,963.5-749.5z M964.1-747.8c0,0.3-0.1,0.6-0.1,0.9c-5.2-0.8-9.8,0.9-14.4,2.9c-5.7,2.5-10.1,6.4-13,11.9
		c-1.5,2.9-1.5,5.8,0,8.7c2.4,4.6,6.8,6.9,12.7,5.9c9.6-1.6,19.2-3.1,28.7-5.3c9.4-2.2,18.7-3,28.1-0.4c4.9,1.4,9.9,2.3,15,3.1
		c4.8,0.8,8.4-2.1,7.9-6.5c-0.3-2.8-1.3-5.8-2.6-8.3c-1.6-2.9-4.4-4.3-7.8-4.3c-2,0-4,0.3-6,0.3c-3.3,0-6.8,0.4-10-0.2
		c-7-1.2-13.9-3-20.8-4.6C975.8-745,969.9-746.4,964.1-747.8z"/>
	<path class="st73" d="M1086.3-840c0.1-1.4,0-3.2,2.3-3.3c1.7-0.1,3.2,1.4,3.2,3.1c0.1,1.9-1.2,3.4-2.9,3.4
		C1087-836.7,1086.3-837.5,1086.3-840z"/>
</g>
<g id="Calque_3">
</g>
<g id="Calque_4">
	<g>
		<path class="st74" d="M1327.3,596.9c-0.4,3.8-1.8,7.7-18.6,25.2c-15.4,16-18.3,17-21,16.7c-5.2-0.5-5.7-5.1-17.4-18.5
			c-9-10.3-14.9-17.1-24.2-24c-7.3-5.4-11.5-7.1-11.6-11c-0.2-5.5,8.3-9.9,14.3-13c7.1-3.7,18.9-9.7,35.8-8.9
			c8.7,0.4,26.4,1.2,36.5,14.6C1322.6,580.1,1328.2,587.5,1327.3,596.9z"/>
		<path class="st74" d="M1351.3,464.9c-2.3,0.2-1.6,0.9-7.5,6.2c-9.4,8.3-9.2,22.3-9.1,32.5c0.2,15.1,4.3,24.2,1.7,40.8
			c-0.4,2.9-1.2,6.6-4.1,9.1c-5.6,4.7-15,1.5-21-0.1c-10.4-2.8-23.7-1.9-50.3-0.2c-33.3,2.2-39.6,8.7-41.8,11.6
			c-4.9,6.2-5.4,13.5-5.5,14.9c-0.6,11.6,6.8,20,9,22.4c7.1,7.9,10.8,5.3,20.8,13.3c10,8.1,15.3,17.9,18.2,23.3
			c8,15,5.1,19.9,11.2,24.2c9.8,6.9,27.2,0.7,37-5.8c7.8-5.1,6.8-7.7,23.8-25.1c3.6-3.6,10-10,17.5-16.6"/>
		<path class="st74" d="M1351.3,639.9c-4.4,7.4-0.9,18.4-13.1,29.5c-8.5,7.6-25.4,22.8-49,22.1c-12.9-0.4-33.9-5.7-39.4-19.5
			c-3.4-8.6,1.7-14.2-3.3-26.2c-1.9-4.5-5.3-8.5-12-16.3c-11.5-13.3-14-13.2-20.8-22.2c-6.2-8.3-11.2-14.9-12.2-24.8
			c-0.2-1.8-1.1-13.5,6.3-23.9c9.1-12.9,24.9-15.4,37.4-17.4c11.6-1.9,12.1,0.2,36.7-1.3c22.4-1.4,26.9-3.4,30.4-6.5
			c4.9-4.4,6.6-11.5,9.8-25.6c4.5-19.8,2.5-24.5,7-37.3c3-8.5,15.2-17.6,22.2-23.3"/>
		<path class="st74" d="M1351.3,413.8c-4.1,1.3-7.7,4.2-16.1,11.8c-13.7,12.5-17.2,29.7-21,49.7c-4.8,25.2-1,32.7-9,40.9
			c-5.8,6-14.3,7.6-31.5,10.8c-22.9,4.3-25.6,0.6-39.9,4.9c-8.7,2.6-25.3,7.5-35.3,23c-10.5,16.1-7.7,34.2-7,38.4
			c1.6,9,7,19.4,17.7,40.1c6.7,13.1,8.5,15.2,7.4,18.7c-4.1,13.9-39.2,7.8-44.9,21.4c-4.6,11,12.4,28.9,21,36.1
			c21.1,17.7,44.9,21,62.5,23c41.6,4.8,80.7-6.6,96.1-12.2"/>
		<path class="st74" d="M1262.2,487.6c4.1-1,9.7-4.5,10.5-10.6c0.5-3.9-1.1-8.1-4.4-10.5c-6.5-4.7-15.4,1.3-16.7,2.1
			c-1.4,1-7.6,5.2-7,10.4C1245.4,485,1254.8,489.5,1262.2,487.6z"/>
		<path class="st74" d="M1264.2,502.8c7.5-2,11.4-3.1,15.3-6.4c7.9-6.6,11-17.8,9.5-27.6c-0.4-2.8-2-13.1-10.2-18.6
			c-11.7-7.8-28.8-0.6-40.8,4.5c-6.9,2.9-7,4-19.4,9.5c-10.7,4.8-16.1,7.2-22,8.1c-4.7,0.7-11.4,0.1-24.9-1.1
			c-14.9-1.3-16.7-2.1-21.9-1c-8.4,1.9-14.7,6.5-17.2,8.5c-7.6,6.1-7.7,10.5-14.6,13.5c-1.5,0.6-6.8,2.9-12.9,1.6
			c-9.1-1.9-14.3-10.5-20.4-20.7c-3.5-5.9-2.5-5.5-8.4-16.2c-5.7-10.1-8.7-14.2-13.1-17.7c-2.5-2-5.4-4.3-9.8-5.5
			c-7.1-1.9-12.3,0.9-18.9,2.8c-9.3,2.6-17.2,1.9-33.1,0.5c-15.1-1.3-16-3.7-26.8-3.2c-7.7,0.4-15.5,0.8-23.1,6.2
			c-9.2,6.5-12.3,16.1-13.2,19.6c-3.5,13.6,2.2,25.2,5.2,31c3.1,6.1,7.6,12.2,37,33.5c21.8,15.8,32.9,23.8,41.7,25.1
			c18.3,2.7,34.9,0.5,34.9,0.5c3.7-0.5,5.2-0.9,8-0.7c10.5,0.7,18,7.7,27.5,18.1c20.8,22.5,24.4,31.4,37.7,37.2
			c6,2.6,11.3,3.5,16.4,2.2c4.3-1.1,8.4-3.6,12.9-8.8c7.9-9,8.1-15.5,15-33.3c6.9-17.7,13.1-27.9,15.8-32
			c5.4-8.5,8.2-12.8,12.4-16.1c9.3-7.3,20.1-8.5,36.8-10.3C1249.4,505,1254.3,505.4,1264.2,502.8z"/>
		<path class="st74" d="M1148.5,581.1c7.7-2.3,9.4-9.8,20.7-39c10.8-27.8,14.4-34.2,10.5-41.8c-3.3-6.4-10.8-11.5-17.9-11.1
			c-8.5,0.5-9.5,8.6-23.7,19.6c-14.1,11-20.6,8.8-26.3,18.3c-5.5,9-4.3,18.8-3.7,22.3c2.7,15,14.8,22.7,18.7,25.2
			C1132.5,578.4,1140.6,583.5,1148.5,581.1z"/>
		<path class="st75" d="M824.7,0.2c1.8,14.2-0.2,16.5-2.2,23.5c-3.3,11.9-8.8,20.9-11.4,24.9c-9.8,14.8-17.2,16.4-19,26.2
			c-1.4,7.9,2,14.6,5.5,21.1c12.7,23.9,30.3,21.4,36.5,38.5c5,13.9-0.6,32.1-8.8,42.2c-2.8,3.5-6.2,6.3-16,17.7
			c-8.3,9.6-9.2,11.5-9.8,12.8c-1.8,4.4-3.8,13.1,5.3,31.1c3.6,7.1,10.1,18,39.1,44.4c4.4,4,22.5,20.3,48.7,34.1
			c6.3,3.3,13,6.4,19.7,4.3c9.6-3.1,12.3-14.5,17.2-25.5c9.2-20.5,23.2-31.9,47.4-51.8c20.3-16.6,30.4-24.9,46.9-29.1
			c18.2-4.6,26.1,0.2,39.2-8.6c13.6-9.2,25.1-22.8,25.1-22.8c4.8-5.6,7.9-10.3,13.3-10.8c5.5-0.5,10.1,3.8,15.1,8.8
			c13.1,13.1,21.8,23.9,24,26.5c17.5,20.7,47.4,24.2,58.9,25.5c21.8,2.6,30.3-3.5,48.8,4.2c4.2,1.8,12.9,5.5,21.1,13.7
			c19.4,19.4,9.6,37.5,27.2,52.8c9.6,8.3,15.8,5.9,25.8,17.4c1.1,1.3,13.5,15.8,9.1,23.1c-1.6,2.6-4.8,3.4-6.9,3.8
			c-16.9,3.2-37.9-5.1-60.1-12.8c-20.5-7.1-26.4-8.3-34-7c-7.4,1.4-7.1,3.5-20.9,8.2c-16.8,5.7-29.6,6.8-33.2,7
			c-9.9,0.7-15.1,1-21.6-0.6c-18.2-4.6-18.5-17.7-34.9-24.2c-13.5-5.4-26.8-1.8-43.7,2.7c-15.2,4.1-15.3,7-34.9,14.7
			c-27.3,10.8-36.2,8.7-63.7,20.9c-20.3,9-24.3,14.1-26.5,18.2c-6.1,11.9-3.3,28.5,5.1,39c14.8,18.4,47.7,18.6,68.4,13.5
			c18.4-4.5,28-13.5,39.5-8.1c3.4,1.6,7.6,7.4,15.7,18.8c14,19.7,17.6,27.7,26.6,29.7c3.1,0.7,6,0.1,11.6-1
			c19.3-3.8,21.4-12.9,33.6-13.7c11.9-0.7,13.2,7.7,28.3,7.3c7.4-0.1,12.7-2.3,20.1-5.1c14.5-5.7,16.2-10.3,27.7-15.5
			c4.4-2,14.7-3.7,35.1-6.9c25.9-4.1,32.4-4.5,35.9-0.3c1.9,2.3,1.9,4.6,1.8,12.8c-0.3,35.4,0.2,38.4-2.9,45.2
			c-1.6,3.6-5.3,11.1-13.2,16.6c-7.3,5.1-14.6,5.9-19.7,6.6c-14.2,1.9-34.2,4.7-46.9,11.1c-22.4,11.3-30.7,38.2-31.1,39.7
			c-5.7,19.6,0.3,36.3-12.6,48.6c-2.7,2.6-5.4,4.2-7.3,5.1c-7.2,4.3-11.4,4.7-24.1,9.6c-9.6,3.7-11.1,5-12.2,6.8
			c-3.3,5.7,0.2,13.2,1.5,16c4.2,9,11.2,10.1,16.4,15.4c11.1,11,4.2,28,6.3,42.1c5.8,38.3,79,56.7,90.8,59.7
			c45.6,11.5,85.1,3.1,107-3.7"/>
		<path class="st74" d="M872.6,99c6.3-3.1,7.5-11.3,7.5-11.7c1.6-12.4-13.1-20.6-15-21.6c-3.8-2.1-9.5-5.3-14.5-2.9
			c-6,2.8-7.6,12.2-6.1,18.7C847.3,93.8,863,103.7,872.6,99z"/>
		<path class="st74" d="M884.8,111.7c3.8-2.3,9-5.5,11-11.5c2.2-6.8-2.1-9.8-10.7-32c-3.6-9.2-4.8-13.8-9.7-19.6
			c-3-3.6-6.6-7.8-12.1-8.7c-8.3-1.5-15.6,5.4-19.7,9.3c-4.2,4-15.5,14.6-14.9,31.6c0,0.9,1.2,22.1,19.7,31.9
			C860.7,119.3,875,117.7,884.8,111.7z"/>
		<path class="st74" d="M901.4,145.4c4.6-1.1,7.7-6.9,6.3-9.2c-1.4-2.3-7.8-1.6-11.6,1.4c-0.7,0.6-3.1,2.5-2.8,4.5
			C893.8,144.5,898.1,146.2,901.4,145.4z"/>
		<path class="st74" d="M986.1,182.8c1.4-0.5,9.2-3.4,10-9.2c0.9-5.6-5.3-10.5-9.4-13.8c-6.5-5.1-23.4-15.9-31.2-9.1
			c-5.1,4.4-4.3,14.5-1.1,20.9C960.2,183.2,975.8,186.7,986.1,182.8z"/>
		<path class="st74" d="M993.2,201.8c-2.8,1-11,3.8-19.3,5c-13.1,1.9-16.6-1.6-28.8-1.8c-12.3-0.1-12.2,3.4-38.7,9.4
			c-25,5.7-30.5,3.8-33.3,2.5c-11.6-5.2-16.2-17.4-17.4-20.6c-2.1-5.5-5.6-14.8-0.8-22.8c3.5-5.8,10.4-9.2,16.7-9.5
			c10.6-0.5,12.9,8,25.1,9.4c0.7,0.1,12.6,1.2,22-6.1c9.6-7.5,6.4-16,15.3-23.9c7.7-6.8,17.5-7.1,25.8-7.4
			c9.8-0.4,20.1,3.4,40.6,10.9c0,0,18,6.6,33.6,17.7c0.9,0.6,4.7,3.4,8,8.3c2.1,3.2,4.5,6.8,3.5,10.1c-0.7,2.3-3.1,4-12.3,6.7
			c-11.9,3.5-14.6,2.7-23.2,5.3C1002.3,197.3,1003.1,198.4,993.2,201.8z"/>
		<path class="st74" d="M1001.8,212.1c-24.1,12-36.2,17.9-36.7,18.1c-14.3,5.8-19.4,5.9-26.2,12.6c-3.6,3.5-4.7,5.9-8.7,7.4
			c-6.9,2.6-10.8-2.1-22-3.1c-5.6-0.5-15.5-1.4-21.4,4.2c-6.4,6.1-2.9,15.2-8.7,18.4c-2,1.1-4.9,1.4-13-1.9
			c-12.2-5.1-25.1-10.5-31.8-24.5c-5.7-12-3.8-23.8-3.1-28.1c2-12.6,7.4-15.4,9.6-30.8c1.3-9.1-0.4-8.9,0.9-17.9
			c2.6-17.4,9.4-19.3,9-28.6c-0.4-12.7-13.1-13.2-24-33.4c-3.3-6.1-9.8-18.6-8.2-34.8c1.6-16.3,10.7-27,14-30.8
			c6.1-7.1,15.6-18.1,29-17.6c15.5,0.5,25.3,15.9,27.3,19c5,7.8,2.7,9.8,9.6,27.8c4.9,12.8,5.2,9.5,11.1,24.1
			c5.2,12.9,6.8,19.9,14.2,24.7c0.9,0.6,2.8,1.7,7.4,3.1c14.2,4.4,26.8,3.2,30.5,3c8.6-0.5,20,3.9,42.8,12.6
			c2.8,1.1,26.2,10.2,52.8,28.5c9,6.2,13.9,10.4,13.8,15.6c-0.1,10.7-20.3,18.3-21.4,18.8c-11.1,4.1-15.1,0.9-28.9,5.3
			C1016.5,204.8,1015.3,205.4,1001.8,212.1z"/>
		<path class="st74" d="M995.4,79.8c2.1-8.1-6.6-16.6-11.7-20.2c-7.2-5-20.7-9.3-28.2-2.2c-6.2,5.9-4.3,15.9-4.2,16.7
			c2.2,10.7,12.3,15,13.5,15.5C976.3,94.4,992.9,89.5,995.4,79.8z"/>
		<path class="st74" d="M1010.7,89c5.3-10.5-0.8-24.4-7-32.2c-6.9-8.7-15.8-11.9-20.1-13.5c-14.5-5.2-26.9-1.8-37.8,1
			c-11.4,3-13.4,6.1-13.9,7c-4.4,7.5,2,18.5,5.4,24.4c2.3,4,8,13.5,19.8,19.6c9.4,4.9,17.3,4.8,29.6,4.7c10.8-0.1,15.4-2,18.6-4.7
			C1006.5,94.6,1009,92.4,1010.7,89z"/>
		<path class="st74" d="M1025.2,109.9c3.9-3.6,2.6-8.6-1-35.1c-1.6-12-2.2-17.4-6.6-23.4c-0.7-1-3.1-4.2-8.7-8.3
			c-6.6-4.8-15.5-9.3-28.1-11.9c-8.9-1.8-33.8-6.9-53.5,6.1c-7.8,5.1-9.5,9.6-10,11.2c-2.2,6.8,1,13.1,6.1,23.1
			c3.2,6.4,7.2,14.1,15.6,21.7c8,7.2,15.7,10.5,18.1,11.4c9.8,3.9,10.5,1.1,29.3,4.6c12,2.3,18.2,4.7,29,3.4
			C1020.5,112.2,1023.1,111.9,1025.2,109.9z"/>
		<path class="st74" d="M1061,141.1c2.3-3-1.1-8.8-6-18.3c-9.4-18.2-14.1-27.3-15-33.2c-1.6-10.1-0.2-25,7-37.6
			c3.5-6.1,6.6-8.6,5.9-12.9c-1.3-8.6-16-13.1-23.9-15.2c-35.4-9.8-52.5-25.7-78.9-23.7c-18.3,1.3-35.9,11.8-42.9,24
			c-4.1,7.2-3.1,15.7-2.4,23.6c1.2,13.1,6.2,22.2,11,30.5c6.4,11.2,13,22.7,26,30.2c7.9,4.6,9.4,2.5,33.8,8.5
			c19,4.6,28.5,6.9,37.9,11.2c8.6,3.9,17.8,9.1,33.2,12.9C1055.1,143.1,1059.3,143.3,1061,141.1z"/>
		<path class="st74" d="M1108.6,99c6.2-1.1,10.5-2,13.7-5.9c5.4-6.6,2.3-15.9,2-16.8c-0.5-1.3-3.1-9-10.2-11
			c-5.3-1.6-9.9,1-15.2,3.9c-5.1,2.8-11.8,6.5-13.9,14.2c-0.3,1-2.2,8.2,1.8,13C1091.7,102.2,1101.5,100.3,1108.6,99z"/>
		<path class="st74" d="M1133.8,119.3c2.7-2,17.6-13,18-32.5c0.3-19.8-14.7-31.4-16.4-32.7c-1.5-1.1-14.4-10.5-30.1-7.7
			c-2.3,0.4-10.3,5.3-26.2,15c-9,5.5-13.1,8.1-16.8,13.6c-1.8,2.7-5,7.6-5.1,14.3c-0.2,9.3,5.8,16,9.8,20.6
			c7.8,8.7,16.8,12.2,21.9,14.1c5.5,2,13.4,5,23.9,3.7C1116.8,127.1,1125.4,125.5,1133.8,119.3z"/>
		<path class="st74" d="M1269.3,309.8c6.8-7,1.7-22.2,0-27c-6.1-17.8-20.8-27.1-25.7-29.9c-5.5-3.1-10.3-4.7-44.6-9
			c-36.4-4.6-37.6-3.6-45.9-6.9c-12.5-5-32-16.1-33.8-17.1c-8.9-5.1-10.9-6.7-16.1-8.2c-10.6-3-19.4-1.1-33.5,2.5
			c-27.8,6.9-41.6,10.4-46,12.6c-7.2,3.7-17.1,12.9-36.7,31.3c-29.3,27.4-35.5,35.5-39.9,42.1c-2.2,3.3-6.5,11.8-15.1,28.9
			c-5.7,11.4-9.6,19.5-6.7,26.7c0.4,1.1,2.3,5.7,6,6.6c2.8,0.6,5.4-1.2,6.2-1.7c10.3-6.9,23.4-8.6,34.8-13.6
			c17.6-7.7,15.2-5,34.9-13.5c17.9-7.7,18.2-9.2,29.9-13.4c10.4-3.7,11.2-2.9,32.9-8.4c31.2-7.9,34.7-11,45.3-9.2
			c9,1.6,16.5,5.5,25,9.9c15,7.8,14.5,11.2,22.7,13.3c7.2,1.8,11.1,0,36.4-7c17.7-4.8,26.5-7.3,30.2-7.7
			C1252.9,308.4,1262.8,316.4,1269.3,309.8z"/>
		<path class="st74" d="M1199.8,285.3c-6.3,8.5-11.4,15.5-21.1,18.8c-7.9,2.7-14.7,1.6-19.4,0.9c-15.1-2.5-15.9-9.6-30.5-13.5
			c-12.4-3.3-23.6-1.4-32.7,0.2c-12.2,2.1-11.4,4.3-23.5,6.2c-14.8,2.4-17-0.8-30.4,1.9c-10.9,2.1-19.1,6.1-23.2,8.3
			c-10.7,5.7-9.7,8.2-21.3,14.8c-14,7.9-22.8,8.4-26.7,8.4c-2.6,0-12.7,0-14.4-4.5c-1-2.7,1.8-5.2,6-11.5c7.8-11.6,5.6-14.4,12.3-24
			c3.9-5.5,4.2-4,14.2-14.6c10.2-10.9,10.7-13.2,17.2-19.9c10.8-11,21.7-16.8,24.6-18.4c5.9-3,20.3-10.5,38.6-10
			c5.2,0.1,4.5,0.7,39,11.9c32.7,10.5,34.5,10.4,39.6,14.4c3.2,2.6,8.3,7.3,16.5,8.9c3.9,0.8,7.2,0.5,13.9-0.1
			c13.9-1.3,17.8-3.8,22.3-1c4.2,2.6,5.1,7.4,5.2,8C1206.3,272.2,1206.5,276.2,1199.8,285.3z"/>
		<path class="st74" d="M1086.9,278.6c5.8-3.3,12.7-7.3,12.5-11.6c-0.1-2.8-3.2-4.6-12-9.4c-15.5-8.4-23.3-12.7-26-13.2
			c-3.1-0.6-14.6-2.6-26.3,3.3c-4.7,2.3-11.8,5.9-13.7,13.5c-1.3,5.3,0,12,4.2,15.7c3.3,2.9,5.7,1.5,15.4,3.4
			c12.1,2.4,12.5,5.5,20.8,5.6c6.6,0.1,12.3-1.8,15.2-2.8C1081.3,281.6,1084.6,279.9,1086.9,278.6z"/>
		<path class="st74" d="M1351.3,140.3c-4.2,0.1-10.6,0.9-15.7,5.3c-4.3,3.7-6.1,8.7-9.1,17.5c-4,11.8-3.1,15.6-7.4,18.8
			c-4.5,3.4-10.4,2.6-12.1,2.4c-1.3-0.2-8.9-1.2-12.3-6.7c-3.4-5.5,0.8-9.5-0.5-17.8c-2-12.4-14.1-19.6-15.7-20.5
			c-10.4-6-20.8-4.2-24.9-3.5c-8,1.4-8.5,3.8-21.9,9.6c-7.9,3.4-18.1,7.9-31,9.6c-4.5,0.6-2.6,0-26.1,0.8c-14.9,0.5-19.7,0.9-24,4.6
			c-6.5,5.4-7.2,13.8-7.2,14.6c-0.9,12.4,10.3,21.8,18.9,29c5.9,5,18.6,15.7,37.9,18.7c16,2.5,19.2-3,43.3-0.7
			c18.4,1.8,23.4,5.6,25.1,7c7.4,6.2,6.2,12.5,13,27.8c2.5,5.6,8.6,18.1,18.8,29.4c8.5,9.5,9.6,6.7,32,25.9
			c10.3,8.8,15.8,14.4,19,17.7c6.7,6.9-3.7,13,0,17.7"/>
		<path class="st74" d="M1267.2,193.5c5.9-7.4,11-21.3,4.6-31c-6.9-10.7-23.3-9.9-27.6-9.7c-9.1,0.4-9.6,3.5-27.6,8
			c-7,1.7-7.1,1.3-22,4.6c-17.5,3.9-20.6,5.2-22.9,8.4c-3.9,5.4-3.3,13.2-1.2,18.4c3.8,9.1,13.2,12.5,25.1,16.8
			c8.4,3,19.2,6.9,32.8,4.6c8.3-1.4,14.4-4.7,22.2-8.8C1259.3,200.2,1263.6,197.9,1267.2,193.5z"/>
		<path class="st74" d="M1237.4,188.8c8.2-5.8,8.3-8.2,8.3-8.9c-0.2-4.5-7.9-7.4-8.7-7.7c-7.6-2.8-14.5-0.4-25.9,3.7
			c-12,4.3-13.6,7.2-14,9c-1.1,3.9,1.4,7.5,1.7,8c5.7,8.1,21,5,22.5,4.6C1226.9,196.2,1230.4,193.7,1237.4,188.8z"/>
		<path class="st74" d="M1314.5,65.4c-3.4-5.5-6.1-10-11.3-13.3c-8.3-5.4-20.8-6.5-30.4-0.5c-2.1,1.3-9.6,5.9-10.8,14
			c-1.6,10.4,8.2,18.7,12.9,22.6c8.9,7.5,18.3,9,22,9.5c6.7,1,12.9,1.9,17.7-2c6.2-5,5.6-14.3,5.5-16.1
			C1319.8,74,1317.4,70.1,1314.5,65.4z"/>
		<path class="st74" d="M1337.6,96.7c1.6-6.3-0.2-8.9-3.4-26.2c-2.3-12.6-2-14.1-4.2-17.3c-3.9-5.6-9.5-7.4-18.4-10.3
			c-5.7-1.8-18.4-5.3-37.2-4.6c-12.2,0.5-18.4,0.7-23.6,4.7c-7.2,5.4-9.3,13.9-11.3,21.9c-2.3,9.3-4.2,16.7-0.5,22.9
			c3.5,5.8,8.6,4.7,26.5,11.6c12.2,4.7,12.9,6.3,27.2,11.5c12.2,4.4,17.5,5.3,23.3,4.5c3.3-0.4,9.4-1.3,14.7-6.2
			C1335.6,104.6,1337,99,1337.6,96.7z"/>
		<path class="st74" d="M1351.3,117.8c-13.3,7.1-25,9.3-32.2,10.2c-8.6,1-15.7,1.8-23.7-1.4c-7.2-2.9-7.5-5.9-16.7-10.1
			c-3.5-1.6-11.1-5-20.3-5.1c-7.7-0.1-13.3,2.3-24.3,7.2c-14.2,6.3-16.5,9.8-28.2,12.9c-2.8,0.7-8.8,2.1-16.1,0.8
			c-4.1-0.7-8.7-1.6-11-5.3c-2.5-4.1-0.9-9.2,0-11.9c0.5-1.5,2.1-6.1,6.4-9.7c6.6-5.5,12.3-2.6,19.8-8c1.2-0.9,3.3-2.6,6.8-7.6
			c9.3-13.3,10.5-23.9,15.7-35.2c6.3-13.6,10-9.6,16.6-23c5.5-11.2,6.9-21.5,8.3-31.3"/>
		<path class="st74" d="M1153.1,404.7c-5.8-1.4-8-2.4-14.1-3.3c-9.2-1.2-16-1.1-16-1.1c-5,0.1-6,0.5-8.3-0.3c-3.8-1.3-7.5-4.6-9-9.2
			c-0.5-1.4-1.7-5.3,0-8.6c3.7-7.1,18.3-5.6,19.9-5.4c13.4,1.6,14.7,9.1,25.2,9c7.2-0.1,6.8-3.6,19.8-6.3c7.8-1.6,13.5-2.7,19.4,0
			c5,2.3,11.3,7.8,10.8,13.9c-0.8,8.5-14.8,12.6-16.9,13.2C1173.5,409.6,1163.4,407.2,1153.1,404.7z"/>
		<path class="st74" d="M1166.3,424.6c-4-0.9-15.9-3.2-29.4-2.5c-18.3,0.9-21.6,6.4-30,2.8c-2.1-0.9-2.2-1.4-16.5-17.6
			c-9.6-10.9-13.4-15.5-20.7-17.8c-4.9-1.5-8.9-1.3-11-1.1c-11.7,0.8-15,7.4-27.5,12.9c-3.9,1.7-17.4,7.3-32.1,3.4
			c-3.6-1-14.5-3.9-16.4-11.5c-1.4-5.8,2.9-11.4,4.6-13.5c8.7-11,23.2-13.2,34-14.6c22.8-3,28.7,3.3,40.7-3.2c9-4.9,8-9.8,17.5-14.3
			c11.8-5.7,23.9-3.3,31.2-1.8c25.2,5.2,27.3,19.8,47,20c8.7,0.1,9.6-2.8,24.9-3.3c11.6-0.4,18.4-0.5,25.5,3.6
			c1.4,0.8,13.3,8,14.8,21.3c1.3,11.7-6.9,20.4-13.7,27.6c-4.9,5.2-12.1,12.9-22.8,14.1C1179.8,429.6,1178.5,427.2,1166.3,424.6z"/>
		<path class="st74" d="M1192.7,443.3c-13.7,2.9-11.9-3.2-37-1.5c-8.3,0.6-18.7,1.9-36.6,2.6c-9.5,0.4-11.6,0.2-14.1-0.4
			c-10.1-2.5-11.3-10.7-25.4-24.1c-7.8-7.4-11.7-11.1-17.6-12.6c-8.4-2.1-12.4,1.8-27.2,5.6c-20.3,5.2-35.4,3.6-38.9,3.1
			c-10.6-1.3-20-2.5-26.6-10.3c-4.9-5.7-8.2-15.1-5.4-23.3c2.8-8.4,10.7-12.1,23.9-18.1c6.8-3.1,11.5-4.5,33.5-10.6
			c25.5-7.1,27.8-7.6,33.4-10.3c14.2-6.9,12.9-10.4,23.4-14c2.6-0.9,22.6-7.5,39.5,1.9c9.6,5.4,9.3,11,22.2,18.1
			c8.1,4.5,15.2,6.1,18.5,6.8c18,3.9,29-1.6,46.3-4.2c16.6-2.5,29.9-0.3,56.6,4.1c28.6,4.7,47.7,7.9,50.1,18c2.1,9-9.7,20.9-20.1,26
			c-9.3,4.6-13.9,1.9-28.3,6c-8.2,2.3-14,5.4-25.5,11.6C1205.3,434.7,1206.6,440.3,1192.7,443.3z"/>
		<path class="st74" d="M1088,517.3c5.4-18.5-6.3-34.4-16.7-48.5c-6.4-8.7-12.3-16.7-21.4-17.6c-6.2-0.7-8.3,2.5-23.7,5.2
			c-8,1.4-12,2.1-17.2,1.6c-11.1-1.1-12.1-6-21-6.2c-11.8-0.3-20,8-21,9c-1.7,1.8-6.5,6.7-7.5,14.3c-1.6,12.6,8.4,22.1,9.3,22.9
			c8.8,8.1,14.7,3.1,28.2,11.9c5.2,3.4,4,3.9,16.6,14.5c8,6.6,12,10,15.6,12.1c5.4,3.2,18.2,10.6,32.3,7.1
			C1074.8,540.4,1084.6,528.9,1088,517.3z"/>
		<path class="st74" d="M1071.2,511.4c8-14.8-5.5-30.9-6.5-32c-2.2-2.5-8.5-9.8-18.9-10.5c-9.3-0.6-18.2,4.5-22.9,12.2
			c-5.5,8.9-3.3,18.1-2.7,20.6c0.4,1.7,3.7,14.9,16.1,20.2C1048.2,527.1,1064.7,523.4,1071.2,511.4z"/>
		<path class="st74" d="M1051.7,503.5c0.9-0.6,1.2-2.9,0-4.1c-1.6-1.6-4.7-0.3-5,0.9C1046.5,501.7,1050.3,504.4,1051.7,503.5z"/>
		<path class="st74" d="M1053.5,486"/>
	</g>
	<g>
		<path class="st74" d="M26.3,331c0.4-3.8,1.8-7.7,18.6-25.2c15.4-16,18.3-17,21-16.7c5.2,0.5,5.7,5.1,17.4,18.5
			c9,10.3,14.9,17.1,24.2,24c7.3,5.4,11.5,7.1,11.6,11c0.2,5.5-8.3,9.9-14.3,13c-7.1,3.7-18.9,9.7-35.8,8.9
			c-8.7-0.4-26.4-1.2-36.5-14.6C31,347.8,25.4,340.4,26.3,331z"/>
		<path class="st74" d="M2.3,463c2.3-0.2,1.6-0.9,7.5-6.2c9.4-8.3,9.2-22.3,9.1-32.5c-0.2-15.1-4.3-24.2-1.7-40.8
			c0.4-2.9,1.2-6.6,4.1-9.1c5.6-4.7,15-1.5,21,0.1c10.4,2.8,23.7,1.9,50.3,0.2c33.3-2.2,39.6-8.7,41.8-11.6
			c4.9-6.2,5.4-13.5,5.5-14.9c0.6-11.6-6.8-20-9-22.4c-7.1-7.9-10.8-5.3-20.8-13.3c-10-8.1-15.3-17.9-18.2-23.3
			c-8-15-5.1-19.9-11.2-24.2c-9.8-6.9-27.2-0.7-37,5.8c-7.8,5.1-6.8,7.7-23.8,25.1c-3.6,3.6-10,10-17.5,16.6"/>
		<path class="st74" d="M2.3,288c4.4-7.4,0.9-18.4,13.1-29.5c8.5-7.6,25.4-22.8,49-22.1c12.9,0.4,33.9,5.7,39.4,19.5
			c3.4,8.6-1.7,14.2,3.3,26.2c1.9,4.5,5.3,8.5,12,16.3c11.5,13.3,14,13.2,20.8,22.2c6.2,8.3,11.2,14.9,12.2,24.8
			c0.2,1.8,1.1,13.5-6.3,23.9c-9.1,12.9-24.9,15.4-37.4,17.4c-11.6,1.9-12.1-0.2-36.7,1.3c-22.4,1.4-26.9,3.4-30.4,6.5
			c-4.9,4.4-6.6,11.5-9.8,25.6c-4.5,19.8-2.5,24.5-7,37.3c-3,8.5-15.2,17.6-22.2,23.3"/>
		<path class="st74" d="M2.3,514.1c4.1-1.3,7.7-4.2,16.1-11.8c13.7-12.5,17.2-29.7,21-49.7c4.8-25.2,1-32.7,9-40.9
			c5.8-6,14.3-7.6,31.5-10.8c22.9-4.3,25.6-0.6,39.9-4.9c8.7-2.6,25.3-7.5,35.3-23c10.5-16.1,7.7-34.2,7-38.4
			c-1.6-9-7-19.4-17.7-40.1c-6.7-13.1-8.5-15.2-7.4-18.7c4.1-13.9,39.2-7.8,44.9-21.4c4.6-11-12.4-28.9-21-36.1
			c-21.1-17.7-44.9-21-62.5-23c-41.6-4.8-80.7,6.6-96.1,12.2"/>
		<path class="st74" d="M91.3,440.3c-4.1,1-9.7,4.5-10.5,10.6c-0.5,3.9,1.1,8.1,4.4,10.5c6.5,4.7,15.4-1.3,16.7-2.1
			c1.4-1,7.6-5.2,7-10.4C108.1,442.9,98.8,438.4,91.3,440.3z"/>
		<path class="st74" d="M89.4,425.1c-7.5,2-11.4,3.1-15.3,6.4c-7.9,6.6-11,17.8-9.5,27.6c0.4,2.8,2,13.1,10.2,18.6
			c11.7,7.8,28.8,0.6,40.8-4.5c6.9-2.9,7-4,19.4-9.5c10.7-4.8,16.1-7.2,22-8.1c4.7-0.7,11.4-0.1,24.9,1.1c14.9,1.3,16.7,2.1,21.9,1
			c8.4-1.9,14.7-6.5,17.2-8.5c7.6-6.1,7.7-10.5,14.6-13.5c1.5-0.6,6.8-2.9,12.9-1.6c9.1,1.9,14.3,10.5,20.4,20.7
			c3.5,5.9,2.5,5.5,8.4,16.2c5.7,10.1,8.7,14.2,13.1,17.7c2.5,2,5.4,4.3,9.8,5.5c7.1,1.9,12.3-0.9,18.9-2.8
			c9.3-2.6,17.2-1.9,33.1-0.5c15.1,1.3,16,3.7,26.8,3.2c7.7-0.4,15.5-0.8,23.1-6.2c9.2-6.5,12.3-16.1,13.2-19.6
			c3.5-13.6-2.2-25.2-5.2-31c-3.1-6.1-7.6-12.2-37-33.5c-21.8-15.8-32.9-23.8-41.7-25.1c-18.3-2.7-34.9-0.5-34.9-0.5
			c-3.7,0.5-5.2,0.9-8,0.7c-10.5-0.7-18-7.7-27.5-18.1c-20.8-22.5-24.4-31.4-37.7-37.2c-6-2.6-11.3-3.5-16.4-2.2
			c-4.3,1.1-8.4,3.6-12.9,8.8c-7.9,9-8.1,15.5-15,33.3c-6.9,17.7-13.1,27.9-15.8,32c-5.4,8.5-8.2,12.8-12.4,16.1
			c-9.3,7.3-20.1,8.5-36.8,10.3C104.2,422.9,99.3,422.5,89.4,425.1z"/>
		<path class="st74" d="M205.1,346.7c-7.7,2.3-9.4,9.8-20.7,39C173.7,413.6,170,420,174,427.6c3.3,6.4,10.8,11.5,17.9,11.1
			c8.5-0.5,9.5-8.6,23.7-19.6c14.1-11,20.6-8.8,26.3-18.3c5.5-9,4.3-18.8,3.7-22.3c-2.7-15-14.8-22.7-18.7-25.2
			C221,349.5,213,344.4,205.1,346.7z"/>
		<path class="st75" d="M528.9,927.7c-1.8-14.2,0.2-16.5,2.2-23.5c3.3-11.9,8.8-20.9,11.4-24.9c9.8-14.8,17.2-16.4,19-26.2
			c1.4-7.9-2-14.6-5.5-21.1c-12.7-23.9-30.3-21.4-36.5-38.5c-5-13.9,0.6-32.1,8.8-42.2c2.8-3.5,6.2-6.3,16-17.7
			c8.3-9.6,9.2-11.5,9.8-12.8c1.8-4.4,3.8-13.1-5.3-31.1c-3.6-7.1-10.1-18-39.1-44.4c-4.4-4-22.5-20.3-48.7-34.1
			c-6.3-3.3-13-6.4-19.7-4.3c-9.6,3.1-12.3,14.5-17.2,25.5c-9.2,20.5-23.2,31.9-47.4,51.8c-20.3,16.6-30.4,24.9-46.9,29.1
			c-18.2,4.6-26.1-0.2-39.2,8.6c-13.6,9.2-25.1,22.8-25.1,22.8c-4.8,5.6-7.9,10.3-13.3,10.8c-5.5,0.5-10.1-3.8-15.1-8.8
			c-13.1-13.1-21.8-23.9-24-26.5c-17.5-20.7-47.4-24.2-58.9-25.5c-21.8-2.6-30.3,3.5-48.8-4.2c-4.2-1.8-12.9-5.5-21.1-13.7
			c-19.4-19.4-9.6-37.5-27.2-52.8c-9.6-8.3-15.8-5.9-25.8-17.4c-1.1-1.3-13.5-15.8-9.1-23.1c1.6-2.6,4.8-3.4,6.9-3.8
			c16.9-3.2,37.9,5.1,60.1,12.8c20.5,7.1,26.4,8.3,34,7c7.4-1.4,7.1-3.5,20.9-8.2c16.8-5.7,29.6-6.8,33.2-7c9.9-0.7,15.1-1,21.6,0.6
			c18.2,4.6,18.5,17.7,34.9,24.2c13.5,5.4,26.8,1.8,43.7-2.7c15.2-4.1,15.3-7,34.9-14.7c27.3-10.8,36.2-8.7,63.7-20.9
			c20.3-9,24.3-14.1,26.5-18.2c6.1-11.9,3.3-28.5-5.1-39c-14.8-18.4-47.7-18.6-68.4-13.5c-18.4,4.5-28,13.5-39.5,8.1
			c-3.4-1.6-7.6-7.4-15.7-18.8c-14-19.7-17.6-27.7-26.6-29.7c-3.1-0.7-6-0.1-11.6,1c-19.3,3.8-21.4,12.9-33.6,13.7
			c-11.9,0.7-13.2-7.7-28.3-7.3c-7.4,0.1-12.7,2.3-20.1,5.1c-14.5,5.7-16.2,10.3-27.7,15.5c-4.4,2-14.7,3.7-35.1,6.9
			c-25.9,4.1-32.4,4.5-35.9,0.3c-1.9-2.3-1.9-4.6-1.8-12.8c0.3-35.4-0.2-38.4,2.9-45.2c1.6-3.6,5.3-11.1,13.2-16.6
			c7.3-5.1,14.6-5.9,19.7-6.6c14.2-1.9,34.2-4.7,46.9-11.1c22.4-11.3,30.7-38.2,31.1-39.7c5.7-19.6-0.3-36.3,12.6-48.6
			c2.7-2.6,5.4-4.2,7.3-5.1c7.2-4.3,11.4-4.7,24.1-9.6c9.6-3.7,11.1-5,12.2-6.8c3.3-5.7-0.2-13.2-1.5-16c-4.2-9-11.2-10.1-16.4-15.4
			c-11.1-11-4.2-28-6.3-42.1c-5.8-38.3-79-56.7-90.8-59.7c-45.6-11.5-85.1-3.1-107,3.7"/>
		<path class="st74" d="M481,828.9c-6.3,3.1-7.5,11.3-7.5,11.7c-1.6,12.4,13.1,20.6,15,21.6c3.8,2.1,9.5,5.3,14.5,2.9
			c6-2.8,7.6-12.2,6.1-18.7C506.3,834.1,490.6,824.2,481,828.9z"/>
		<path class="st74" d="M468.8,816.1c-3.8,2.3-9,5.5-11,11.5c-2.2,6.8,2.1,9.8,10.7,32c3.6,9.2,4.8,13.8,9.7,19.6
			c3,3.6,6.6,7.8,12.1,8.7c8.3,1.5,15.6-5.4,19.7-9.3c4.2-4,15.5-14.6,14.9-31.6c0-0.9-1.2-22.1-19.7-31.9
			C492.8,808.6,478.6,810.2,468.8,816.1z"/>
		<path class="st74" d="M452.2,782.5c-4.6,1.1-7.7,6.9-6.3,9.2c1.4,2.3,7.8,1.6,11.6-1.4c0.7-0.6,3.1-2.5,2.8-4.5
			C459.7,783.4,455.5,781.7,452.2,782.5z"/>
		<path class="st74" d="M367.5,745.1c-1.4,0.5-9.2,3.4-10,9.2c-0.9,5.6,5.3,10.5,9.4,13.8c6.5,5.1,23.4,15.9,31.2,9.1
			c5.1-4.4,4.3-14.5,1.1-20.9C393.4,744.7,377.8,741.2,367.5,745.1z"/>
		<path class="st74" d="M360.4,726c2.8-1,11-3.8,19.3-5c13.1-1.9,16.6,1.6,28.8,1.8c12.3,0.1,12.2-3.4,38.7-9.4
			c25-5.7,30.5-3.8,33.3-2.5c11.6,5.2,16.2,17.4,17.4,20.6c2.1,5.5,5.6,14.8,0.8,22.8c-3.5,5.8-10.4,9.2-16.7,9.5
			c-10.6,0.5-12.9-8-25.1-9.4c-0.7-0.1-12.6-1.2-22,6.1c-9.6,7.5-6.4,16-15.3,23.9c-7.7,6.8-17.5,7.1-25.8,7.4
			c-9.8,0.4-20.1-3.4-40.6-10.9c0,0-18-6.6-33.6-17.7c-0.9-0.6-4.7-3.4-8-8.3c-2.1-3.2-4.5-6.8-3.5-10.1c0.7-2.3,3.1-4,12.3-6.7
			c11.9-3.5,14.6-2.7,23.2-5.3C351.2,730.5,350.5,729.4,360.4,726z"/>
		<path class="st74" d="M351.8,715.8c24.1-12,36.2-17.9,36.7-18.1c14.3-5.8,19.4-5.9,26.2-12.6c3.6-3.5,4.7-5.9,8.7-7.4
			c6.9-2.6,10.8,2.1,22,3.1c5.6,0.5,15.5,1.4,21.4-4.2c6.4-6.1,2.9-15.2,8.7-18.4c2-1.1,4.9-1.4,13,1.9
			c12.2,5.1,25.1,10.5,31.8,24.5c5.7,12,3.8,23.8,3.1,28.1c-2,12.6-7.4,15.4-9.6,30.8c-1.3,9.1,0.4,8.9-0.9,17.9
			c-2.6,17.4-9.4,19.3-9,28.6c0.4,12.7,13.1,13.2,24,33.4c3.3,6.1,9.8,18.6,8.2,34.8c-1.6,16.3-10.7,27-14,30.8
			c-6.1,7.1-15.6,18.1-29,17.6c-15.5-0.5-25.3-15.9-27.3-19c-5-7.8-2.7-9.8-9.6-27.8c-4.9-12.8-5.2-9.5-11.1-24.1
			c-5.2-12.9-6.8-19.9-14.2-24.7c-0.9-0.6-2.8-1.7-7.4-3.1c-14.2-4.4-26.8-3.2-30.5-3c-8.6,0.5-20-3.9-42.8-12.6
			c-2.8-1.1-26.2-10.2-52.8-28.5c-9-6.2-13.9-10.4-13.8-15.6c0.1-10.7,20.3-18.3,21.4-18.8c11.1-4.1,15.1-0.9,28.9-5.3
			C337.1,723.1,338.3,722.5,351.8,715.8z"/>
		<path class="st74" d="M358.2,848.1c-2.1,8.1,6.6,16.6,11.7,20.2c7.2,5,20.7,9.3,28.2,2.2c6.2-5.9,4.3-15.9,4.2-16.7
			c-2.2-10.7-12.3-15-13.5-15.5C377.3,833.5,360.7,838.4,358.2,848.1z"/>
		<path class="st74" d="M342.9,838.8c-5.3,10.5,0.8,24.4,7,32.2c6.9,8.7,15.8,11.9,20.1,13.5c14.5,5.2,26.9,1.8,37.8-1
			c11.4-3,13.4-6.1,13.9-7c4.4-7.5-2-18.5-5.4-24.4c-2.3-4-8-13.5-19.8-19.6c-9.4-4.9-17.3-4.8-29.6-4.7c-10.8,0.1-15.4,2-18.6,4.7
			C347.1,833.3,344.6,835.5,342.9,838.8z"/>
		<path class="st74" d="M328.4,818c-3.9,3.6-2.6,8.6,1,35.1c1.6,12,2.2,17.4,6.6,23.4c0.7,1,3.1,4.2,8.7,8.3
			c6.6,4.8,15.5,9.3,28.1,11.9c8.9,1.8,33.8,6.9,53.5-6.1c7.8-5.1,9.5-9.6,10-11.2c2.2-6.8-1-13.1-6.1-23.1
			c-3.2-6.4-7.2-14.1-15.6-21.7c-8-7.2-15.7-10.5-18.1-11.4c-9.8-3.9-10.5-1.1-29.3-4.6c-12-2.3-18.2-4.7-29-3.4
			C333.1,815.7,330.5,816,328.4,818z"/>
		<path class="st74" d="M292.5,786.8c-2.3,3,1.1,8.8,6,18.3c9.4,18.2,14.1,27.3,15,33.2c1.6,10.1,0.2,25-7,37.6
			c-3.5,6.1-6.6,8.6-5.9,12.9c1.3,8.6,16,13.1,23.9,15.2c35.4,9.8,52.5,25.7,78.9,23.7c18.3-1.3,35.9-11.8,42.9-24
			c4.1-7.2,3.1-15.7,2.4-23.6c-1.2-13.1-6.2-22.2-11-30.5c-6.4-11.2-13-22.7-26-30.2c-7.9-4.6-9.4-2.5-33.8-8.5
			c-19-4.6-28.5-6.9-37.9-11.2c-8.6-3.9-17.8-9.1-33.2-12.9C298.5,784.8,294.3,784.6,292.5,786.8z"/>
		<path class="st74" d="M245,828.9c-6.2,1.1-10.5,2-13.7,5.9c-5.4,6.6-2.3,15.9-2,16.8c0.5,1.3,3.1,9,10.2,11
			c5.3,1.6,9.9-1,15.2-3.9c5.1-2.8,11.8-6.5,13.9-14.2c0.3-1,2.2-8.2-1.8-13C261.9,825.7,252.1,827.6,245,828.9z"/>
		<path class="st74" d="M219.8,808.6c-2.7,2-17.6,13-18,32.5c-0.3,19.8,14.7,31.4,16.4,32.7c1.5,1.1,14.4,10.5,30.1,7.7
			c2.3-0.4,10.3-5.3,26.2-15c9-5.5,13.1-8.1,16.8-13.6c1.8-2.7,5-7.6,5.1-14.3c0.2-9.3-5.8-16-9.8-20.6
			c-7.8-8.7-16.8-12.2-21.9-14.1c-5.5-2-13.4-5-23.9-3.7C236.8,800.8,228.2,802.4,219.8,808.6z"/>
		<path class="st74" d="M84.3,618.1c-6.8,7-1.7,22.2,0,27c6.1,17.8,20.8,27.1,25.7,29.9c5.5,3.1,10.3,4.7,44.6,9
			c36.4,4.6,37.6,3.6,45.9,6.9c12.5,5,32,16.1,33.8,17.1c8.9,5.1,10.9,6.7,16.1,8.2c10.6,3,19.4,1.1,33.5-2.5
			c27.8-6.9,41.6-10.4,46-12.6c7.2-3.7,17.1-12.9,36.7-31.3c29.3-27.4,35.5-35.5,39.9-42.1c2.2-3.3,6.5-11.8,15.1-28.9
			c5.7-11.4,9.6-19.5,6.7-26.7c-0.4-1.1-2.3-5.7-6-6.6c-2.8-0.6-5.4,1.2-6.2,1.7c-10.3,6.9-23.4,8.6-34.8,13.6
			c-17.6,7.7-15.2,5-34.9,13.5c-17.9,7.7-18.2,9.2-29.9,13.4c-10.4,3.7-11.2,2.9-32.9,8.4c-31.2,7.9-34.7,11-45.3,9.2
			c-9-1.6-16.5-5.5-25-9.9c-15-7.8-14.5-11.2-22.7-13.3c-7.2-1.8-11.1,0-36.4,7c-17.7,4.8-26.5,7.3-30.2,7.7
			C100.7,619.5,90.8,611.5,84.3,618.1z"/>
		<path class="st74" d="M153.8,642.6c6.3-8.5,11.4-15.5,21.1-18.8c7.9-2.7,14.7-1.6,19.4-0.9c15.1,2.5,15.9,9.6,30.5,13.5
			c12.4,3.3,23.6,1.4,32.7-0.2c12.2-2.1,11.4-4.3,23.5-6.2c14.8-2.4,17,0.8,30.4-1.9c10.9-2.1,19.1-6.1,23.2-8.3
			c10.7-5.7,9.7-8.2,21.3-14.8c14-7.9,22.8-8.4,26.7-8.4c2.6,0,12.7,0,14.4,4.5c1,2.7-1.8,5.2-6,11.5c-7.8,11.6-5.6,14.4-12.3,24
			c-3.9,5.5-4.2,4-14.2,14.6c-10.2,10.9-10.7,13.2-17.2,19.9c-10.8,11-21.7,16.8-24.6,18.4c-5.9,3-20.3,10.5-38.6,10
			c-5.2-0.1-4.5-0.7-39-11.9c-32.7-10.5-34.5-10.4-39.6-14.4c-3.2-2.6-8.3-7.3-16.5-8.9c-3.9-0.8-7.2-0.5-13.9,0.1
			c-13.9,1.3-17.8,3.8-22.3,1c-4.2-2.6-5.1-7.4-5.2-8C147.3,655.7,147.1,651.7,153.8,642.6z"/>
		<path class="st74" d="M266.7,649.3c-5.8,3.3-12.7,7.3-12.5,11.6c0.1,2.8,3.2,4.6,12,9.4c15.5,8.4,23.3,12.7,26,13.2
			c3.1,0.6,14.6,2.6,26.3-3.3c4.7-2.3,11.8-5.9,13.7-13.5c1.3-5.3,0-12-4.2-15.7c-3.3-2.9-5.7-1.5-15.4-3.4
			c-12.1-2.4-12.5-5.5-20.8-5.6c-6.6-0.1-12.3,1.8-15.2,2.8C272.3,646.3,269,648,266.7,649.3z"/>
		<path class="st74" d="M2.3,787.6c4.2-0.1,10.6-0.9,15.7-5.3c4.3-3.7,6.1-8.7,9.1-17.5c4-11.8,3.1-15.6,7.4-18.8
			c4.5-3.4,10.4-2.6,12.1-2.4c1.3,0.2,8.9,1.2,12.3,6.7c3.4,5.5-0.8,9.5,0.5,17.8c2,12.4,14.1,19.6,15.7,20.5
			c10.4,6,20.8,4.2,24.9,3.5c8-1.4,8.5-3.8,21.9-9.6c7.9-3.4,18.1-7.9,31-9.6c4.5-0.6,2.6,0,26.1-0.8c14.9-0.5,19.7-0.9,24-4.6
			c6.5-5.4,7.2-13.8,7.2-14.6c0.9-12.4-10.3-21.8-18.9-29c-5.9-5-18.6-15.7-37.9-18.7c-16-2.5-19.2,3-43.3,0.7
			c-18.4-1.8-23.4-5.6-25.1-7c-7.4-6.2-6.2-12.5-13-27.8c-2.5-5.6-8.6-18.1-18.8-29.4c-8.5-9.5-9.6-6.7-32-25.9
			c-10.3-8.8-15.8-14.4-19-17.7c-6.7-6.9,3.7-13,0-17.7"/>
		<path class="st74" d="M86.4,734.4c-5.9,7.4-11,21.3-4.6,31c6.9,10.7,23.3,9.9,27.6,9.7c9.1-0.4,9.6-3.5,27.6-8
			c7-1.7,7.1-1.3,22-4.6c17.5-3.9,20.6-5.2,22.9-8.4c3.9-5.4,3.3-13.2,1.2-18.4c-3.8-9.1-13.2-12.5-25.1-16.8
			c-8.4-3-19.2-6.9-32.8-4.6c-8.3,1.4-14.4,4.7-22.2,8.8C94.3,727.7,90,730,86.4,734.4z"/>
		<path class="st74" d="M116.2,739.1c-8.2,5.8-8.3,8.2-8.3,8.9c0.2,4.5,7.9,7.4,8.7,7.7c7.6,2.8,14.5,0.4,25.9-3.7
			c12-4.3,13.6-7.2,14-9c1.1-3.9-1.4-7.5-1.7-8c-5.7-8.1-21-5-22.5-4.6C126.7,731.7,123.2,734.1,116.2,739.1z"/>
		<path class="st74" d="M39.1,862.5c3.4,5.5,6.1,10,11.3,13.3c8.3,5.4,20.8,6.5,30.4,0.5c2.1-1.3,9.6-5.9,10.8-14
			c1.6-10.4-8.2-18.7-12.9-22.6c-8.9-7.5-18.3-9-22-9.5c-6.7-1-12.9-1.9-17.7,2c-6.2,5-5.6,14.3-5.5,16.1
			C33.8,853.9,36.2,857.8,39.1,862.5z"/>
		<path class="st74" d="M16,831.2c-1.6,6.3,0.2,8.9,3.4,26.2c2.3,12.6,2,14.1,4.2,17.3c3.9,5.6,9.5,7.4,18.4,10.3
			c5.7,1.8,18.4,5.3,37.2,4.6c12.2-0.5,18.4-0.7,23.6-4.7c7.2-5.4,9.3-13.9,11.3-21.9c2.3-9.3,4.2-16.7,0.5-22.9
			c-3.5-5.8-8.6-4.7-26.5-11.6c-12.2-4.7-12.9-6.3-27.2-11.5c-12.2-4.4-17.5-5.3-23.3-4.5c-3.3,0.4-9.4,1.3-14.7,6.2
			C18,823.3,16.6,828.9,16,831.2z"/>
		<path class="st74" d="M2.3,810.1c13.3-7.1,25-9.3,32.2-10.2c8.6-1,15.7-1.8,23.7,1.4c7.2,2.9,7.5,5.9,16.7,10.1
			c3.5,1.6,11.1,5,20.3,5.1c7.7,0.1,13.3-2.3,24.3-7.2c14.2-6.3,16.5-9.8,28.2-12.9c2.8-0.7,8.8-2.1,16.1-0.8
			c4.1,0.7,8.7,1.6,11,5.3c2.5,4.1,0.9,9.2,0,11.9c-0.5,1.5-2.1,6.1-6.4,9.7c-6.6,5.5-12.3,2.6-19.8,8c-1.2,0.9-3.3,2.6-6.8,7.6
			c-9.3,13.3-10.5,23.9-15.7,35.2c-6.3,13.6-10,9.6-16.6,23c-5.5,11.2-6.9,21.5-8.3,31.3"/>
		<path class="st74" d="M200.5,523.2c5.8,1.4,8,2.4,14.1,3.3c9.2,1.2,16,1.1,16,1.1c5-0.1,6-0.5,8.3,0.3c3.8,1.3,7.5,4.6,9,9.2
			c0.5,1.4,1.7,5.3,0,8.6c-3.7,7.1-18.3,5.6-19.9,5.4c-13.4-1.6-14.7-9.1-25.2-9c-7.2,0.1-6.8,3.6-19.8,6.3
			c-7.8,1.6-13.5,2.7-19.4,0c-5-2.3-11.3-7.8-10.8-13.9c0.8-8.5,14.8-12.6,16.9-13.2C180.1,518.3,190.2,520.7,200.5,523.2z"/>
		<path class="st74" d="M187.3,503.3c4,0.9,15.9,3.2,29.4,2.5c18.3-0.9,21.6-6.4,30-2.8c2.1,0.9,2.2,1.4,16.5,17.6
			c9.6,10.9,13.4,15.5,20.7,17.8c4.9,1.5,8.9,1.3,11,1.1c11.7-0.8,15-7.4,27.5-12.9c3.9-1.7,17.4-7.3,32.1-3.4
			c3.6,1,14.5,3.9,16.4,11.5c1.4,5.8-2.9,11.4-4.6,13.5c-8.7,11-23.2,13.2-34,14.6c-22.8,3-28.7-3.3-40.7,3.2
			c-9,4.9-8,9.8-17.5,14.3c-11.8,5.7-23.9,3.3-31.2,1.8c-25.2-5.2-27.3-19.8-47-20c-8.7-0.1-9.6,2.8-24.9,3.3
			c-11.6,0.4-18.4,0.5-25.5-3.6c-1.4-0.8-13.3-8-14.8-21.3c-1.3-11.7,6.9-20.4,13.7-27.6c4.9-5.2,12.1-12.9,22.8-14.1
			C173.7,498.3,175.1,500.7,187.3,503.3z"/>
		<path class="st74" d="M160.9,484.6c13.7-2.9,11.9,3.2,37,1.5c8.3-0.6,18.7-1.9,36.6-2.6c9.5-0.4,11.6-0.2,14.1,0.4
			c10.1,2.5,11.3,10.7,25.4,24.1c7.8,7.4,11.7,11.1,17.6,12.6c8.4,2.1,12.4-1.8,27.2-5.6c20.3-5.2,35.4-3.6,38.9-3.1
			c10.6,1.3,20,2.5,26.6,10.3c4.9,5.7,8.2,15.1,5.4,23.3c-2.8,8.4-10.7,12.1-23.9,18.1c-6.8,3.1-11.5,4.5-33.5,10.6
			c-25.5,7.1-27.8,7.6-33.4,10.3c-14.2,6.9-12.9,10.4-23.4,14c-2.6,0.9-22.6,7.5-39.5-1.9c-9.6-5.4-9.3-11-22.2-18.1
			c-8.1-4.5-15.2-6.1-18.5-6.8c-18-3.9-29,1.6-46.3,4.2c-16.6,2.5-29.9,0.3-56.6-4.1c-28.6-4.7-47.7-7.9-50.1-18
			c-2.1-9,9.7-20.9,20.1-26c9.3-4.6,13.9-1.9,28.3-6c8.2-2.3,14-5.4,25.5-11.6C148.2,493.2,147,487.6,160.9,484.6z"/>
		<path class="st74" d="M265.6,410.6c-5.4,18.5,6.3,34.4,16.7,48.5c6.4,8.7,12.3,16.7,21.4,17.6c6.2,0.7,8.3-2.5,23.7-5.2
			c8-1.4,12-2.1,17.2-1.6c11.1,1.1,12.1,6,21,6.2c11.8,0.3,20-8,21-9c1.7-1.8,6.5-6.7,7.5-14.3c1.6-12.6-8.4-22.1-9.3-22.9
			c-8.8-8.1-14.7-3.1-28.2-11.9c-5.2-3.4-4-3.9-16.6-14.5c-8-6.6-12-10-15.6-12.1c-5.4-3.2-18.2-10.6-32.3-7.1
			C278.8,387.5,269,399,265.6,410.6z"/>
		<path class="st74" d="M282.4,416.5c-8,14.8,5.5,30.9,6.5,32c2.2,2.5,8.5,9.8,18.9,10.5c9.3,0.6,18.2-4.5,22.9-12.2
			c5.5-8.9,3.3-18.1,2.7-20.6c-0.4-1.7-3.7-14.9-16.1-20.2C305.4,400.8,288.9,404.4,282.4,416.5z"/>
		<path class="st74" d="M301.9,424.4c-0.9,0.6-1.2,2.9,0,4.1c1.6,1.6,4.7,0.3,5-0.9C307.1,426.2,303.3,423.5,301.9,424.4z"/>
		<path class="st74" d="M300.1,441.8"/>
	</g>
</g>
<g id="Calque_2">
	<path class="st76" d="M2.2-477.1c5.7,44.5,70.3,65.1,84.8,69.7c16.2,5.2,63.8,20.3,104.3-3.9c2.2-1.3,38-23.2,33.6-44.8
		c-3.4-16.7-28.9-24.3-43.9-28.7c-30.6-9.1-40.2-1.2-70.7-4.9c-55.2-6.6-76.9-38.7-96-26.3C2-508.1,0.8-488,2.2-477.1z"/>
	<path class="st76" d="M29.4-648.1c0.4-3.9,38.9-7.2,78.9,1.9c18.4,4.2,32.7,10.4,61.4,22.9c30,13,31.5,16.4,31.2,18
		c-1,4.8-21,5.9-38,3.4c-25.7-3.7-35.7-14.4-60.4-25.8C60.8-647,29.1-644.6,29.4-648.1z"/>
	<path class="st76" d="M30.4-672c16.2-4,33.1-8.2,55.1-6.3c34.1,2.9,35.1,16.7,74.1,25.3c37.3,8.3,46.8-2,68.7,10.2
		c21.3,11.8,40.6,37.3,34.6,53.6c-8.8,23.9-69.2,20-77.5,19.5c-58.8-3.7-60.3-31.5-120.2-35.9c-23.5-1.7-44.3,1-63.1-14.2
		c-1.9-1.5-20-16.6-16.5-30.3C-11.3-661.9,6.7-666.1,30.4-672z"/>
	<path class="st76" d="M0-588.2c15.4-4.7,20.8,9.8,64,27.8c52.6,21.8,70.5,11,146.2,34.1c57,17.4,65.1,29.1,68.2,34.6
		c16.9,30-0.6,76.2-26.8,102.3c-29.3,29.2-67.3,31.1-116.5,33.6c-68,3.5-113.3,5.8-145.2-24.4C-70.6-437.3-43.5-574.8,0-588.2z"/>
	<path class="st76" d="M309.1-603.8c41.6-16.3,85.2,8.4,93.6,13.2c76.6,43.5,87.2,136.9,87.7,142.3c2.4,26.6,6.9,77.7-27.5,106
		c-41.9,34.5-119.3,16.5-143.1-22.2c-6.9-11.3-9-23.8-9.7-28.3c-6-36.6,15.7-48.7,9.7-77c-3.9-18.3-13.1-14.2-32.2-51.2
		c-11.7-22.7-18.4-36.1-14.1-50.7C279.5-592.1,302.9-601.3,309.1-603.8z"/>
	<path class="st76" d="M278.4-615c-5.7,2.8-10.8,9.1-9.3,12.2c1.6,3.1,9.9,2.6,15.6,0c5.7-2.6,11.5-8.5,10.2-11.7
		C293.6-617.8,284.8-618.1,278.4-615z"/>
	<path class="st76" d="M437.3-642.3c-6.1,10,12.1,24.5,40.9,71.1c11.1,18,15.8,27.8,20.5,26.8c5.4-1.2,8.8-16.9,4.9-30.2
		c-4.8-16.2-16.7-15.2-29.2-34.1c-13.2-19.9-10-35.9-21-39C448-649.1,440.3-647.2,437.3-642.3z"/>
	<path class="st76" d="M398.8-629.1c21,9.8,34.3,26.1,60.8,58.6c32.1,39.3,38.2,60.4,47.4,58.4c12.3-2.7,21.9-45.9,7.8-81.4
		c-13.3-33.3-36.1-32-45.8-66.3c-1.7-6.2-11-38.9,5.4-63.3c10-15,23.3-17.4,24.4-30.2c1.3-15.3-16.4-28.3-19-30.2
		c-28.7-21-55.5-0.7-73.6-18.5c-13.7-13.5-2.3-29-18-54.1c-9.1-14.5-20.8-21.8-34.6-30.2c-43.4-26.4-88.3-27.5-108.2-26.8
		c-31.6,1.2-69,2.6-86.2,29.2c-11.8,18.2-7.9,38.8-7.3,41.9c7.4,36.4,48.6,50.8,51.2,51.6c37.2,12.3,56-12.4,79.4,1.9
		c23.4,14.4,26.1,52.4,27.3,69.7c3,42.7-14.5,57.8-3.9,73.6C319.6-624.6,355-649.5,398.8-629.1z"/>
	<path class="st76" d="M373-527.8c-3.4-0.1-8.1-0.3-11,2.7c-9.7,10.2,20.5,36,24.1,76.2c3.4,37.6-19.1,58.5-6.6,72.4
		c7.6,8.4,23.2,8.9,33.4,3.8c24.8-12.3,24.7-61,15.3-92.1C420.1-492.3,398.3-526.7,373-527.8z"/>
	<path class="st76" d="M235.9-834.7c17.5,22.5,52.4,0.3,83.9,22.5c26,18.4,32.4,54.9,34,64.1c5.7,32.9-6.6,49.2,4.9,60.3
		c12.3,11.8,39.1,5.8,55.4-4.9c1.7-1.1,28.4-19.2,26.3-42.2c-2-21.6-27.2-23.7-60.3-56.5c-33.6-33.3-25-48.3-53.2-68.8
		c-31.4-22.9-79-31.3-93.2-13.4C226.2-864.1,227.2-846,235.9-834.7z"/>
	<path class="st76" d="M62.2-878.6c41,27.8,26.7,61,64.1,87.2c28.8,20.1,43,4.5,99.8,32.3c37.3,18.3,43.8,31.2,46,37.3
		c5.9,15.7-3.2,18.9,0,58.7c0.6,8,2,19.5-3.8,23c-3.8,2.3-8.9,0.3-11-0.5c-27.5-11.2-41.3-16.8-82.8-40.6
		c-34.2-19.6-68.7-21.8-97-23.6c-46.7-3-54.2,9-74.5-1.1C-39.5-727-41.8-796.3-42-809c-0.2-20-0.7-67.3,29.1-83.3
		C17.1-908.4,57.5-881.7,62.2-878.6z"/>
	<path class="st76" d="M238.1-660.4c1.5,3.7,8.7,6.2,13.2,3.3c3.7-2.4,3.8-7.3,3.8-8.2c0.1-3.5-1.4-8.4-4.4-9.3
		C245.6-676.2,235.8-666.1,238.1-660.4z"/>
	<path class="st76" d="M189.1-695.9c10.4,4.4,24.5,10.2,40.4,5.8c9.9-2.8,25.3-10.8,25.1-20.2c-0.2-10.6-20.1-17.9-31.7-22.1
		c-27.3-9.8-35.8-4.1-58.7-9.9c-32.5-8.2-55.7-29.9-66.4-39.8c-23.2-21.7-28.6-38-42.8-37.3c-11.5,0.6-20.5,12.6-24.1,21.4
		c-7.3,17.8,3,34.5,4.4,36.7c0.5,0.9,1.2,1.8,2,2.7C50-743,77.3-737.6,91.2-735c34.8,6.6,52.2,9.9,57.8,12.7
		C167.6-712.7,167.5-704.9,189.1-695.9z"/>
	<path class="st76" d="M61.2-664.4c15,0.1,25.1,0.1,39,3.1c15.3,3.3,15.4,6,39,13.8c18,6,29.6,9.8,45.9,12.6
		c18.1,3,24.6,1.8,32.7,8.2c7.4,5.8,15,17,12,26.4c-3.3,10.2-17.6,13.2-26.4,15.1c-5.3,1.1-25.3,4.8-56.6-7.5
		c-21.6-8.5-18.1-12.6-39.6-21.4c-17.2-7-33.9-10.3-55.4-14.5c-24-4.7-36.2-5.4-38.4-12.6c-2-6.7,6-14.3,7.5-15.7
		C23.7-659.4,30.5-664.5,61.2-664.4z"/>
	<path class="st76" d="M262.4-710.2c0-13.3-18.6-23.5-25.8-27.2c-22.1-11.8-33.3-5.5-62.6-13.8c-7.8-2.2-24.4-7-41.3-18.6
		c-14.5-9.8-26.4-25.1-49.7-55.1c-19.5-25.2-21.1-29.4-30.2-34.7c-15.2-8.9-41.2-15.2-56.6-3.3c-16.5,12.8-12.6,40.2-6.9,80
		c4.7,32.6,7.2,50.4,21.6,60.8c2.2,1.6,4.2,2.7,6.3,3.5c21.6,8.1,41.4,3.7,55,1.3c32.3-5.6,60.3,3.6,70.8,7
		c37.1,12.2,39.3,32.2,65.8,33.1C234.4-676.5,262.5-694.1,262.4-710.2z"/>
	<path class="st76" d="M48.5-478c-5.3,5.2-0.6,18.3,3.3,25.1c11.2,19.4,39.5,27.6,47,19.9c5.1-5.3,0-17.9-2.8-23.2
		C85.2-476.3,56.3-485.7,48.5-478z"/>
	<path class="st76" d="M156.7-452.8c-6.1-2.6-18.8,5.1-18,14.2c0.8,8.7,13.4,14.3,19.2,11.2C164.9-431.4,163.8-449.8,156.7-452.8z"
		/>
	<path class="st76" d="M151.5-469.4c4.4-0.4,23.4-2,32.7,11.9c7.9,11.6,4.9,28.1-3.3,37c-15.8,17.2-53.6,8.7-61.2-10
		c-4.3-10.6,2.2-22.2,2.8-23.2C130.7-467.7,147.3-469.1,151.5-469.4z"/>
	<path class="st76" d="M90-522.7c37.5,11.2,45.8-2.5,92.2,9.9c25.5,6.8,42.9,11.5,55.5,27.8c18.6,24,19.5,64.2,0,85.3
		c-7.6,8.2-17.6,12.8-60.5,16.7c-74.4,6.7-111.6,10.1-139.8-9.7c-25.2-17.8-36.1-43.2-42.6-58.5c-8.3-19.5-18-42.2-8.9-66.4
		c1.5-3.9,10-26.5,29.7-32.7C38.1-557.6,48.9-535,90-522.7z"/>
	<path class="st76" d="M341.8-526.7c-6.3,16.1,18.9,25.6,23.8,58.5c4.2,27.8-13.1,36.2-6.9,67.4c1.9,9.6,5,25.5,18.8,34.8
		c14.4,9.7,35.2,8.5,48.6-1c15.8-11.2,17-31.1,18.8-53.5c0.6-7.9,2.7-41.4-16.9-78.3c-10.8-20.4-20.5-38.8-40.6-43.6
		C370.1-546.7,347-540.2,341.8-526.7z"/>
	<path class="st76" d="M308-557.4c-3.7,10.9,8,28.5,30.7,63.4c7.1,11,11.2,16.5,13.1,26.3c2.9,14.7-2.3,22.6-4.9,39
		c-1.6,10.2-5.8,36.4,5.4,53.7c14.5,22.5,55.6,31.2,83.3,15.2c25.1-14.5,30.1-44,33-60.9c10.2-59.3-27.1-105.3-32.7-112
		c-8.1-9.7-41.8-50.4-86.2-46.6C347.4-579.1,314.3-575.9,308-557.4z"/>
	<path class="st76" d="M405.2-415.7c-7.4-17.7-2.1-37.6,1-37.7c4.9-0.1,11.7,48.2,6.9,49.6C411-403.2,406.7-412.1,405.2-415.7z"/>
	<path class="st76" d="M194-853.8c-1.3,15.7,5.9,32.9,18.8,41.6c22.9,15.6,44.6-8.5,73.4,4c28.2,12.2,38.2,48.7,40.6,57.5
		c11.3,41.3-10,61.9,5,81.3c14.4,18.8,49.3,19,72.4,9.9c41.6-16.3,63.5-69.9,49.6-97.2c-11.8-23.2-43.4-15.4-67.4-49.6
		c-11.6-16.4-5.9-20.6-17.8-37.7c-21.1-30.2-54.9-40.2-73.4-45.6c-25.5-7.5-55.8-16.4-79.3,0C212.6-887.3,195.8-875,194-853.8z"/>
	<path class="st76" d="M379.4-737.9c-3.4,6.3,13.3,25.2,18.8,22.8c4.1-1.8,6-16.7-3-22.8C389.9-741.5,381.3-741.4,379.4-737.9z"/>
	<path class="st76" d="M29.4-561.7c9.6,0.7,11.5,4.7,29.6,13c0,0,17.6,8,41.2,13.9c24.2,6,25.7,1.4,56.4,6.3
		c9.3,1.5,30.9,5.3,56.4,15.2c20.8,8.1,31.3,12.4,38.5,23.3c6.9,10.5,7.6,21.8,8.5,37.2c0.9,15,1.5,24.4-2.7,35.4
		c-10.1,26.5-38.2,36.9-43.9,39c-5.9,2.2-9.6,2.8-39.9,4.9c-37.7,2.7-56.8,4-69,3.6c-27.6-1-41.5-1.4-57.8-8.5
		c-23.4-10.1-37-26.4-42.5-33.1c-14.5-17.7-20.1-34.7-24.2-47.5c-4.7-14.6-8.8-27.6-6.7-44.8c1-8.2,3-23.4,14.8-37.2
		C-9.2-544.1,7.6-563.3,29.4-561.7z"/>
	<path class="st76" d="M112.7-500.4c17.9,1.8,19-2.6,36.7-1.8c17.5,0.8,30.4,5.8,43.4,10.7c15.6,6,23.4,9,30,16.6
		c1.9,2.2,11.6,13.8,11.2,30.5c-0.5,23.3-20.3,37.3-24.6,40.3c-11.5,8.1-22.1,9.5-43,12.1c-15.2,1.9-34.5,4.1-60,0.4
		c-20.1-2.9-47.6-6.8-74.3-26.9c-8.8-6.6-26.2-20-35.4-43.9c-3.6-9.3-8.9-23.9-3.6-40.3c1.2-3.5,6.6-20.3,21.9-26.4
		c12.9-5.2,25.9,0.1,37.6,4.9c14.2,5.8,13.8,9.9,29.1,16.1C85.4-506.5,97.2-501.9,112.7-500.4z"/>
</g>
</svg>
