<svg xmlns="http://www.w3.org/2000/svg" viewBox="0 0 563.73 776.06"><defs><style>.cls-1,.cls-2{fill:none;stroke:#71a0cf;stroke-miterlimit:10;}.cls-2{stroke-width:2.83px;}</style></defs><g id="Calque_2" data-name="Calque 2"><g id="Calque_4" data-name="Calque 4"><path class="cls-1" d="M537,597.38c-.36,3.82-1.77,7.71-18.63,25.24-15.39,16-18.28,17-21,16.72-5.24-.48-5.72-5.13-17.43-18.53-9-10.34-14.93-17.08-24.22-24-7.28-5.41-11.52-7.12-11.64-11-.17-5.49,8.3-9.85,14.32-13,7.11-3.66,18.9-9.74,35.78-8.94,8.66.4,26.42,1.24,36.54,14.57C532.21,580.57,537.84,588,537,597.38Z"/><path class="cls-1" d="M561,465.44c-2.28.2-1.56.91-7.48,6.17-9.36,8.33-9.18,22.29-9.05,32.52.19,15.09,4.27,24.18,1.72,40.81-.45,2.88-1.18,6.61-4.15,9.1-5.6,4.7-15,1.5-21-.09-10.44-2.77-23.73-1.91-50.33-.18-33.35,2.16-39.57,8.73-41.79,11.56a27.61,27.61,0,0,0-5.51,14.93c-.64,11.64,6.84,20,9,22.42,7.06,7.88,10.8,5.29,20.83,13.33s15.32,17.89,18.24,23.34c8,15,5.1,19.94,11.17,24.22,9.84,6.94,27.22.65,37-5.77,7.84-5.14,6.83-7.74,23.81-25.11,3.56-3.65,10-10.05,17.47-16.63"/><path class="cls-1" d="M561,640.37c-4.38,7.44-.85,18.44-13.14,29.46-8.46,7.58-25.41,22.78-49,22.09-12.94-.38-33.95-5.72-39.4-19.52-3.41-8.6,1.71-14.24-3.33-26.24-1.89-4.47-5.29-8.46-12-16.25-11.52-13.33-14-13.19-20.77-22.19-6.25-8.3-11.24-14.93-12.15-24.83-.17-1.84-1.07-13.52,6.29-23.93,9.12-12.9,25-15.44,37.37-17.43,11.59-1.86,12.12.19,36.67-1.31,22.38-1.36,26.92-3.37,30.4-6.47,4.92-4.37,6.63-11.5,9.84-25.57,4.52-19.83,2.48-24.55,7-37.27,3-8.51,15.19-17.61,22.23-23.31"/><path class="cls-1" d="M561,414.25c-4.12,1.3-7.71,4.18-16.08,11.83-13.73,12.54-17.21,29.71-21,49.67-4.78,25.21-1,32.66-9,40.91-5.77,6-14.33,7.58-31.46,10.8-22.89,4.29-25.58.64-39.94,4.92-8.67,2.58-25.28,7.53-35.32,23-10.47,16.07-7.74,34.19-7,38.36,1.62,9,7,19.39,17.69,40.13,6.75,13.06,8.49,15.18,7.44,18.7-4.13,13.9-39.19,7.79-44.93,21.36-4.63,11,12.38,28.86,21,36.09,21.11,17.69,44.93,21,62.5,23,41.56,4.77,80.69-6.59,96.11-12.18"/><path class="cls-1" d="M471.89,488.13c4.11-1,9.73-4.5,10.47-10.56a11.49,11.49,0,0,0-4.38-10.5c-6.48-4.68-15.41,1.28-16.65,2.14-1.41,1-7.57,5.24-6.95,10.38C455.09,485.5,464.43,490,471.89,488.13Z"/><path class="cls-1" d="M473.82,503.26c7.5-2,11.36-3.11,15.31-6.42,7.88-6.62,11-17.85,9.5-27.63-.43-2.82-2-13.09-10.2-18.57-11.66-7.81-28.77-.59-40.83,4.49-6.86,2.89-7,4-19.45,9.5-10.67,4.77-16.12,7.17-22,8.1-4.71.74-11.44.14-24.9-1.06-14.86-1.32-16.73-2.13-21.91-1a43.62,43.62,0,0,0-17.16,8.53c-7.56,6.1-7.73,10.46-14.61,13.46a21.75,21.75,0,0,1-12.93,1.59c-9.14-1.94-14.3-10.52-20.42-20.68-3.55-5.9-2.46-5.5-8.44-16.19-5.67-10.12-8.71-14.17-13.11-17.69-2.47-2-5.4-4.31-9.77-5.45-7.1-1.87-12.26.93-18.92,2.81-9.3,2.63-17.23,1.93-33.08.53-15-1.33-16-3.71-26.84-3.17-7.72.39-15.52.78-23.14,6.16-9.19,6.49-12.28,16.1-13.2,19.62-3.53,13.56,2.21,25.17,5.19,31,3.12,6.07,7.57,12.18,37,33.52,21.78,15.82,32.85,23.75,41.7,25.08a140.24,140.24,0,0,0,34.94.53c3.7-.5,5.16-.89,8-.71,10.46.67,18,7.75,27.54,18.13,20.8,22.52,24.44,31.39,37.75,37.22,6,2.62,11.27,3.45,16.37,2.2,4.32-1.06,8.36-3.58,12.93-8.8,7.9-9,8.13-15.54,15.05-33.35s13.13-27.93,15.75-32c5.43-8.51,8.15-12.77,12.41-16.1,9.33-7.31,20.13-8.48,36.78-10.29C459,505.52,464,505.92,473.82,503.26Z"/><path class="cls-1" d="M358.12,581.65c7.7-2.26,9.4-9.84,20.69-39,10.76-27.79,14.38-34.23,10.46-41.81-3.29-6.37-10.84-11.51-17.94-11.12-8.54.47-9.53,8.59-23.66,19.65s-20.59,8.85-26.34,18.33c-5.45,9-4.32,18.78-3.69,22.34,2.67,15,14.77,22.67,18.74,25.19C342.19,578.87,350.23,584,358.12,581.65Z"/><path class="cls-2" d="M34.31.66c1.8,14.21-.22,16.49-2.17,23.55a89.11,89.11,0,0,1-11.4,24.86c-9.77,14.8-17.2,16.4-19,26.24-1.45,7.93,2,14.6,5.45,21.1C20,120.34,37.49,117.77,43.68,134.93c5,13.93-.58,32.09-8.78,42.22-2.8,3.45-6.19,6.33-16,17.71-8.3,9.63-9.24,11.48-9.79,12.79-1.84,4.35-3.78,13.15,5.28,31,3.6,7.12,10.13,18,39.14,44.43a240.24,240.24,0,0,0,48.65,34.06c6.31,3.32,13,6.42,19.7,4.26,9.6-3.07,12.27-14.55,17.2-25.48,9.23-20.46,23.16-31.88,47.42-51.77,20.25-16.61,30.38-24.91,46.89-29.08,18.23-4.6,26.12.2,39.19-8.64,13.59-9.21,25.12-22.78,25.12-22.78,4.78-5.63,7.9-10.31,13.3-10.76s10.1,3.81,15.1,8.83c13.05,13.1,21.81,23.93,24,26.47,17.49,20.69,47.39,24.19,58.94,25.55,21.82,2.56,30.26-3.52,48.78,4.18a63,63,0,0,1,21.11,13.66c19.44,19.42,9.6,37.51,27.25,52.82,9.56,8.29,15.84,5.93,25.79,17.37,1.11,1.27,13.53,15.82,9.06,23.11-1.58,2.58-4.75,3.39-6.9,3.8C517.19,352,496.2,343.66,474,336c-20.46-7.11-26.41-8.33-34-6.95s-7.13,3.51-20.9,8.21a132,132,0,0,1-33.18,7c-9.92.67-15.08,1-21.57-.64-18.16-4.63-18.54-17.73-34.92-24.23-13.53-5.36-26.82-1.8-43.74,2.73-15.22,4.07-15.3,7-34.9,14.72-27.26,10.76-36.16,8.71-63.68,20.92-20.33,9-24.31,14.07-26.45,18.24-6.12,11.89-3.32,28.51,5.09,39,14.8,18.38,47.71,18.62,68.42,13.53,18.4-4.53,28-13.46,39.46-8.06,3.45,1.62,7.57,7.37,15.67,18.81,14,19.69,17.57,27.72,26.58,29.69,3.13.68,6,.12,11.62-1,19.32-3.78,21.36-12.89,33.58-13.65,11.86-.74,13.23,7.65,28.3,7.35,7.36-.15,12.75-2.27,20.06-5.14,14.54-5.72,16.24-10.29,27.7-15.53,4.41-2,14.71-3.67,35.13-6.91,25.93-4.12,32.38-4.5,35.9-.35,1.92,2.26,1.87,4.56,1.79,12.76-.31,35.42.24,38.44-2.9,45.22-1.65,3.55-5.26,11.09-13.2,16.63-7.3,5.09-14.56,5.91-19.72,6.62C460,516.81,440,519.55,427.24,526c-22.43,11.3-30.69,38.21-31.13,39.7-5.73,19.6.26,36.32-12.6,48.61a30.31,30.31,0,0,1-7.26,5.12c-7.15,4.26-11.36,4.65-24.1,9.6-9.65,3.75-11.14,5-12.16,6.83-3.27,5.73.22,13.25,1.49,16,4.16,9,11.17,10.15,16.43,15.36,11.08,11,4.17,28,6.29,42.07C370,747.51,443.18,766,455,769c45.6,11.51,85.06,3.06,107-3.73"/><path class="cls-1" d="M82.23,99.5c6.34-3.1,7.49-11.31,7.53-11.66,1.56-12.43-13.14-20.58-15-21.61C71,64.14,65.24,61,60.26,63.31c-6,2.84-7.58,12.24-6.13,18.69C56.92,94.31,72.63,104.2,82.23,99.5Z"/><path class="cls-1" d="M94.45,112.25c3.75-2.28,9-5.47,11-11.49,2.24-6.8-2.11-9.83-10.75-32C91.14,59.58,89.89,55,85,49.18c-3-3.57-6.59-7.77-12.1-8.74C64.57,39,57.32,45.8,53.15,49.72S37.62,64.35,38.23,81.3c0,.91,1.18,22,19.73,31.9A37.55,37.55,0,0,0,94.45,112.25Z"/><path class="cls-1" d="M111.07,145.91c4.59-1.07,7.68-6.88,6.3-9.18s-7.8-1.64-11.56,1.36c-.73.59-3.12,2.51-2.76,4.52C103.49,145,107.77,146.67,111.07,145.91Z"/><path class="cls-1" d="M195.74,183.31c1.44-.54,9.16-3.43,10-9.2s-5.32-10.53-9.4-13.76c-6.45-5.12-23.43-15.86-31.23-9.09-5.08,4.4-4.26,14.46-1.06,20.85C169.88,183.73,185.46,187.17,195.74,183.31Z"/><path class="cls-1" d="M202.86,202.35a110.61,110.61,0,0,1-19.3,5c-13.1,1.89-16.57-1.65-28.85-1.78s-12.16,3.38-38.66,9.38c-25,5.66-30.5,3.76-33.26,2.52-11.56-5.2-16.17-17.39-17.37-20.57-2.08-5.5-5.6-14.82-.77-22.83,3.51-5.81,10.37-9.2,16.66-9.51,10.57-.51,12.88,8,25.12,9.36.72.07,12.63,1.18,22-6.12,9.62-7.51,6.39-16,15.31-23.94,7.65-6.79,17.49-7.14,25.84-7.44,9.84-.35,20.1,3.41,40.62,10.94,0,0,18.05,6.61,33.64,17.66a31.86,31.86,0,0,1,7.95,8.32c2.09,3.16,4.51,6.85,3.49,10.12-.74,2.32-3.07,4-12.31,6.66-11.89,3.47-14.57,2.69-23.15,5.34C212,197.85,212.72,199,202.86,202.35Z"/><path class="cls-1" d="M211.45,212.59c-24.14,11.95-36.22,17.94-36.72,18.14-14.27,5.75-19.4,6-26.2,12.55-3.58,3.48-4.72,5.91-8.69,7.39-6.93,2.57-10.83-2.1-22-3.08-5.62-.5-15.53-1.37-21.37,4.21-6.4,6.11-2.92,15.21-8.74,18.4-2,1.09-4.94,1.42-13-1.95-12.24-5.12-25.08-10.5-31.77-24.48-5.75-12-3.84-23.85-3.15-28.1,2-12.58,7.4-15.36,9.6-30.78,1.29-9.06-.44-8.92.9-17.86,2.61-17.39,9.37-19.28,9-28.6C59,125.72,46.3,125.24,35.38,105c-3.29-6.11-9.84-18.64-8.23-34.77,1.64-16.3,10.68-27,14-30.84,6.14-7.09,15.62-18.06,29-17.6,15.47.52,25.32,15.93,27.27,19,5,7.84,2.72,9.83,9.65,27.8,4.93,12.8,5.21,9.49,11.1,24.09,5.22,12.93,6.77,19.91,14.17,24.66a28.53,28.53,0,0,0,7.45,3.13c14.23,4.39,26.77,3.2,30.51,3,8.55-.53,20,3.86,42.79,12.63a271.61,271.61,0,0,1,52.8,28.55c9,6.23,13.88,10.36,13.81,15.64-.12,10.72-20.25,18.34-21.43,18.78-11.14,4.09-15.13.93-28.93,5.28C226.18,205.29,225,205.9,211.45,212.59Z"/><path class="cls-1" d="M205,80.32c2.11-8.14-6.55-16.61-11.73-20.16C186.05,55.21,172.55,50.89,165,58c-6.23,5.9-4.34,15.9-4.17,16.72,2.18,10.66,12.32,15,13.55,15.49C186,94.93,202.52,90,205,80.32Z"/><path class="cls-1" d="M220.3,89.54c5.28-10.51-.79-24.38-7-32.17-6.93-8.69-15.75-11.95-20.05-13.48-14.53-5.16-26.94-1.85-37.76,1-11.38,3-13.36,6.07-13.91,7-4.41,7.46,2,18.47,5.38,24.39A48.64,48.64,0,0,0,166.76,96c9.43,4.9,17.31,4.84,29.6,4.75,10.81-.08,15.39-2,18.65-4.66A20.24,20.24,0,0,0,220.3,89.54Z"/><path class="cls-1" d="M234.87,110.38c3.9-3.61,2.6-8.63-1-35.06-1.62-12-2.22-17.4-6.61-23.45a38.25,38.25,0,0,0-8.74-8.27c-6.63-4.83-15.48-9.28-28.06-11.86-8.91-1.83-33.75-6.93-53.55,6.09-7.8,5.12-9.52,9.58-10,11.22-2.15,6.79,1,13.07,6.07,23.12,3.22,6.38,7.22,14.13,15.64,21.74a62,62,0,0,0,18.09,11.45c9.79,3.93,10.54,1.09,29.28,4.62,12,2.26,18.24,4.66,29,3.36C230.11,112.72,232.72,112.37,234.87,110.38Z"/><path class="cls-1" d="M270.68,141.58c2.33-3-1.1-8.78-6-18.29-9.38-18.21-14.08-27.31-15-33.19a60.5,60.5,0,0,1,7-37.59c3.46-6.06,6.56-8.64,5.91-12.91-1.29-8.55-16-13.06-23.85-15.22C203.36,14.62,186.23-1.28,159.82.66c-18.31,1.35-35.89,11.82-42.93,24-4.14,7.16-3.13,15.69-2.4,23.64,1.21,13.1,6.25,22.15,11,30.52,6.38,11.17,13,22.7,26,30.17,7.94,4.56,9.44,2.54,33.8,8.49,19,4.63,28.48,6.94,37.88,11.19,8.56,3.86,17.76,9.11,33.2,12.91C264.74,143.61,269,143.77,270.68,141.58Z"/><path class="cls-1" d="M318.21,99.52c6.16-1.15,10.53-2,13.72-5.9,5.38-6.64,2.31-15.87,2-16.78-.47-1.34-3.14-9-10.18-11-5.28-1.55-9.85,1-15.2,3.93-5.14,2.84-11.85,6.55-13.85,14.17-.27,1-2.16,8.21,1.84,13C301.32,102.66,311.09,100.84,318.21,99.52Z"/><path class="cls-1" d="M343.44,119.8c2.67-2,17.63-13,18-32.52.33-19.79-14.67-31.44-16.36-32.7-1.5-1.13-14.38-10.48-30.1-7.73-2.35.41-10.33,5.26-26.2,15-9,5.49-13.12,8.11-16.79,13.58-1.79,2.68-5,7.6-5.12,14.26-.18,9.33,5.77,16,9.84,20.56,7.79,8.73,16.79,12.19,21.92,14.1,5.46,2,13.36,5,23.85,3.74A44.28,44.28,0,0,0,343.44,119.8Z"/><path class="cls-1" d="M478.91,310.26c6.84-7,1.7-22.15,0-27.05-6.07-17.84-20.83-27.12-25.73-29.9-5.5-3.12-10.34-4.72-44.58-9-36.43-4.55-37.59-3.57-45.9-6.89-12.52-5-32-16.11-33.75-17.09-8.93-5.11-11-6.75-16.06-8.23-10.56-3.05-19.38-1.07-33.5,2.46-27.75,6.95-41.62,10.42-46,12.64-7.2,3.69-17.15,12.93-36.74,31.26-29.25,27.37-35.46,35.55-39.89,42.12-2.2,3.27-6.5,11.82-15.09,28.91C136,340.89,132.18,349,135,356.22c.42,1,2.26,5.74,6,6.59,2.8.65,5.4-1.16,6.21-1.7,10.33-6.92,23.37-8.55,34.75-13.56,17.57-7.75,15.18-5,34.95-13.52,17.9-7.69,18.25-9.23,29.88-13.4,10.42-3.74,11.23-2.89,32.93-8.42,31.2-7.94,34.72-11,45.29-9.17,9,1.55,16.54,5.5,25,9.91,15,7.82,14.53,11.24,22.66,13.26,7.24,1.79,11.1,0,36.36-7,17.7-4.85,26.54-7.27,30.21-7.68C462.55,308.91,472.45,316.88,478.91,310.26Z"/><path class="cls-1" d="M409.41,285.81c-6.28,8.51-11.41,15.45-21.12,18.78-7.85,2.69-14.67,1.64-19.4.86C353.8,303,353,295.84,338.4,291.9c-12.39-3.34-23.63-1.41-32.74.16-12.15,2.09-11.43,4.29-23.54,6.21-14.82,2.35-17-.76-30.4,1.88a84.92,84.92,0,0,0-23.21,8.26c-10.67,5.67-9.74,8.22-21.33,14.76-14,7.88-22.79,8.41-26.66,8.41-2.62,0-12.74,0-14.4-4.5-1-2.74,1.83-5.22,6-11.47,7.8-11.64,5.58-14.45,12.32-24,3.87-5.47,4.22-4,14.22-14.65,10.2-10.85,10.66-13.25,17.2-19.9a100.48,100.48,0,0,1,24.64-18.36c5.88-3.05,20.25-10.49,38.56-10,5.17.14,4.51.74,39,11.86,32.67,10.52,34.5,10.37,39.58,14.43,3.24,2.59,8.31,7.3,16.48,8.91,3.92.78,7.23.48,13.85-.12,13.95-1.25,17.79-3.83,22.35-.95a12.64,12.64,0,0,1,5.22,8C415.9,272.74,416.12,276.73,409.41,285.81Z"/><path class="cls-1" d="M296.49,279.11c5.79-3.34,12.65-7.29,12.5-11.63-.1-2.84-3.17-4.58-12-9.38-15.5-8.44-23.31-12.67-26-13.17-3.11-.59-14.57-2.57-26.25,3.26C240,250.54,233,254.08,231,261.66c-1.33,5.28-.05,12,4.17,15.66,3.34,2.92,5.71,1.48,15.36,3.4,12.12,2.42,12.46,5.51,20.81,5.6a46.39,46.39,0,0,0,15.23-2.78A53.33,53.33,0,0,0,296.49,279.11Z"/><path class="cls-1" d="M561,140.83c-4.18.07-10.62.87-15.73,5.29-4.32,3.74-6.06,8.65-9.06,17.48-4,11.75-3.12,15.62-7.36,18.79-4.51,3.36-10.36,2.59-12.14,2.35-1.26-.16-8.85-1.17-12.34-6.74s.85-9.52-.48-17.83c-2-12.41-14.12-19.62-15.69-20.52-10.4-6-20.78-4.22-24.91-3.51-7.95,1.35-8.53,3.8-21.9,9.61-7.9,3.44-18.12,7.88-31,9.61-4.53.62-2.56,0-26.14.76-14.94.5-19.65.89-24,4.56-6.46,5.42-7.17,13.79-7.22,14.56-.87,12.4,10.32,21.82,18.88,29,5.93,5,18.61,15.67,37.86,18.7,16,2.53,19.16-3,43.33-.69,18.42,1.76,23.42,5.61,25.08,7,7.37,6.22,6.22,12.53,13,27.77a116.5,116.5,0,0,0,18.77,29.38c8.52,9.48,9.63,6.72,32,25.87,10.28,8.81,15.84,14.37,19,17.65,6.65,6.87-3.7,13.05,0,17.71"/><path class="cls-1" d="M476.8,194c5.92-7.38,11-21.28,4.64-31-6.92-10.68-23.29-9.88-27.64-9.67-9.14.45-9.58,3.5-27.56,8-6.95,1.73-7.15,1.34-22,4.62-17.45,3.88-20.6,5.18-22.94,8.41-3.93,5.45-3.28,13.24-1.15,18.41,3.77,9.14,13.15,12.53,25.11,16.84,8.36,3,19.21,6.94,32.84,4.57,8.32-1.45,14.36-4.66,22.17-8.81C468.92,200.73,473.23,198.44,476.8,194Z"/><path class="cls-1" d="M447.08,189.32c8.21-5.76,8.31-8.17,8.28-8.93-.21-4.52-7.86-7.37-8.74-7.7-7.6-2.83-14.51-.38-25.92,3.67-12,4.27-13.55,7.24-14,9-1.07,3.86,1.39,7.5,1.72,8,5.66,8.1,21,5,22.45,4.65C436.54,196.7,440.05,194.24,447.08,189.32Z"/><path class="cls-1" d="M524.17,65.88c-3.35-5.51-6.08-10-11.27-13.33-8.3-5.37-20.79-6.5-30.41-.53-2.11,1.3-9.56,5.92-10.77,14C470.16,76.41,480,84.7,484.64,88.67a42.53,42.53,0,0,0,22,9.54c6.72,1,12.88,1.87,17.68-2,6.19-5,5.58-14.32,5.47-16.11C529.41,74.49,527.05,70.62,524.17,65.88Z"/><path class="cls-1" d="M547.26,97.19c1.56-6.33-.16-8.87-3.36-26.22-2.32-12.59-1.95-14.14-4.18-17.34-3.86-5.56-9.51-7.45-18.41-10.28-5.72-1.81-18.42-5.29-37.18-4.58-12.23.47-18.35.7-23.6,4.66-7.22,5.44-9.35,13.9-11.35,21.85-2.33,9.25-4.21,16.73-.49,22.85,3.51,5.79,8.58,4.71,26.49,11.56,12.21,4.67,12.9,6.33,27.21,11.52,12.16,4.41,17.45,5.3,23.34,4.54,3.26-.43,9.43-1.31,14.66-6.18A24.29,24.29,0,0,0,547.26,97.19Z"/><path class="cls-1" d="M561,118.28a90,90,0,0,1-32.21,10.15c-8.63,1-15.68,1.78-23.73-1.42-7.23-2.89-7.53-5.93-16.72-10.14-3.5-1.61-11.06-5-20.25-5.1-7.71-.09-13.34,2.33-24.29,7.17-14.2,6.27-16.55,9.84-28.24,12.89a37.08,37.08,0,0,1-16.11.82c-4.07-.73-8.7-1.55-11-5.33-2.54-4.09-.86-9.21,0-11.85a20.86,20.86,0,0,1,6.43-9.71c6.65-5.51,12.27-2.63,19.78-8,1.24-.9,3.29-2.56,6.79-7.56,9.31-13.29,10.48-23.86,15.7-35.21,6.27-13.64,10-9.57,16.56-23,5.49-11.23,6.93-21.48,8.31-31.32"/><path class="cls-1" d="M362.76,405.21c-5.8-1.38-8-2.45-14.12-3.27a115.56,115.56,0,0,0-16-1.09c-5,.09-5.95.53-8.31-.28a14.63,14.63,0,0,1-9-9.23c-.46-1.44-1.71-5.34,0-8.64,3.72-7.12,18.27-5.57,19.94-5.37,13.38,1.57,14.74,9.14,25.24,9,7.15-.08,6.84-3.6,19.83-6.29,7.81-1.62,13.49-2.72,19.38,0,5,2.3,11.3,7.85,10.76,13.87-.76,8.54-14.82,12.58-16.92,13.18C383.17,410.07,373.05,407.66,362.76,405.21Z"/><path class="cls-1" d="M375.91,425.07a120.2,120.2,0,0,0-29.41-2.54c-18.34.87-21.62,6.38-30,2.84-2.07-.88-2.22-1.39-16.45-17.64-9.56-10.92-13.37-15.51-20.68-17.78a29,29,0,0,0-10.95-1.14c-11.74.78-15,7.44-27.54,12.86-3.86,1.67-17.39,7.32-32.05,3.42-3.65-1-14.54-3.86-16.45-11.54-1.43-5.78,2.95-11.35,4.6-13.46,8.69-11,23.19-13.17,34-14.61,22.84-3.05,28.69,3.32,40.68-3.23,9-4.92,8-9.76,17.45-14.33,11.75-5.68,23.91-3.31,31.18-1.8,25.19,5.24,27.32,19.79,47,20,8.72.07,9.61-2.78,24.85-3.26,11.6-.37,18.41-.49,25.5,3.63,1.39.81,13.3,8,14.77,21.26,1.31,11.74-6.87,20.36-13.65,27.57-4.9,5.21-12.12,12.9-22.78,14.07C389.48,430.07,388.14,427.68,375.91,425.07Z"/><path class="cls-1" d="M402.34,443.79c-13.74,2.93-11.88-3.2-37-1.48-8.33.57-18.72,1.94-36.64,2.6-9.47.35-11.64.16-14.05-.44-10.08-2.51-11.28-10.72-25.41-24.15-7.81-7.43-11.72-11.14-17.63-12.62-8.44-2.1-12.39,1.85-27.21,5.65-20.31,5.19-35.41,3.55-38.88,3.12-10.59-1.31-20-2.48-26.6-10.28-4.85-5.72-8.21-15.05-5.42-23.34s10.74-12.13,23.91-18.11c6.82-3.09,11.48-4.5,33.51-10.62,25.46-7.08,27.81-7.58,33.35-10.26,14.19-6.85,12.88-10.39,23.36-14,2.6-.9,22.63-7.52,39.51,1.86,9.64,5.37,9.31,11,22.18,18.07a66.28,66.28,0,0,0,18.52,6.77c18,3.9,29-1.64,46.3-4.21,16.57-2.47,29.9-.27,56.56,4.14,28.56,4.72,47.73,7.89,50.08,18,2.09,9-9.73,20.87-20.1,26-9.34,4.6-13.92,1.94-28.34,6-8.17,2.29-14,5.42-25.47,11.59C415,435.23,416.23,440.84,402.34,443.79Z"/><path class="cls-1" d="M297.67,517.79c5.43-18.47-6.33-34.43-16.7-48.52-6.43-8.72-12.27-16.66-21.4-17.65-6.18-.67-8.26,2.46-23.67,5.2-8,1.43-12,2.15-17.19,1.62-11.12-1.14-12.07-6-21-6.17-11.78-.25-20,8-21,9-1.72,1.78-6.48,6.68-7.47,14.29-1.63,12.57,8.38,22.05,9.33,22.92,8.81,8.09,14.7,3.07,28.15,11.91,5.18,3.41,3.95,3.93,16.59,14.47,8,6.65,12,10,15.62,12.1,5.45,3.17,18.15,10.58,32.3,7.12C284.44,540.86,294.27,529.35,297.67,517.79Z"/><path class="cls-1" d="M280.8,511.93c8-14.81-5.5-30.9-6.48-32-2.19-2.55-8.49-9.84-18.86-10.45a25.64,25.64,0,0,0-22.93,12.17c-5.45,8.88-3.3,18.09-2.7,20.65.41,1.75,3.72,14.9,16.09,20.23C257.8,527.62,274.33,524,280.8,511.93Z"/><path class="cls-1" d="M261.36,504c.95-.61,1.17-2.88,0-4.06-1.57-1.59-4.71-.26-5,.9C256.1,502.24,259.9,504.9,261.36,504Z"/></g></g></svg>